<?xml version="1.0" encoding="utf-8"?>
<!-- Generator: Adobe Illustrator 22.1.0, SVG Export Plug-In . SVG Version: 6.00 Build 0)  -->
<svg version="1.1" id="Layer_1" xmlns="http://www.w3.org/2000/svg" xmlns:xlink="http://www.w3.org/1999/xlink" x="0px" y="0px"
	 viewBox="0 0 39 38" style="enable-background:new 0 0 39 38;" xml:space="preserve">
<style type="text/css">
	.st0{fill:#FFFFFF;}
</style>
<g>
	<path class="st0" d="M16.2,32.3h5.2v-13H25l0.4-4.3h-4c0,0,0-1.6,0-2.5c0-1,0.2-1.4,1.2-1.4c0.8,0,2.8,0,2.8,0V6.6c0,0-3,0-3.6,0
		c-3.9,0-5.6,1.7-5.6,4.9c0,2.8,0,3.5,0,3.5h-2.7v4.4h2.7V32.3z"/>
	<g>
		<path class="st0" d="M19.4,37.3c-10,0-18.2-8.2-18.2-18.2S9.4,0.8,19.4,0.8S37.6,9,37.6,19.1S29.5,37.3,19.4,37.3z M19.4,2.3
			c-9.3,0-16.8,7.5-16.8,16.8c0,9.3,7.5,16.8,16.8,16.8s16.8-7.5,16.8-16.8C36.2,9.8,28.7,2.3,19.4,2.3z"/>
	</g>
</g>
</svg>
