<?xml version="1.0" encoding="utf-8"?>
<!-- Generator: Adobe Illustrator 22.1.0, SVG Export Plug-In . SVG Version: 6.00 Build 0)  -->
<svg version="1.1" id="Layer_1" xmlns="http://www.w3.org/2000/svg" xmlns:xlink="http://www.w3.org/1999/xlink" x="0px" y="0px"
	 viewBox="0 0 71 47" style="enable-background:new 0 0 71 47;" xml:space="preserve">
<style type="text/css">
	.st0{fill-rule:evenodd;clip-rule:evenodd;fill:#FFFFFF;}
	.st1{fill-rule:evenodd;clip-rule:evenodd;fill:#26A7DF;}
	.st2{fill-rule:evenodd;clip-rule:evenodd;fill:#F8EC1F;}
	.st3{fill-rule:evenodd;clip-rule:evenodd;fill:#016A37;}
</style>
<g>
	<path class="st0" d="M35.6,40.3c18.8,0,34-8.7,34-19.3c0-10.7-15.2-19.3-34-19.3c-18.8,0-34,8.7-34,19.3
		C1.6,31.6,16.8,40.3,35.6,40.3z"/>
	<g>
		<path class="st1" d="M35.3,1.1C16.4,1.1,1.1,9.9,1.1,20.8c0,10.9,15.3,19.7,34.2,19.7c18.9,0,34.2-8.8,34.2-19.7
			C69.6,9.9,54.2,1.1,35.3,1.1z M1.9,20.8c0-8,8.7-14.9,21-17.7C11.7,6,3.8,12.8,3.8,20.8c0,7.9,7.9,14.7,19.1,17.7
			C10.6,35.6,1.9,28.8,1.9,20.8z M7.4,20.8c0-9.6,12.5-17.4,27.9-17.4c15.4,0,27.9,7.8,27.9,17.4S50.8,38.1,35.3,38.1
			C19.9,38.1,7.4,30.4,7.4,20.8z M47.7,38.4c11.2-2.9,19.1-9.7,19.1-17.7c0-7.9-7.9-14.7-19.1-17.7c12.3,2.8,21,9.7,21,17.7
			C68.7,28.8,60,35.6,47.7,38.4z"/>
		<path class="st2" d="M35.3,4.9c13.3,0,24.1,7.1,24.1,15.9c0,8.8-10.8,15.9-24.1,15.9c-13.3,0-24.1-7.1-24.1-15.9
			C11.1,12,21.9,4.9,35.3,4.9L35.3,4.9z M35.3,3.9C20.2,3.9,8,11.4,8,20.8c0,9.3,12.2,16.9,27.3,16.9c15.1,0,27.3-7.6,27.3-16.9
			C62.5,11.4,50.3,3.9,35.3,3.9z"/>
		<path class="st3" d="M36.8,35.9c2.1,0,3.9-0.5,5.6-1.6c0.6-0.5,1.2-1,1.6-1.6c0.4-0.6,0.7-1.2,0.9-1.7c0.2-0.7,0.4-1.3,0.5-1.8
			c0,0,0.1,0,0.1,0c0.5,0,0.9-0.2,1.2-0.5c0.3-0.3,0.5-0.7,0.5-1.2v-7.5l5.4,7.2c0.5,0.7,1,1.2,1.3,1.6c0.3,0.3,0.7,0.5,1,0.5
			c0.4,0,0.8-0.2,1.1-0.5c0.3-0.3,0.5-0.7,0.5-1.2V14.9c0-0.5-0.2-0.9-0.5-1.3c-0.3-0.3-0.7-0.5-1.2-0.5c-0.5,0-0.8,0.2-1.2,0.5
			c-0.3,0.3-0.5,0.8-0.5,1.2v7.5l-5.3-7.2L46.9,14c-1.3-1.5-3.1-0.9-3.1,0.9v7.8c-0.8-1.1-2-2.3-3.7-3.6l-1-0.8
			c-1.7-1.5-2.8-2.6-3.5-3.5c-0.7-0.9-1-1.9-1-2.9c0-1.4,0.5-2.5,1.3-3.3c0.8-0.7,2-1.2,3.3-1.2c1.6,0,3.3,0.5,4.1,1.6
			c0.2,0.2,0.3,0.4,0.3,0.5c0.1,0.2,0.2,0.5,0.3,0.9c0.1,0.4,0.1,0.7,0.1,1c0,0.3,0.1,0.5,0.3,0.5c0.2,0,0.3-0.3,0.3-0.9
			c0.1-2.5,0.1-3.9,0.1-4c0-0.2-0.1-0.3-0.4-0.3c-1.3,0-2.4-0.2-3.7-0.4C39.2,6,37.5,6.1,36,6.8c-1.1,0.5-2.1,1.2-2.8,2.4
			c-0.6,1-0.9,2.2-0.9,3.7c0,0.1,0,0.2,0,0.3c-0.8-0.1-1.6,0.3-1.9,1.2L28,22.3l-2.2-7.4c-0.8-2.5-3.7-2.2-4.4,0.2L19.3,22L17,14.3
			c-0.6-2.1-3.9-1.4-3.3,0.9l3.7,12.2c0.4,1.2,1.1,1.7,1.9,1.7c0.8,0,1.6-0.6,2-1.9l2.3-7.8l2.3,7.7c0.3,1.3,1.1,2,2,2.1
			c0.9,0.1,1.7-0.6,2.1-2l3.2-10.6l0,0.1c0.7,1.3,1.9,2.8,3.8,4.4l1.6,1.4c1.1,0.9,2,1.7,2.6,2.5L41.3,25c-1-1-2.5-1.7-4.1-1.7
			c-1.6,0-3,0.6-4.1,1.7c-1,1-1.7,2.5-1.7,4.1c0,0.3,0,0.5,0.1,0.8c-0.1,0.8-0.1,1.9-0.1,3.5c0,0.5,0,0.8,0.1,1
			c0,0.2,0.2,0.3,0.4,0.5C33.4,35.5,35.1,35.9,36.8,35.9L36.8,35.9z M38.9,23.8c0.3,0.1,0.6,0.2,0.8,0.3c-0.1,0.1-0.2,0.1-0.3,0.2
			c-0.1-0.1-0.3-0.3-0.5-0.4C39,23.9,38.9,23.8,38.9,23.8L38.9,23.8z M39,24.1c0.1,0.1,0.2,0.1,0.3,0.2c-0.1,0.1-0.3,0.1-0.4,0.1
			l0-0.1c0,0,0-0.1,0.1-0.1C39,24.3,39,24.2,39,24.1L39,24.1z M38.7,25.4c0-0.1-0.1-0.3-0.1-0.4c0-0.1-0.1-0.2-0.1-0.3
			c0,0,0.1,0,0.1,0v0c0.3-0.1,0.5-0.2,0.8-0.3c0.2,0.2,0.4,0.4,0.6,0.6c0.2,0.3,0.4,0.7,0.6,1.1c-0.3,0.1-0.6,0.2-1,0.3
			c-0.2,0-0.4,0.1-0.6,0.1c0-0.2-0.1-0.4-0.1-0.6l0,0l0.1-0.1L38.7,25.4L38.7,25.4L38.7,25.4z M38.7,25.9c0.1,0.2,0.1,0.5,0.2,0.8
			c-0.2,0-0.4,0.1-0.6,0.1c-0.1-0.1,0.1-0.1,0.1-0.1s0,0,0-0.1c0-0.1,0-0.1-0.1-0.2c0-0.1-0.2-0.1-0.3-0.1c0-0.1-0.1-0.1-0.2-0.2
			c-0.1-0.2,0.1-0.1,0.1-0.1s0-0.3-0.1-0.3c-0.1,0-0.2,0-0.2,0s-0.2-0.1-0.3-0.2c-0.1-0.1,0-0.2,0-0.3c0.1-0.1,0-0.2,0-0.2l0.2,0.3
			l0.1,0.2l0.3-0.2l0.3,0.1l0.1,0.3L38.7,25.9L38.7,25.9z M38.4,26.9c0.2,0,0.3,0,0.5-0.1c0.1,0.5,0.1,1.1,0.2,1.6l-0.1-0.1
			l-0.1,0.3c0,0,0,0.1,0,0.2c0,0.1,0.1,0.1,0.1,0.1h-1.6l0,0v-0.2l0,0V28l0.2-0.1l0.1,0h0.2l0.2-0.1l0.2-0.1l0.2-0.4l0.2-0.4
			C38.5,27,38.5,26.9,38.4,26.9L38.4,26.9z M37.1,28.1v0.7h0l-0.3-0.1l-0.3-0.5l0.1-0.2l0.1,0.1L37.1,28.1L37.1,28.1z M37.3,29.2
			h1.7l0,0.2l0.1,0.1c0,0.7-0.1,1.4-0.2,2c-0.1,0-0.2,0-0.3,0l0.1,0l0.2-0.1l-0.1-0.1l-0.1,0l0-0.1l0-0.1h-0.1l-0.1,0l0-0.1l0.2,0
			l0.1,0l0.1-0.1l-0.1-0.1h-0.2l0-0.2l-0.1,0l-0.1,0.1l-0.1,0.2H38L38,30.7l-0.1,0.2l-0.2,0l-0.2,0v0.1l0,0.1v0c-0.1,0-0.1,0-0.2,0
			v-1.4l0.1-0.1l0-0.1L37.3,29.2L37.3,29.2L37.3,29.2z M37.1,29.8v1.4c-0.2,0-0.3,0-0.5,0l-0.1,0l-0.1,0l-0.2,0l-0.1-0.2
			c0,0,0-0.1-0.1-0.1c-0.1,0-0.1-0.1-0.1-0.1l-0.2-0.1l0-0.1l-0.3,0l0,0.1v0.1l0.1,0l0.1,0l0.1,0l0.2,0.2c0,0,0,0.1,0.1,0.2l0.1,0
			c-0.2,0-0.4,0-0.6,0.1c-0.1-0.7-0.2-1.4-0.2-2.2h0.4l0.1,0l0,0.1v0.3v0.1l0.1,0.2l0,0.2l0.1,0.1l0.1,0.1l0,0.1l0,0.1v0.1l0.1,0.1
			l0,0.2l0.1,0.1l0.1,0.1c0,0,0.1,0,0.2-0.2c0-0.2-0.1,0-0.1-0.1c0-0.1-0.1-0.3-0.1-0.3l-0.2,0l0-0.2l-0.1-0.2L36.2,30L36,29.7
			c0,0,0-0.1,0-0.2c0-0.1,0-0.2,0-0.2l0.2,0l0,0.1h0.1l0.1,0l0.1,0.2l0.1,0.2L37.1,29.8L37.1,29.8L37.1,29.8z M35.6,29h-0.3
			c0-0.1,0-0.2,0-0.3l0,0l0.3,0l0,0.1L35.6,29L35.6,29z M35.2,28.6c0,0.1,0,0.3,0,0.4h-1.8l0-0.1l0.1-0.1l0.1,0l0.1,0
			c0,0,0.1,0,0.2-0.1c0.1-0.1,0-0.1,0-0.1l0-0.3l0.4-0.2l0.5,0.1l0.3,0.2L35.2,28.6L35.2,28.6L35.2,28.6z M33.2,29.2h1.9
			c0,0.8,0.1,1.5,0.2,2.2c-0.2,0-0.4,0.1-0.6,0.1c-0.3,0.1-0.7,0.2-1,0.3c-0.2-0.5-0.3-1-0.4-1.5l0.1,0c0,0,0-0.2,0-0.3
			c0,0-0.1-0.1-0.2-0.1c0-0.2,0-0.3,0-0.5l0,0l0.1-0.1L33.2,29.2L33.2,29.2L33.2,29.2z M33.1,29.5c0,0.1,0,0.1,0,0.2L33.1,29.5
			L33.1,29.5L33.1,29.5z M33.2,30.4c0.1,0.5,0.2,1,0.4,1.5c-0.3,0.1-0.7,0.3-1,0.5c-0.6-0.9-1-2-1-3.2h0.7c0,0.1,0,0.2,0,0.2
			s0.1,0.5,0.3,0.7c0.2,0.2,0.1,0.1,0.1,0c0.1,0,0.1,0,0.1,0l0.1-0.1L33,30l0,0.1l0,0.1L33.2,30.4L33.2,30.4L33.2,30.4z M32.2,29
			h-0.7c0-0.4,0.1-0.8,0.1-1.2c0,0,0.1,0.1,0.2,0.1c0.2,0.1,0.2,0,0.2,0l0.2,0l-0.1,0.5C32.2,28.5,32.2,28.9,32.2,29L32.2,29z
			 M39,32.1l0,0.1l0.1-0.1l0.2-0.1l0.1-0.1l0-0.2c0,0,0,0,0-0.1l0,0c0.1,0,0.2,0,0.3,0.1c0.3,0.1,0.7,0.2,1,0.3
			c-0.2,0.4-0.4,0.8-0.6,1.1c-0.2,0.2-0.4,0.5-0.6,0.6c-0.3-0.1-0.5-0.2-0.8-0.3l0,0c0,0-0.1,0-0.1,0c0-0.1,0.1-0.2,0.1-0.3
			c0.1-0.4,0.2-0.7,0.3-1.2L39,32.1L39,32.1z M39,31.6L39,31.6L39,31.6L39,31.6L39,31.6z M39,31.4L39,31.4c0.1-0.6,0.1-1.2,0.1-1.9
			l0.2,0.2v0.1l0.1,0.1l0.2-0.1c0,0,0,0,0-0.1c0-0.1-0.1-0.1-0.1-0.1s0,0-0.1,0c-0.1,0-0.1,0-0.1,0l0-0.2l-0.1-0.1h-0.1l0-0.1h1.8
			c0,1-0.2,1.9-0.5,2.7c-0.3-0.1-0.7-0.2-1-0.3c-0.1,0-0.3-0.1-0.4-0.1l0-0.1h0.4l0.2-0.2l-0.1,0l-0.2,0c0,0-0.1,0-0.2,0
			c-0.1,0-0.2,0-0.2,0S39.1,31.3,39,31.4L39,31.4z M38,31.8l0.2,0.1l0.2-0.3c0,0,0,0,0-0.1c0,0,0-0.1,0-0.1c0.1,0,0.3,0,0.4,0.1
			c-0.1,0.6-0.2,1.1-0.4,1.6c0,0.1-0.1,0.2-0.1,0.3c-0.4-0.1-0.7-0.1-1.1-0.1v-0.7h0l0.4,0l0.3-0.1l0-0.2c0,0-0.3,0-0.5,0
			c-0.2,0-0.2,0-0.2,0l-0.1,0v-0.9c0.1,0,0.2,0,0.2,0l0,0l0.1,0c0,0,0,0,0,0.1c0,0.1,0,0.1,0,0.1l0.1,0.1l0,0.1l0.1,0L38,31.8
			L38,31.8z M39.5,30.4L39.5,30.4l0-0.1l-0.1,0l-0.1,0l0-0.1l0.1,0l0.1-0.1l0-0.1l0.1,0l0-0.1l0.2,0V30v0.2l0,0.1v0.1l-0.2,0.1h-0.1
			l0,0.1l0,0L39.5,30.4L39.5,30.4z M39.2,29c0-0.8-0.1-1.5-0.2-2.2c0.2,0,0.4-0.1,0.6-0.1c0.3-0.1,0.7-0.2,1-0.3
			c0.3,0.8,0.5,1.7,0.5,2.7h-1.8l0,0H39.2L39.2,29L39.2,29z M37.1,32.6v0.7c-0.4,0-0.8,0-1.1,0.1c0-0.1-0.1-0.2-0.1-0.3
			c-0.2-0.5-0.3-1-0.4-1.6c0.2,0,0.5-0.1,0.7-0.1l0.1,0.3c0,0,0,0.2,0,0.2c0,0.1,0.1,0,0.1,0l0.2,0.1l0,0.2l0.1,0.1l0.1,0.1
			L37.1,32.6L37.1,32.6L37.1,32.6z M36.7,31.4c0.1,0,0.3,0,0.4,0v0.8l-0.2-0.1l0.1-0.2l-0.1-0.1l-0.1,0
			C36.8,31.7,36.7,31.5,36.7,31.4L36.7,31.4L36.7,31.4z M34.4,33.9c-0.4-0.3-0.9-0.6-1.2-0.9c-0.2-0.2-0.4-0.4-0.5-0.6
			c0.3-0.2,0.6-0.3,0.9-0.4c0.2,0.4,0.4,0.8,0.6,1.1c0.2,0.2,0.3,0.4,0.5,0.6C34.7,33.8,34.5,33.9,34.4,33.9L34.4,33.9z M39.9,24.2
			c0.4,0.3,0.9,0.6,1.2,0.9c0.2,0.2,0.4,0.4,0.5,0.6c-0.3,0.2-0.6,0.3-0.9,0.4c-0.2-0.4-0.4-0.8-0.6-1.1c-0.2-0.2-0.3-0.4-0.5-0.6
			C39.7,24.4,39.8,24.3,39.9,24.2L39.9,24.2z M41.7,25.9c0.6,0.9,1,2,1,3.2h-1.5c0-1-0.2-1.9-0.5-2.7C41.1,26.2,41.4,26,41.7,25.9
			L41.7,25.9z M42.8,29.2c0,1.2-0.4,2.3-1,3.2c-0.3-0.2-0.6-0.3-1-0.5c0.3-0.8,0.5-1.7,0.5-2.7H42.8L42.8,29.2z M41.6,32.4
			c-0.2,0.2-0.3,0.4-0.5,0.6c-0.4,0.4-0.8,0.7-1.2,0.9c-0.1-0.1-0.2-0.1-0.4-0.2c0.2-0.2,0.4-0.4,0.5-0.6c0.2-0.3,0.5-0.7,0.6-1.1
			C41,32.1,41.3,32.3,41.6,32.4L41.6,32.4z M39.8,34c-0.4,0.2-0.8,0.3-1.2,0.5c0.3-0.2,0.6-0.4,0.9-0.6C39.5,33.9,39.6,34,39.8,34
			L39.8,34z M35.8,34.5c-0.4-0.1-0.8-0.3-1.2-0.5c0.1-0.1,0.2-0.1,0.3-0.2C35.2,34.1,35.4,34.3,35.8,34.5L35.8,34.5z M34.9,33.7
			c-0.2-0.2-0.4-0.4-0.6-0.6c-0.2-0.3-0.4-0.7-0.6-1.1c0.3-0.1,0.6-0.2,1-0.3c0.2,0,0.4-0.1,0.6-0.1c0.1,0.6,0.2,1.1,0.4,1.6
			c0,0.1,0.1,0.2,0.1,0.3c0,0-0.1,0-0.1,0l0,0C35.4,33.5,35.2,33.6,34.9,33.7L34.9,33.7z M35.7,33.6L35.7,33.6c0,0,0.1,0,0.1,0
			c0.2,0.5,0.5,0.9,0.7,1.1c-0.6-0.1-1.1-0.4-1.6-0.8C35.3,33.7,35.5,33.6,35.7,33.6L35.7,33.6z M37.1,33.4v1.3l-0.1,0
			c-0.4-0.1-0.7-0.5-1-1.1C36.4,33.5,36.7,33.4,37.1,33.4L37.1,33.4z M38.6,33.6c0.2,0.1,0.5,0.1,0.7,0.2c-0.5,0.4-1,0.7-1.6,0.8
			c0.3-0.2,0.5-0.6,0.7-1.1C38.5,33.6,38.5,33.6,38.6,33.6L38.6,33.6L38.6,33.6z M38.3,33.5c-0.3,0.6-0.6,1-1,1.1l-0.1,0v-1.3
			C37.6,33.4,37.9,33.5,38.3,33.5z"/>
	</g>
	<path class="st3" d="M2,34.7l-0.6-0.6l1.4-2.2l0,0l-2.3,1.3l-0.6-0.6l2.1-3.2L2.7,30l-1.5,2.1l0,0l2.3-1.3L4,31.4l-1.4,2.2l0,0
		l2.3-1.3l0.5,0.6L2,34.7L2,34.7z M6.1,36.6c0.2-0.2,0.3-0.5,0.2-0.7c0-0.1-0.1-0.2-0.1-0.4c-0.1-0.1-0.2-0.3-0.3-0.4
		c-0.1-0.2-0.2-0.3-0.3-0.4c-0.1-0.1-0.1-0.2-0.2-0.3c-0.1-0.2-0.1-0.3,0-0.4c0.1-0.1,0.2-0.1,0.3-0.1c0.1,0,0.2,0.1,0.4,0.2
		c0.4,0.3,0.4,0.6,0.2,0.9L7,35.4c0.2-0.3,0.3-0.6,0.2-1c-0.1-0.3-0.3-0.6-0.6-0.8c-0.3-0.2-0.6-0.3-0.9-0.4c-0.3,0-0.6,0.1-0.8,0.4
		C4.5,34,4.5,34.5,5,35.1c0.1,0.2,0.2,0.3,0.3,0.4c0.1,0.1,0.1,0.2,0.1,0.2c0.1,0.2,0.1,0.4,0,0.5c-0.2,0.2-0.5,0.2-0.8-0.1
		c-0.2-0.1-0.3-0.3-0.3-0.5c-0.1-0.2,0-0.4,0.1-0.6l-0.6-0.5c-0.3,0.3-0.4,0.7-0.2,1.1c0.1,0.3,0.3,0.6,0.6,0.9
		c0.4,0.3,0.7,0.4,1.1,0.4C5.6,37.1,5.9,36.9,6.1,36.6L6.1,36.6z M8,39.2l0-2.9l0,0l-1.3,2.1L6.1,38L8,34.8l0.7,0.4l0,2.9l0,0L10,36
		l0.6,0.4l-1.9,3.2L8,39.2L8,39.2z M14,38.8l-1.2,2.8l-0.7-0.3l1.2-2.8l-1-0.4l0.3-0.6l2.8,1.2L15,39.2L14,38.8L14,38.8z M14.5,42.2
		l2.6,1l0.2-0.6l-1.8-0.7l0.3-0.9l1.7,0.6l0.2-0.6L16,40.4l0.3-0.7l1.8,0.7l0.2-0.6l-2.6-1L14.5,42.2L14.5,42.2z M21.4,42.9
		c-0.1,0.2-0.2,0.4-0.3,0.6c-0.1,0.2-0.3,0.3-0.4,0.4c-0.2,0.1-0.4,0.1-0.6,0.2c-0.2,0-0.4,0-0.6-0.1c-0.5-0.1-0.9-0.4-1.1-0.9
		c-0.2-0.4-0.3-0.9-0.1-1.4c0.1-0.5,0.4-1,0.8-1.2c0.4-0.3,0.9-0.3,1.4-0.2c0.2,0.1,0.4,0.1,0.5,0.2c0.2,0.1,0.3,0.2,0.4,0.4
		c0.1,0.2,0.2,0.3,0.2,0.5c0,0.2,0,0.4,0,0.6l-0.7-0.2c0-0.1,0-0.2,0-0.3c0-0.1-0.1-0.2-0.1-0.2c-0.1-0.1-0.1-0.1-0.2-0.2
		c-0.1-0.1-0.2-0.1-0.3-0.1c-0.2,0-0.3-0.1-0.5,0c-0.1,0-0.3,0.1-0.4,0.2c-0.1,0.1-0.2,0.2-0.3,0.3c-0.1,0.1-0.1,0.3-0.2,0.5
		c0,0.2-0.1,0.3-0.1,0.5c0,0.1,0,0.3,0.1,0.4c0.1,0.3,0.3,0.5,0.6,0.6c0.5,0.1,0.8-0.1,1-0.6L21.4,42.9L21.4,42.9z M24.1,44.9
		l0.3-1.6l-1.5-0.3l-0.3,1.6l-0.8-0.1l0.6-3.6l0.8,0.1l-0.2,1.4l1.5,0.3l0.2-1.4l0.8,0.1L24.9,45L24.1,44.9L24.1,44.9z M28.2,45.5
		l-1.2-2.6l0,0l-0.3,2.5l-0.7-0.1l0.4-3.7l0.8,0.1l1.2,2.6l0,0l0.3-2.5l0.8,0.1L29,45.6L28.2,45.5L28.2,45.5z M33.5,44.1
		c0,0.5-0.2,1-0.6,1.3c-0.2,0.2-0.4,0.3-0.6,0.4c-0.2,0.1-0.5,0.1-0.8,0.1c-0.5,0-1-0.3-1.3-0.7c-0.3-0.4-0.4-0.8-0.4-1.4
		c0-0.6,0.2-1,0.6-1.4c0.3-0.3,0.8-0.5,1.3-0.5c0.3,0,0.5,0.1,0.7,0.2c0.2,0.1,0.4,0.3,0.5,0.5C33.4,43,33.5,43.5,33.5,44.1
		L33.5,44.1z M32.7,44c0-0.3,0-0.6-0.2-0.9c-0.1-0.1-0.2-0.2-0.3-0.3c-0.1-0.1-0.3-0.1-0.4-0.1c-0.2,0-0.3,0-0.4,0.1
		c-0.1,0.1-0.2,0.1-0.3,0.3c-0.1,0.1-0.1,0.2-0.2,0.4c0,0.1-0.1,0.3-0.1,0.5c0,0.2,0,0.3,0,0.5c0,0.1,0.1,0.3,0.1,0.4
		c0.2,0.3,0.4,0.4,0.7,0.4c0.3,0,0.6-0.1,0.8-0.3C32.6,44.6,32.7,44.4,32.7,44L32.7,44z M34.2,45.9l0-3.7l0.8,0l0,3l1.8,0l0,0.7
		L34.2,45.9L34.2,45.9z M40.9,43.9c0,0.5-0.1,1-0.4,1.4c-0.2,0.2-0.3,0.3-0.6,0.5c-0.2,0.1-0.5,0.2-0.7,0.2c-0.5,0-1-0.1-1.3-0.5
		c-0.3-0.3-0.5-0.8-0.6-1.3c0-0.6,0.1-1,0.4-1.4C38,42.2,38.4,42,39,42c0.3,0,0.5,0,0.8,0.1c0.2,0.1,0.4,0.2,0.6,0.4
		C40.7,42.8,40.8,43.3,40.9,43.9L40.9,43.9z M40.1,43.9c0-0.3-0.1-0.6-0.3-0.9c-0.1-0.1-0.2-0.2-0.3-0.3c-0.1-0.1-0.3-0.1-0.4-0.1
		c-0.2,0-0.3,0-0.4,0.1c-0.1,0.1-0.2,0.2-0.3,0.3c-0.1,0.1-0.1,0.3-0.1,0.4c0,0.1,0,0.3,0,0.5c0,0.2,0,0.3,0.1,0.5
		c0,0.1,0.1,0.3,0.2,0.4c0.2,0.2,0.5,0.4,0.8,0.3c0.3,0,0.6-0.2,0.7-0.4C40,44.5,40.1,44.2,40.1,43.9L40.1,43.9z M44.5,45.3
		l-0.1-0.4c-0.2,0.4-0.5,0.6-0.9,0.6c-0.6,0.1-1-0.1-1.4-0.4c-0.3-0.3-0.5-0.7-0.6-1.3c-0.1-0.6,0-1,0.3-1.5
		c0.3-0.4,0.7-0.6,1.2-0.7c0.4-0.1,0.7,0,1.1,0.2c0.3,0.2,0.5,0.5,0.6,0.9l-0.8,0.1c-0.1-0.4-0.4-0.6-0.9-0.5
		c-0.2,0-0.3,0.1-0.4,0.2c-0.1,0.1-0.2,0.2-0.3,0.3c-0.1,0.1-0.1,0.3-0.1,0.4c0,0.2,0,0.3,0,0.5c0,0.2,0.1,0.3,0.1,0.5
		c0.1,0.1,0.1,0.3,0.2,0.4c0.2,0.2,0.5,0.3,0.8,0.3c0.5-0.1,0.8-0.4,0.8-0.9L43.3,44l-0.1-0.6l1.5-0.2l0.3,2L44.5,45.3L44.5,45.3z
		 M47.4,43.3l0.9-2.5L47.4,41l-0.5,1.7l-1.2-1.3l-0.9,0.2l1.8,2l0.3,1.4l0.8-0.2L47.4,43.3L47.4,43.3z M54.2,41.6
		c0,0.2,0.1,0.4,0,0.6c0,0.2-0.1,0.4-0.2,0.5c-0.1,0.2-0.2,0.3-0.4,0.4c-0.2,0.1-0.3,0.2-0.6,0.3c-0.5,0.2-1,0.1-1.4-0.2
		c-0.4-0.2-0.7-0.6-0.9-1.2c-0.2-0.5-0.1-1,0.1-1.5c0.2-0.4,0.6-0.7,1.1-0.9c0.2-0.1,0.4-0.1,0.6-0.1c0.2,0,0.4,0,0.5,0.1
		c0.2,0.1,0.3,0.2,0.5,0.3c0.1,0.1,0.2,0.3,0.3,0.5l-0.7,0.2c0-0.1-0.1-0.2-0.2-0.2c-0.1-0.1-0.1-0.1-0.2-0.1
		c-0.1,0-0.2-0.1-0.3-0.1c-0.1,0-0.2,0-0.3,0c-0.2,0-0.3,0.1-0.4,0.2c-0.1,0.1-0.2,0.2-0.2,0.4c0,0.1-0.1,0.3,0,0.4
		c0,0.2,0,0.3,0.1,0.5c0.1,0.2,0.1,0.3,0.2,0.4c0.1,0.1,0.2,0.2,0.3,0.3c0.2,0.2,0.5,0.2,0.8,0.1c0.5-0.1,0.7-0.5,0.6-1L54.2,41.6
		L54.2,41.6z M57.9,39.7c0.2,0.5,0.2,1,0.1,1.4c-0.1,0.2-0.2,0.4-0.4,0.6c-0.2,0.2-0.4,0.3-0.6,0.4c-0.5,0.2-1,0.2-1.4,0
		c-0.4-0.2-0.7-0.6-1-1.1c-0.2-0.5-0.2-1-0.1-1.5c0.2-0.5,0.5-0.8,1-1c0.3-0.1,0.5-0.2,0.7-0.1c0.2,0,0.5,0.1,0.7,0.2
		C57.4,38.8,57.7,39.2,57.9,39.7L57.9,39.7z M57.1,40c-0.1-0.3-0.3-0.6-0.5-0.7c-0.1-0.1-0.3-0.1-0.4-0.2c-0.1,0-0.3,0-0.4,0.1
		c-0.2,0.1-0.3,0.1-0.4,0.3c-0.1,0.1-0.2,0.2-0.2,0.4c0,0.1,0,0.3,0,0.4c0,0.1,0.1,0.3,0.1,0.5c0.1,0.2,0.1,0.3,0.2,0.4
		c0.1,0.1,0.2,0.2,0.3,0.3c0.3,0.2,0.5,0.2,0.9,0.1c0.3-0.1,0.5-0.3,0.6-0.6C57.3,40.6,57.3,40.3,57.1,40L57.1,40z M59.3,41
		l-0.3-0.7l0.7-0.3l0.3,0.7L59.3,41L59.3,41z M61.5,39.9c0.1,0.1,0.1,0.2,0.1,0.3c0,0.1,0,0.2,0,0.3c0,0.1-0.1,0.2-0.1,0.3
		c-0.1,0.1-0.1,0.2-0.2,0.2L61,40.7c0,0,0.1-0.1,0.1-0.1c0,0,0-0.1,0.1-0.2c0-0.1,0-0.1,0-0.2c0-0.1,0-0.1-0.1-0.2l-0.3,0.2
		l-0.4-0.7l0.7-0.4L61.5,39.9L61.5,39.9z M62.4,39.5l2.2-1.4l-0.4-0.6l-1.5,1L61,36l-0.7,0.4L62.4,39.5L62.4,39.5z M64.7,34.4
		l1.8,2.4l-0.6,0.5L64,34.8l-0.9,0.7l-0.4-0.5l2.4-1.8l0.4,0.5L64.7,34.4L64.7,34.4z M69,32c-0.4-0.4-0.8-0.7-1.3-0.7
		c-0.4,0-0.8,0.1-1.2,0.5l-1.2,1.1l2.5,2.7l1.2-1.1c0.4-0.4,0.6-0.8,0.6-1.2C69.6,32.9,69.3,32.5,69,32L69,32z M68.4,32.6
		c-0.6-0.6-1.1-0.7-1.6-0.2l-0.4,0.4l1.6,1.7l0.5-0.5c0.2-0.2,0.3-0.4,0.3-0.6C68.8,33.2,68.7,32.9,68.4,32.6L68.4,32.6z M70.7,32.8
		l-0.6-0.5l0.5-0.6l0.6,0.5L70.7,32.8z"/>
</g>
</svg>
