<?xml version="1.0" encoding="utf-8"?>
<!-- Generator: Adobe Illustrator 22.1.0, SVG Export Plug-In . SVG Version: 6.00 Build 0)  -->
<svg version="1.1" id="Layer_1" xmlns="http://www.w3.org/2000/svg" xmlns:xlink="http://www.w3.org/1999/xlink" x="0px" y="0px"
	 viewBox="0 0 39 38" style="enable-background:new 0 0 39 38;" xml:space="preserve">
<style type="text/css">
	.st0{fill:#FFFFFF;}
</style>
<g>
	<path class="st0" d="M9.2,26.4c2.1,1.3,4.5,2.1,7.1,2.1c8.6,0,13.5-7.3,13.2-13.8c0.9-0.7,1.7-1.5,2.3-2.4
		c-0.8,0.4-1.7,0.6-2.7,0.7c1-0.6,1.7-1.5,2-2.6c-0.9,0.5-1.9,0.9-3,1.1c-0.8-0.9-2.1-1.5-3.4-1.5c-3,0-5.2,2.8-4.5,5.7
		c-3.9-0.2-7.3-2-9.6-4.9c-1.2,2.1-0.6,4.8,1.4,6.2c-0.8,0-1.5-0.2-2.1-0.6c-0.1,2.2,1.5,4.2,3.7,4.6c-0.7,0.2-1.4,0.2-2.1,0.1
		c0.6,1.8,2.3,3.2,4.3,3.2C14.2,26,11.7,26.7,9.2,26.4z"/>
	<g>
		<path class="st0" d="M19.7,37c-10,0-18.2-8.2-18.2-18.2S9.7,0.6,19.7,0.6s18.2,8.2,18.2,18.2S29.8,37,19.7,37z M19.7,2
			C10.5,2,2.9,9.5,2.9,18.8c0,9.3,7.5,16.8,16.8,16.8S36.5,28,36.5,18.8C36.5,9.5,29,2,19.7,2z"/>
	</g>
</g>
</svg>
