<?xml version="1.0" encoding="utf-8"?>
<!-- Generator: Adobe Illustrator 22.1.0, SVG Export Plug-In . SVG Version: 6.00 Build 0)  -->
<svg version="1.1" id="Layer_1" xmlns="http://www.w3.org/2000/svg" xmlns:xlink="http://www.w3.org/1999/xlink" x="0px" y="0px"
	 viewBox="0 0 179 77" style="enable-background:new 0 0 179 77;" xml:space="preserve">
<style type="text/css">
	.st0{fill:#7CB600;}
</style>
<g>
	<g>
		<path class="st0" d="M8.9,32.7c0.2-0.4,0.4-0.7,0.7-1c0.2-0.3,0.5-0.6,0.8-0.9c0.3-0.3,0.7-0.5,1.1-0.6c0.4-0.2,0.9-0.2,1.4-0.2
			c-0.5-0.3-1-0.5-1.3-0.6c-0.4-0.1-0.8-0.2-1.2-0.3c-0.4,0-1,0-1.6,0c-0.6,0.1-1.5,0.2-2.5,0.3c0.8-1.6,1.7-3,2.5-4.3
			c0.8-1.2,1.7-2.3,2.6-3.2c0.9-0.9,1.8-1.6,2.8-2c1-0.5,2.1-0.8,3.2-0.8c0.9-0.1,1.7,0,2.4,0c0.7,0.1,1.3,0.2,2,0.5
			c0.6,0.2,1.2,0.5,1.8,0.8c0.6,0.3,1.3,0.7,2.1,1.1c0.7,0.4,1.3,0.8,1.8,1.1c0.5,0.3,1.1,0.6,1.7,0.7c0.6,0.2,1.2,0.2,1.9,0.2
			c0.7,0,1.4-0.2,2.4-0.5c-0.1,0.2-0.2,0.5-0.3,1c-0.1,0.4-0.3,1.1-0.5,1.8c-0.2,0.8-0.5,1.8-0.8,3c-0.3,1.2-0.7,2.7-1.2,4.4
			c-0.5,1.8-1,3.8-1.6,6.2c-0.6,2.4-1.4,5.1-2.2,8.2c-0.6,1.3-1.2,2.4-2,3.2c-0.7,0.8-1.6,1.5-2.5,1.9c-0.9,0.4-1.9,0.7-3,0.8
			c-1.1,0.1-2.3,0-3.6-0.2c0.4-0.2,0.8-0.4,1.3-0.7c0.4-0.3,0.8-0.6,1.2-1c0.4-0.4,0.7-0.8,0.9-1.2c0.3-0.4,0.4-0.9,0.5-1.4
			l5.9-21.5c-0.5-0.1-1-0.3-1.5-0.5c-0.5-0.3-1-0.6-1.6-0.9c-0.6-0.4-1.2-0.7-1.8-1.2c-1.5-0.8-3.1-1-4.8-0.7
			c-1.7,0.3-3.4,1.1-5.1,2.4c1.3-0.2,2.4-0.2,3.2,0c0.9,0.2,1.6,0.5,2.3,0.9c0.6,0.4,1.2,0.9,1.6,1.5c0.5,0.6,0.9,1.2,1.4,1.8
			c-0.2,0-0.4,0-0.8,0.1c-0.4,0-0.7,0.1-1.1,0.2c-0.4,0.1-0.7,0.2-0.9,0.4c-0.3,0.2-0.4,0.4-0.4,0.7l-1.5,5.3l-1,3.9
			c-0.3,1.2-0.6,2.4-0.9,3.5c-0.3,1.1-0.6,2.2-0.9,3.1c-0.3,0.9-0.7,1.8-1.2,2.5c-0.4,0.7-1,1.3-1.6,1.8c-0.6,0.4-1.4,0.7-2.3,0.8
			c-0.9,0.1-1.9,0-3.1-0.3c-1-0.3-1.7-0.7-2.1-1.3C1.2,50.7,1,50,1,49.1c0-0.8,0.1-1.7,0.3-2.6c0.2-0.9,0.4-1.8,0.7-2.6
			c0.2-0.8,0.3-1.6,0.4-2.2c0-0.6-0.1-1.1-0.5-1.3c0.7-0.2,1.4-0.3,2.1-0.1c0.7,0.1,1.3,0.3,1.8,0.6c0.5,0.3,1,0.6,1.4,0.9
			c0.4,0.3,0.7,0.6,0.9,0.8c0.5,0.5,0.8,1,0.9,1.4c0.2,0.4,0.2,0.9,0.2,1.2c0,0.4-0.1,0.8-0.3,1.1c-0.2,0.4-0.4,0.7-0.7,1
			c-0.2,0.3-0.4,0.4-0.9,0.6c-0.4,0.1-0.9,0.2-1.3,0.1c-0.4,0-0.8-0.2-1.1-0.5c-0.3-0.3-0.4-0.6-0.3-1.2c-0.4,0.8-0.4,1.4-0.2,1.9
			c0.2,0.5,0.6,0.9,1.1,1c0.5,0.2,1.1,0.2,1.7,0c0.6-0.2,1.2-0.6,1.7-1.2c0.5-0.6,0.8-1.3,1-1.9c0.2-0.6,0.2-1.2,0.2-1.7
			c0-0.6-0.2-1.1-0.5-1.7c-0.3-0.5-0.6-1-1.1-1.5v0c-0.1-0.1-0.3-0.2-0.4-0.4c-0.2-0.2-0.3-0.3-0.5-0.5c-0.1-0.2-0.3-0.4-0.4-0.6
			c-0.1-0.2-0.2-0.4-0.2-0.5L8.9,32.7z"/>
		<path class="st0" d="M14.9,56.3c0.8,0.1,1.5,0.4,2,0.8c0.5,0.4,0.8,0.9,0.9,1.5c0.1,0.6,0.1,1.2,0,1.8c-0.2,0.6-0.4,1.3-0.8,1.8
			c-0.5,0.6-1,1.1-1.4,1.5c-0.4,0.4-0.8,0.7-1.2,0.9c-0.4,0.3-0.7,0.5-1.1,0.7c-0.4,0.2-0.7,0.6-1.1,1c-0.2,0.4-0.2,0.8-0.1,1.1
			c0.1,0.4,0.2,0.7,0.5,1c0.3,0.3,0.6,0.5,1,0.6c0.4,0.1,0.7,0.1,1.1,0c0.4-0.1,0.6-0.4,0.7-0.7c0.4-1.4,0.8-2.6,1.1-3.6
			c0.3-1,0.6-1.8,0.8-2.5c0.2-0.7,0.4-1.2,0.5-1.7c0.1-0.4,0.2-0.8,0.3-1.1c0.1-0.3,0.2-0.5,0.3-0.7c0.1-0.2,0.2-0.4,0.3-0.6
			c0.6-0.8,1.3-1.4,2.2-1.7c0.9-0.3,2-0.3,3.2-0.1c-0.2,0.1-0.5,0.2-0.7,0.4c-0.2,0.2-0.5,0.3-0.7,0.5c-0.2,0.2-0.4,0.4-0.5,0.6
			c-0.1,0.2-0.2,0.5-0.2,0.7l-2,6.7l-0.2,0.8c0,0.3,0,0.5,0.1,0.7c0.1,0.2,0.3,0.2,0.6,0.1c0,0,0,0-0.1,0.1
			c-0.1,0.1-0.3,0.3-0.7,0.5c-0.4,0.3-0.9,0.6-1.6,1.1c-0.7,0.5-1.6,1.1-2.8,1.9c-0.8,0.6-1.7,1.1-2.5,1.2c-0.8,0.2-1.6,0.2-2.3,0
			c-0.7-0.2-1.2-0.6-1.7-1.1c-0.4-0.5-0.7-1.1-0.8-1.9c-0.1-0.7,0.1-1.5,0.5-2.4c0.4-0.9,1.2-1.7,2.2-2.6l0.1-0.1h0c0,0,0,0,0.1,0
			l0,0l0,0c0.5,0,1.1,0,1.7-0.1c0.6-0.1,1.2-0.3,1.8-0.5c0.5-0.2,0.9-0.6,1.2-1c0.3-0.4,0.3-1,0.1-1.7c-0.2-0.5-0.4-0.8-0.8-1
			c-0.4-0.2-0.7-0.2-1.1-0.2c-0.4,0.1-0.7,0.2-1,0.5c-0.3,0.3-0.3,0.6-0.2,1c0.1-0.4,0.3-0.6,0.6-0.8c0.3-0.1,0.6-0.2,0.9-0.1
			c0.3,0,0.6,0.1,0.8,0.3c0.2,0.2,0.4,0.4,0.4,0.6c0.1,0.5,0,0.9-0.2,1.3c-0.2,0.3-0.8,0.7-1.6,1c-0.3,0.1-0.5,0.2-0.9,0.3
			c-0.3,0.1-0.7,0.1-1,0.1c-0.4,0-0.7-0.1-1.1-0.2c-0.4-0.1-0.7-0.4-1-0.7c0.3-0.1,0.6-0.3,0.8-0.7c0.2-0.4,0.3-0.8,0.5-1.2
			c0.1-0.5,0.3-1,0.4-1.5c0.1-0.5,0.4-1,0.6-1.4c0.3-0.4,0.7-0.7,1.1-1C13.5,56.3,14.1,56.2,14.9,56.3z"/>
		<path class="st0" d="M43.4,42.1c0.5,0.6,0.9,1.1,1.3,1.6c0.4,0.4,0.6,0.8,0.9,1c0.2,0.3,0.4,0.5,0.6,0.7c0.1,0.2,0.3,0.3,0.4,0.4
			c0.3,0.4,0.7,0.7,1,0.9c0.3,0.2,0.6,0.2,0.9,0.2c0.3-0.1,0.6-0.3,0.8-0.7c0.3-0.4,0.5-1,0.6-1.8l1.5-5.5l3.6-14
			c0.6-1.3,1.2-2.4,2-3.2c0.7-0.8,1.6-1.5,2.5-1.9c0.9-0.4,1.9-0.7,3-0.8c1.1-0.1,2.3,0,3.6,0.2c-0.4,0.2-0.8,0.4-1.3,0.7
			c-0.4,0.3-0.8,0.6-1.2,1c-0.4,0.4-0.7,0.8-0.9,1.2c-0.3,0.4-0.4,0.9-0.5,1.4l-5.8,22.2c-0.2,1.8-0.7,3.4-1.3,4.5
			c-0.7,1.2-1.4,2-2.4,2.4c-0.9,0.4-1.9,0.5-3,0.2c-1.1-0.3-2.2-1-3.3-2.1c-0.5-0.8-1.1-1.7-1.7-2.5c-0.6-0.8-1.2-1.5-1.9-2.2
			c-0.7-0.7-1.5-1.2-2.3-1.7c-0.9-0.5-1.8-0.7-2.9-0.9c-0.5,0.1-1,0.3-1.4,0.5c-0.4,0.2-0.8,0.5-1.1,0.8c-0.3,0.4-0.5,0.8-0.5,1.3
			c-0.1,0.5-0.1,1.1,0.1,1.8c0.3,0.7,0.7,1.2,1.2,1.4c0.5,0.3,1.2,0.2,2-0.3c-0.5,0.1-0.9,0-1.3-0.3c-0.4-0.3-0.6-0.7-0.8-1.1
			c-0.2-0.4-0.3-0.9-0.2-1.3c0-0.4,0.1-0.7,0.4-0.9c0.3-0.3,0.6-0.5,0.8-0.7c0.3-0.2,0.6-0.3,0.9-0.4c0.3,0,0.7,0,1.1,0.1
			c0.4,0.1,0.9,0.4,1.5,0.7c0.3,0.2,0.6,0.4,1,0.7c0.4,0.3,0.8,0.7,1.2,1.2c0.4,0.4,0.8,0.9,1.2,1.5c0.4,0.5,0.7,1.1,0.9,1.6
			c0.3,0.5,0.4,1.1,0.5,1.6c0.1,0.5,0.1,1-0.1,1.5c-0.1-0.4-0.4-0.6-0.8-0.8c-0.4-0.1-0.9-0.2-1.5-0.1c-0.6,0-1.2,0.1-2,0.2
			c-0.7,0.1-1.5,0.2-2.2,0.3c-0.8,0.1-1.5,0.1-2.3,0c-0.7-0.1-1.5-0.3-2.1-0.6c-0.7-0.3-1.2-0.8-1.8-1.5c-0.5-0.7-0.9-1.6-1.2-2.7
			c0-0.7,0.1-1.3,0.1-1.8c0-0.5,0.1-0.9,0.3-1.3c0.1-0.4,0.3-0.8,0.5-1.2c0.2-0.4,0.5-0.9,0.9-1.5c0.5-0.4,0.9-0.7,1.2-0.9
			c0.3-0.2,0.7-0.4,0.9-0.6c0.3-0.1,0.6-0.3,0.8-0.3c0.3-0.1,0.5-0.1,0.8-0.1c0.2-0.7,0.4-1.7,0.7-3.1c0.3-1.3,0.8-3.1,1.4-5.4
			c0.1-0.1,0.3-0.3,0.5-0.4c0.2-0.1,0.4-0.3,0.6-0.4c0.2-0.1,0.4-0.3,0.7-0.4c0.2-0.1,0.4-0.2,0.6-0.2l0,0c0.6-0.3,1.2-0.7,1.8-1.1
			c0.5-0.4,1-0.9,1.3-1.4c0.3-0.4,0.5-1,0.7-1.6c0.2-0.6,0.2-1.3,0-2c-0.1-0.5-0.3-0.9-0.6-1.2c-0.3-0.3-0.6-0.5-0.9-0.7
			c-0.4-0.1-0.7-0.2-1.1-0.2c-0.4,0-0.7,0.1-1.1,0.3c-0.3,0.2-0.6,0.5-0.8,0.8c-0.2,0.4-0.3,0.8-0.4,1.3c0.2-0.5,0.4-0.9,0.8-1.1
			c0.4-0.2,0.8-0.2,1.2-0.2c0.4,0.1,0.8,0.2,1.1,0.5c0.3,0.2,0.5,0.5,0.5,0.8c0.1,0.4,0.1,0.7,0.1,1.1c0,0.3-0.1,0.7-0.3,1
			c-0.2,0.4-0.5,0.7-0.8,1.1c-0.4,0.4-0.9,0.8-1.5,1.2c-0.4,0.3-0.9,0.5-1.5,0.7c-0.6,0.2-1.2,0.3-1.9,0.2c-0.7,0-1.3-0.1-1.9-0.4
			c-0.6-0.2-1.2-0.6-1.6-1.1c0.5-0.1,0.9-0.5,1.2-1c0.3-0.6,0.6-1.2,0.9-1.9c0.3-0.7,0.6-1.5,0.9-2.4c0.3-0.8,0.7-1.6,1.2-2.3
			c0.5-0.7,1.1-1.3,1.8-1.7c0.7-0.4,1.6-0.6,2.7-0.6c1.3,0,2.3,0.2,3,0.6c0.7,0.3,1.2,0.8,1.5,1.4c0.3,0.6,0.5,1.3,0.4,2
			c0,0.8-0.1,1.7-0.4,2.6c-0.2,1-0.5,2-0.9,3.1c-0.4,1.1-0.7,2.3-1,3.5L43.4,42.1z"/>
		<path class="st0" d="M39.3,10.3c0-0.1,0-0.2,0.1-0.4c0-0.2,0.1-0.3,0.2-0.5c0.9-2.5,2-4.3,3.3-5.7c1.4-1.3,2.8-2.2,4.4-2.6
			c1.6-0.4,3.2-0.3,4.9,0.2c1.7,0.5,3.2,1.4,4.7,2.7c0.7,0.6,1.4,1.2,2.1,2c0.7,0.7,1.4,1.6,2.1,2.5c0.7,0.9,1.3,1.9,1.9,3
			c0.6,1.1,1.1,2.2,1.6,3.5c0.1,0.2,0,0.3-0.1,0.3c-0.1,0.1-0.2,0.1-0.3,0.1c-0.9-0.8-2.1-1.6-3.4-2.3c-1.3-0.7-2.7-1.4-4.2-2
			c-1.5-0.6-3.1-1-4.7-1.4c-1.6-0.4-3.2-0.6-4.7-0.7c-1.5-0.1-3,0-4.4,0.2C41.6,9.4,40.4,9.8,39.3,10.3z M55.5,8.3
			c0.6,0.3,1.2,0.6,1.9,0.9c0.6,0.3,1.3,0.6,2,1c-0.5-0.6-1-1.3-1.6-1.9c-0.6-0.6-1.3-1.2-2-1.7C55,6,54.3,5.6,53.5,5.3
			C52.8,5,52,4.8,51.2,4.7c-0.8,0-1.6,0.1-2.4,0.4C48,5.5,47.3,6,46.5,6.8c0.2,0,0.3-0.1,0.5-0.1c0.2,0,0.3,0,0.5,0
			c0.6-0.1,1.3-0.1,2,0c0.7,0.1,1.4,0.2,2.2,0.3c0.7,0.1,1.4,0.3,2.1,0.5C54.4,7.8,55,8,55.5,8.3z"/>
		<path class="st0" d="M66.9,42.6c-0.2,0.4-0.3,0.8-0.4,1.4c-0.1,0.5-0.1,1-0.1,1.6c0,0.5,0.1,1.1,0.2,1.6c0.1,0.5,0.3,0.9,0.6,1.3
			c0.5,0.5,1,0.7,1.6,0.8c0.6,0.1,1.2,0,1.6-0.2c0.5-0.2,0.9-0.6,1.2-1c0.3-0.5,0.3-1,0.1-1.6c-0.4,0.7-0.8,1.2-1.3,1.4
			C70,48,69.5,48,69.1,47.9c-0.4-0.1-0.8-0.4-1.1-0.8c-0.3-0.4-0.5-0.9-0.5-1.4c-0.1-0.6,0-1.2,0.3-1.8c0.3-0.7,0.7-1.3,1.4-2
			c0.2-0.2,0.5-0.4,1-0.6c0.5-0.2,1-0.4,1.6-0.6c0.6-0.1,1.2-0.2,1.9-0.2c0.7,0,1.4,0.2,2,0.6c-0.4,0.2-0.7,0.5-0.8,1
			c-0.1,0.5-0.2,1.1-0.2,1.8c0,0.7,0,1.5,0,2.3c0,0.8-0.1,1.6-0.2,2.4c-0.2,0.8-0.5,1.5-0.9,2.2c-0.4,0.7-1.1,1.2-2.1,1.6
			c-1.1,0.5-2.2,0.7-3.2,0.7c-1,0-1.9-0.3-2.7-0.7c-0.8-0.4-1.5-1.1-2-1.8c-0.5-0.8-0.9-1.6-1-2.6c-0.3-0.8-0.4-1.7-0.5-2.7
			c-0.1-1-0.1-2,0-3c0.1-1,0.3-2,0.6-3c0.3-1,0.7-1.9,1.3-2.7c0.4-0.6,0.8-1.1,1.2-1.6c0.6-1,1.4-1.8,2.3-2.4c0.9-0.6,1.8-1,2.8-1.3
			c1-0.2,2-0.3,3-0.2c1,0.1,2,0.3,3,0.7c1,0.4,1.8,0.9,2.7,1.5c0.8,0.7,1.6,1.4,2.2,2.3l1.5-6.7h-0.1l0.6-1.9
			c-1.1,0.1-2.1-0.1-3-0.5c-1-0.4-1.9-0.8-2.9-1.3c-1-0.5-2-0.9-2.9-1.3c-1-0.4-2-0.6-3.1-0.7c-0.5,0.2-0.9,0.5-1.2,0.7
			c-0.3,0.2-0.4,0.4-0.6,0.7c-0.1,0.2-0.2,0.5-0.2,0.8c0,0.3-0.1,0.6-0.1,1c0.1,0.3,0.1,0.6,0.2,0.9c0.1,0.3,0.2,0.7,0.4,1
			c0.1,0.3,0.3,0.6,0.5,0.8c0.2,0.3,0.4,0.4,0.7,0.5c-1.2,0.2-2.2,0.1-3-0.4c-0.7-0.4-1.3-1-1.6-1.7c-0.3-0.7-0.4-1.5-0.3-2.5
			c0.1-0.9,0.4-1.8,0.8-2.7c0.5-0.9,1.1-1.6,1.9-2.3c0.8-0.7,1.7-1.1,2.7-1.4c0.9-0.2,1.8-0.3,2.7-0.2c0.9,0.1,1.8,0.2,2.6,0.4
			c0.9,0.2,1.7,0.5,2.5,0.8c0.8,0.3,1.5,0.6,2.1,0.9c0.6,0.3,1.2,0.5,1.7,0.7c0.5,0.2,0.8,0.3,1.1,0.2c0-0.2,0-0.4-0.1-0.6
			c0-0.2-0.2-0.5-0.3-0.8c-0.2-0.3-0.4-0.5-0.8-0.8c-0.4-0.3-0.8-0.5-1.4-0.8c0.5-0.3,1-0.6,1.3-0.9c0.3-0.3,0.6-0.6,0.9-1
			c0.3-0.4,0.5-0.7,0.8-1.1c0.3-0.4,0.7-0.8,1.2-1.3c1-0.4,1.8-0.7,2.5-0.7c0.7,0,1.4,0.1,1.9,0.2c0.6,0.2,1.1,0.4,1.5,0.6
			c0.5,0.3,0.9,0.4,1.3,0.6c0.4,0.1,0.9,0.1,1.3,0c0.4-0.1,1-0.4,1.5-1c0.2,1.2,0.1,2.3-0.2,3.3c-0.3,1-0.8,1.9-1.6,2.8
			c-0.8,1-1.6,1.6-2.4,2c-0.8,0.3-1.4,0.4-2,0.3c-0.6-0.1-1-0.5-1.3-0.9c-0.3-0.5-0.4-1.1-0.4-1.7c0.1-0.5,0.4-0.9,1-1.2
			c0.5-0.2,1.2-0.4,1.9-0.4c-0.2-0.2-0.5-0.4-0.9-0.5c-0.3-0.1-0.7-0.2-1.1-0.1c-0.4,0-0.7,0.2-1.1,0.4c-0.3,0.2-0.6,0.6-0.8,1.1
			c-0.3,0.6-0.3,1.3-0.2,1.9c0.1,0.7,0.4,1.2,0.8,1.7c0.2,0.2,0.4,0.4,0.7,0.5c0.3,0.1,0.6,0.3,0.9,0.3c0.3,0.1,0.6,0.1,0.9,0.1
			c0.3,0,0.5,0,0.7-0.1l-0.1,0.6l-1.6,6h0.1l-4.6,17.4c-0.6,1.3-1.2,2.4-2,3.2c-0.7,0.8-1.6,1.5-2.5,1.9c-0.9,0.4-1.9,0.7-3,0.8
			c-1.1,0.1-2.3,0-3.6-0.2c0.4-0.2,0.8-0.4,1.3-0.7c0.4-0.3,0.8-0.6,1.2-1c0.4-0.4,0.7-0.8,0.9-1.2c0.3-0.4,0.4-0.9,0.5-1.4l1.9-6.7
			c0.2-0.9,0.2-1.8-0.1-2.7c-0.3-0.9-0.9-1.8-1.9-2.9c-1.1-0.3-2-0.5-2.9-0.4c-0.9,0-1.6,0.2-2.4,0.4c-0.7,0.3-1.3,0.6-1.9,1.1
			c-0.6,0.5-1.1,1-1.5,1.5c-0.4,0.6-0.8,1.1-1.1,1.6C67.5,41.4,67.2,42,66.9,42.6z"/>
		<path class="st0" d="M100.4,27.5c0.2,1.1,0.6,2.1,1.2,2.9c0.7,0.8,1.4,1.5,2.4,2c0.9,0.5,1.9,0.9,2.9,1.1c1.1,0.2,2,0.3,3,0.2
			c-0.3,0.2-0.5,0.5-0.7,0.8c-0.2,0.4-0.5,0.7-0.8,1.1c-0.3,0.3-0.7,0.6-1.3,0.9c-0.5,0.2-1.3,0.3-2.2,0.3c-0.4,0-0.9,0.1-1.4,0.4
			c-0.5,0.3-1,0.9-1.4,1.8c-0.4,1.6-0.8,2.8-1,3.8c-0.2,1-0.5,1.7-0.7,2.3c-0.2,0.6-0.4,1.1-0.7,1.4c-0.3,0.4-0.6,0.7-1.1,1.1
			c0,0,0,0,0.1,0c0,0,0.1,0.1,0.2,0.1c0.1,0,0.4,0.1,0.8,0.2c1.3,0.8,2.5,1.3,3.4,1.5c0.9,0.2,1.7,0.2,2.3-0.1
			c0.6-0.3,1.2-0.7,1.6-1.4c0.4-0.7,0.8-1.5,1.1-2.5c0.3-1,0.6-2.1,0.9-3.3c0.3-1.2,0.6-2.4,1-3.8l2.9-11.7c0.1-0.3,0.1-0.6,0.2-0.8
			c0-0.2,0.1-0.3,0.1-0.4c0-0.1,0-0.2,0.1-0.2l0.1-0.2c0.6-1.3,1.2-2.4,1.9-3.2c0.7-0.8,1.6-1.5,2.5-1.9c0.9-0.4,1.9-0.7,3-0.8
			c1.1-0.1,2.3,0,3.6,0.2l-0.5,0.2c-0.1,0.1-0.3,0.3-0.6,0.5c-0.3,0.2-0.6,0.5-1,0.8c-0.4,0.3-0.7,0.7-1,1.1
			c-0.3,0.4-0.6,0.8-0.7,1.2c0,0,0,0.1-0.1,0.2c0,0.1-0.1,0.3-0.1,0.6c-0.1,0.3-0.2,0.8-0.4,1.4c-0.2,0.6-0.4,1.5-0.7,2.6
			c-0.3,1.1-0.7,2.5-1.1,4.3c-0.5,1.7-1,3.8-1.6,6.3l-2.4,9c-0.5,1.2-1.1,2.2-1.7,3c-0.6,0.8-1.4,1.4-2.2,1.9
			c-1.2,0.4-2.4,0.7-3.6,0.8c-1.2,0.1-2.3,0.1-3.5,0.1c-1.1-0.1-2.3-0.2-3.4-0.4c-1.1-0.2-2.3-0.3-3.4-0.4c-1.2-0.1-2.4-0.1-3.6,0
			c-1.2,0.1-2.5,0.3-3.8,0.7c0.6-0.8,1-1.5,1.3-1.9c0.3-0.4,0.6-0.7,0.8-1c0.2-0.2,0.5-0.4,0.7-0.6c0.2-0.2,0.6-0.4,1-0.7
			c0,0,0-0.1,0.1-0.2c0-0.1,0.1-0.2,0.2-0.5c0.1-0.2,0.2-0.6,0.3-1c0.1-0.4,0.3-1.1,0.5-1.8c0.2-0.8,0.5-1.8,0.8-2.9
			c0.3-1.2,0.7-2.6,1.1-4.3l0.2-0.1c0-0.2,0.1-0.3,0.1-0.4c0.3-0.7,0.7-1.3,1.4-1.7c0.7-0.5,1.7-0.7,2.9-0.7
			c-1.1-0.5-2.1-1.2-2.9-2.1c-0.8-0.9-1.5-1.9-1.9-3.2c-0.3-0.9-0.4-1.8-0.4-2.8c0-1,0.2-1.9,0.6-2.9c0.4-0.9,0.9-1.8,1.5-2.6
			c0.6-0.8,1.4-1.4,2.3-1.9c0.9-0.5,2-0.8,3.1-0.9c1.2-0.1,2.5,0,3.9,0.5c1,0.3,1.7,0.7,2.2,1.3c0.5,0.6,0.7,1.2,0.9,1.9
			c0.1,0.7,0.2,1.4,0.1,2.1c-0.1,0.7-0.2,1.4-0.2,2c-0.1,0.6-0.1,1.1,0,1.6c0.1,0.4,0.3,0.7,0.7,0.8c-0.7,0.5-1.5,0.9-2.2,1.1
			c-0.7,0.2-1.4,0.4-2.1,0.4c-0.7,0-1.2-0.1-1.7-0.2c-0.5-0.2-0.9-0.4-1.1-0.7c-0.4-0.4-0.7-0.9-0.8-1.2c-0.2-0.4-0.2-0.7-0.2-1.1
			c0-0.4,0.1-0.7,0.2-1c0.2-0.3,0.4-0.7,0.7-1.1c0.1-0.3,0.4-0.5,0.9-0.8c0.5-0.2,0.9-0.4,1.4-0.5c0.5-0.1,0.8,0,1.2,0.2
			c0.3,0.2,0.4,0.5,0.3,1.1c0.3-0.5,0.4-1,0.3-1.4c-0.1-0.4-0.2-0.7-0.5-0.9c-0.3-0.2-0.6-0.4-1-0.5c-0.4-0.1-0.9-0.1-1.3,0
			c-0.5,0.1-0.9,0.3-1.4,0.6c-0.5,0.3-0.9,0.6-1.2,1.1c-0.3,0.4-0.5,0.7-0.6,1c-0.1,0.3-0.2,0.6-0.3,0.9c-0.1,0.3-0.1,0.6-0.1,0.8
			C100.4,27.1,100.4,27.3,100.4,27.5z"/>
		<path class="st0" d="M127.8,23c-0.5,0.1-0.9,0.4-1.3,0.7c-0.3,0.3-0.6,0.6-0.8,1c-0.2,0.4-0.3,0.8-0.3,1.2c0,0.4,0,0.8,0.2,1.2
			c0.1,0.6,0.4,1,0.8,1.4c0.4,0.4,0.9,0.7,1.4,0.9c-1.2,0.2-2.2,0.1-3-0.3c-0.7-0.4-1.3-0.9-1.6-1.5c-0.3-0.7-0.4-1.4-0.3-2.2
			c0.1-0.8,0.4-1.6,0.9-2.4c0.5-0.8,1.1-1.5,1.9-2.1c0.8-0.6,1.7-1.1,2.7-1.3c1.3-0.2,2.4-0.3,3.4-0.2c1,0.1,2,0.3,2.8,0.6
			c0.9,0.3,1.7,0.5,2.4,0.8c0.8,0.3,1.5,0.5,2.2,0.6c0.7,0.1,1.5,0,2.2-0.1c0.7-0.2,1.6-0.6,2.4-1.3l-0.3,1.2h-0.1l-7.2,27
			c-0.6,1.3-1.2,2.4-1.9,3.2c-0.7,0.8-1.6,1.5-2.5,1.9c-0.9,0.4-1.9,0.7-3,0.8c-1.1,0.1-2.3,0-3.6-0.2c0.4-0.2,0.9-0.4,1.3-0.7
			c0.4-0.3,0.8-0.6,1.2-1c0.4-0.4,0.7-0.8,0.9-1.2c0.3-0.4,0.4-0.9,0.5-1.4l6.4-24.2c-0.7,0.2-1.3,0.3-1.8,0.3
			c-0.5,0-0.9-0.1-1.3-0.3c-0.4-0.2-0.7-0.4-1-0.6c-0.3-0.3-0.7-0.5-1-0.7c-0.4-0.2-0.8-0.4-1.3-0.6C129.1,23.1,128.5,23,127.8,23z"
			/>
		<path class="st0" d="M155.3,42.1c0.5,0.6,0.9,1.1,1.3,1.6c0.4,0.4,0.6,0.8,0.9,1c0.2,0.3,0.4,0.5,0.6,0.7c0.1,0.2,0.3,0.3,0.4,0.4
			c0.3,0.4,0.7,0.7,1,0.9c0.3,0.2,0.6,0.2,0.9,0.2c0.3-0.1,0.6-0.3,0.8-0.7c0.3-0.4,0.5-1,0.6-1.8l1.5-5.5l3.6-14
			c0.6-1.3,1.2-2.4,2-3.2c0.7-0.8,1.6-1.5,2.5-1.9c0.9-0.4,1.9-0.7,3-0.8c1.1-0.1,2.3,0,3.6,0.2c-0.4,0.2-0.8,0.4-1.3,0.7
			c-0.4,0.3-0.8,0.6-1.2,1c-0.4,0.4-0.7,0.8-0.9,1.2c-0.3,0.4-0.4,0.9-0.5,1.4l-5.8,22.2c-0.2,1.8-0.7,3.4-1.3,4.5
			c-0.7,1.2-1.4,2-2.3,2.4c-0.9,0.4-1.9,0.5-3,0.2c-1.1-0.3-2.2-1-3.3-2.1c-0.5-0.8-1.1-1.7-1.7-2.5c-0.6-0.8-1.2-1.5-1.9-2.2
			c-0.7-0.7-1.5-1.2-2.3-1.7c-0.9-0.5-1.8-0.7-2.9-0.9c-0.5,0.1-1,0.3-1.4,0.5c-0.4,0.2-0.8,0.5-1.1,0.8c-0.3,0.4-0.5,0.8-0.5,1.3
			c-0.1,0.5-0.1,1.1,0.1,1.8c0.3,0.7,0.7,1.2,1.2,1.4c0.5,0.3,1.2,0.2,2-0.3c-0.5,0.1-0.9,0-1.3-0.3c-0.4-0.3-0.6-0.7-0.8-1.1
			c-0.2-0.4-0.3-0.9-0.2-1.3c0-0.4,0.1-0.7,0.4-0.9c0.3-0.3,0.6-0.5,0.8-0.7c0.3-0.2,0.6-0.3,0.9-0.4c0.3,0,0.7,0,1.1,0.1
			c0.4,0.1,0.9,0.4,1.5,0.7c0.3,0.2,0.6,0.4,1,0.7c0.4,0.3,0.8,0.7,1.2,1.2c0.4,0.4,0.8,0.9,1.2,1.5c0.4,0.5,0.7,1.1,0.9,1.6
			c0.3,0.5,0.4,1.1,0.5,1.6c0.1,0.5,0.1,1-0.1,1.5c-0.1-0.4-0.4-0.6-0.8-0.8c-0.4-0.1-0.9-0.2-1.5-0.1c-0.6,0-1.2,0.1-2,0.2
			c-0.7,0.1-1.5,0.2-2.2,0.3c-0.8,0.1-1.5,0.1-2.3,0c-0.7-0.1-1.5-0.3-2.1-0.6c-0.7-0.3-1.2-0.8-1.8-1.5c-0.5-0.7-0.9-1.6-1.2-2.7
			c0-0.7,0.1-1.3,0.1-1.8c0-0.5,0.1-0.9,0.3-1.3c0.1-0.4,0.3-0.8,0.5-1.2c0.2-0.4,0.5-0.9,0.9-1.5c0.5-0.4,0.9-0.7,1.2-0.9
			c0.3-0.2,0.7-0.4,0.9-0.6c0.3-0.1,0.6-0.3,0.8-0.3c0.3-0.1,0.5-0.1,0.8-0.1c0.2-0.7,0.4-1.7,0.7-3.1c0.3-1.3,0.8-3.1,1.4-5.4
			c0.1-0.1,0.3-0.3,0.5-0.4c0.2-0.1,0.4-0.3,0.6-0.4c0.2-0.1,0.4-0.3,0.7-0.4c0.2-0.1,0.4-0.2,0.6-0.2l0,0c0.6-0.3,1.2-0.7,1.8-1.1
			c0.5-0.4,1-0.9,1.3-1.4c0.3-0.4,0.5-1,0.7-1.6c0.2-0.6,0.2-1.3,0-2c-0.1-0.5-0.3-0.9-0.6-1.2c-0.3-0.3-0.6-0.5-0.9-0.7
			c-0.4-0.1-0.7-0.2-1.1-0.2c-0.4,0-0.7,0.1-1.1,0.3c-0.3,0.2-0.6,0.5-0.8,0.8c-0.2,0.4-0.3,0.8-0.4,1.3c0.2-0.5,0.4-0.9,0.8-1.1
			c0.4-0.2,0.8-0.2,1.2-0.2c0.4,0.1,0.8,0.2,1.1,0.5c0.3,0.2,0.5,0.5,0.5,0.8c0.1,0.4,0.1,0.7,0.1,1.1c0,0.3-0.1,0.7-0.3,1
			c-0.2,0.4-0.5,0.7-0.8,1.1c-0.4,0.4-0.9,0.8-1.5,1.2c-0.4,0.3-0.9,0.5-1.5,0.7c-0.6,0.2-1.2,0.3-1.9,0.2c-0.7,0-1.3-0.1-1.9-0.4
			c-0.6-0.2-1.2-0.6-1.6-1.1c0.5-0.1,0.9-0.5,1.2-1c0.3-0.6,0.6-1.2,0.9-1.9c0.3-0.7,0.6-1.5,0.9-2.4c0.3-0.8,0.7-1.6,1.2-2.3
			c0.5-0.7,1.1-1.3,1.8-1.7c0.7-0.4,1.6-0.6,2.7-0.6c1.3,0,2.3,0.2,3,0.6c0.7,0.3,1.2,0.8,1.5,1.4c0.3,0.6,0.5,1.3,0.4,2
			c0,0.8-0.1,1.7-0.4,2.6c-0.2,1-0.5,2-0.9,3.1c-0.4,1.1-0.7,2.3-1,3.5L155.3,42.1z"/>
	</g>
	<g>
		<g>
			<path class="st0" d="M36.1,61.4c0,1.7-0.5,3.1-1.4,4.3c-1.1,1.3-2.5,1.9-4.3,1.9h-3.9l2.3-10.4h3.3c1.4,0,2.5,0.4,3.1,1.1
				C35.8,59.1,36.1,60.1,36.1,61.4z M35.1,61.2c0-2.1-1-3.1-3.1-3.1h-2.4l-1.9,8.7h2.5c1.6,0,2.9-0.6,3.8-1.7
				C34.7,64.1,35.1,62.8,35.1,61.2z"/>
			<path class="st0" d="M30.4,68.4h-3.9c-0.2,0-0.4-0.1-0.6-0.3c-0.1-0.2-0.2-0.4-0.1-0.6l2.3-10.4c0.1-0.3,0.4-0.6,0.7-0.6h3.3
				c1.6,0,2.9,0.5,3.7,1.4c0.7,0.8,1,2,1,3.5c0,1.9-0.5,3.5-1.6,4.8C34,67.7,32.4,68.4,30.4,68.4z M28.6,66.1h1.6
				c1.4,0,2.4-0.5,3.2-1.4c0.7-0.9,1-2,1-3.4c0-1.7-0.7-2.4-2.4-2.4h-1.8L28.6,66.1z"/>
		</g>
		<g>
			<path class="st0" d="M40.8,57.2l-2.2,10.4h-1l2.2-10.4H40.8z"/>
			<path class="st0" d="M38.6,68.4h-1c-0.2,0-0.4-0.1-0.6-0.3c-0.1-0.2-0.2-0.4-0.2-0.6l2.2-10.4c0.1-0.3,0.4-0.6,0.7-0.6h1
				c0.2,0,0.4,0.1,0.6,0.3c0.1,0.2,0.2,0.4,0.2,0.6l-2.2,10.4C39.3,68.1,39,68.4,38.6,68.4z"/>
		</g>
		<g>
			<path class="st0" d="M52.2,60.4h-1c0-0.9-0.3-1.5-0.9-1.9c-0.6-0.4-1.4-0.7-2.4-0.7c-1.3,0-2.4,0.6-3.3,1.7
				c-0.9,1.1-1.3,2.4-1.3,3.9c0,1.1,0.3,2,0.9,2.6c0.6,0.6,1.4,1,2.5,1c0.5,0,1.1-0.1,1.5-0.3c0.5-0.2,0.9-0.4,1.2-0.8
				c0.4-0.3,0.7-0.7,0.9-1.2c0.2-0.5,0.4-1,0.5-1.6h-3.6l0.2-0.8H52l-1.1,5.3h-0.7l0.2-1.7c-0.4,0.7-1,1.2-1.6,1.5
				c-0.6,0.3-1.4,0.5-2.2,0.5c-1.3,0-2.4-0.4-3.1-1.1c-0.7-0.7-1.1-1.8-1.1-3.2c0-1.8,0.5-3.3,1.4-4.5c1-1.3,2.4-2,4.2-2
				c1.3,0,2.4,0.3,3.1,0.9C51.8,58.5,52.2,59.3,52.2,60.4z"/>
			<path class="st0" d="M46.6,68.6c-1.5,0-2.8-0.5-3.6-1.3c-0.9-0.9-1.3-2.1-1.3-3.7c0-1.9,0.5-3.6,1.6-5c1.2-1.5,2.8-2.3,4.8-2.3
				c1.5,0,2.7,0.4,3.5,1.1c0.9,0.7,1.3,1.8,1.3,3.1c0,0.4-0.3,0.7-0.7,0.7h-1c-0.4,0-0.7-0.3-0.7-0.7c0-0.8-0.3-1.1-0.6-1.3
				c-0.4-0.3-1.1-0.5-1.9-0.5c-1.1,0-2,0.5-2.7,1.4c-0.8,1-1.1,2.1-1.1,3.4c0,0.9,0.2,1.6,0.7,2.1c0.4,0.5,1.1,0.7,2,0.7
				c0.4,0,0.9-0.1,1.2-0.2c0.4-0.2,0.7-0.4,1-0.6c0.3-0.3,0.5-0.6,0.7-1c0.1-0.2,0.1-0.3,0.2-0.5h-2.6c-0.2,0-0.4-0.1-0.6-0.3
				c-0.1-0.2-0.2-0.4-0.1-0.6l0.2-0.8c0.1-0.3,0.4-0.6,0.7-0.6H52c0.2,0,0.4,0.1,0.6,0.3c0.1,0.2,0.2,0.4,0.2,0.6l-1.1,5.3
				c-0.1,0.3-0.4,0.6-0.7,0.6h-0.7c-0.2,0-0.4-0.1-0.6-0.2c-0.1-0.1-0.1-0.2-0.2-0.3c-0.1,0.1-0.2,0.1-0.4,0.2
				C48.4,68.4,47.5,68.6,46.6,68.6z"/>
		</g>
		<g>
			<path class="st0" d="M57.1,57.2l-2.2,10.4h-1l2.2-10.4H57.1z"/>
			<path class="st0" d="M54.8,68.4h-1c-0.2,0-0.4-0.1-0.6-0.3c-0.1-0.2-0.2-0.4-0.2-0.6l2.2-10.4c0.1-0.3,0.4-0.6,0.7-0.6h1
				c0.2,0,0.4,0.1,0.6,0.3c0.1,0.2,0.2,0.4,0.2,0.6l-2.2,10.4C55.5,68.1,55.2,68.4,54.8,68.4z"/>
		</g>
		<g>
			<path class="st0" d="M67.4,57.2l-0.2,0.8h-3.6l-2.1,9.6h-1l2.1-9.6h-3.6l0.2-0.8H67.4z"/>
			<path class="st0" d="M61.6,68.4h-1c-0.2,0-0.4-0.1-0.6-0.3s-0.2-0.4-0.1-0.6l1.9-8.6h-2.6c-0.2,0-0.4-0.1-0.6-0.3
				c-0.1-0.2-0.2-0.4-0.2-0.6l0.2-0.8c0.1-0.4,0.4-0.6,0.7-0.6h8.1c0.2,0,0.4,0.1,0.6,0.3c0.1,0.2,0.2,0.4,0.2,0.6L68,58.2
				c-0.1,0.3-0.4,0.6-0.7,0.6h-3l-1.9,9C62.3,68.1,62,68.4,61.6,68.4z"/>
		</g>
		<g>
			<path class="st0" d="M75.6,67.6h-1L74,64.4h-4.7l-1.9,3.2h-1.1l6.3-10.4h1.1L75.6,67.6z M73.9,63.6L73,58.1l-3.2,5.5H73.9z"/>
			<path class="st0" d="M75.6,68.4h-1c-0.4,0-0.7-0.3-0.7-0.6l-0.4-2.6h-3.7L68,68c-0.1,0.2-0.4,0.4-0.6,0.4h-1.1
				c-0.3,0-0.5-0.1-0.7-0.4c-0.1-0.2-0.1-0.5,0-0.8L72,56.9c0.1-0.2,0.4-0.4,0.6-0.4h1.1c0.4,0,0.7,0.3,0.7,0.6l1.9,10.4
				c0,0.2,0,0.4-0.2,0.6C76,68.3,75.8,68.4,75.6,68.4z M71.1,62.8H73l-0.4-2.6L71.1,62.8z"/>
		</g>
		<g>
			<path class="st0" d="M84.6,66.8l-0.2,0.8h-6.7l2.3-10.4h1l-2.1,9.6H84.6z"/>
			<path class="st0" d="M84.4,68.4h-6.7c-0.2,0-0.4-0.1-0.6-0.3c-0.1-0.2-0.2-0.4-0.1-0.6l2.3-10.4c0.1-0.3,0.4-0.6,0.7-0.6h1
				c0.2,0,0.4,0.1,0.6,0.3c0.1,0.2,0.2,0.4,0.1,0.6l-1.9,8.7h4.8c0.2,0,0.4,0.1,0.6,0.3c0.1,0.2,0.2,0.4,0.1,0.6l-0.2,0.8
				C85.1,68.1,84.8,68.4,84.4,68.4z"/>
		</g>
		<g>
			<path class="st0" d="M98.8,57.2l-0.2,0.8h-3.6L93,67.6h-1l2.1-9.6h-3.6l0.2-0.8H98.8z"/>
			<path class="st0" d="M93,68.4h-1c-0.2,0-0.4-0.1-0.6-0.3c-0.1-0.2-0.2-0.4-0.1-0.6l1.9-8.6h-2.6c-0.2,0-0.4-0.1-0.6-0.3
				c-0.1-0.2-0.2-0.4-0.2-0.6l0.2-0.8c0.1-0.4,0.4-0.6,0.7-0.6h8.1c0.2,0,0.4,0.1,0.6,0.3c0.1,0.2,0.2,0.4,0.2,0.6l-0.2,0.8
				c-0.1,0.3-0.4,0.6-0.7,0.6h-3l-1.9,9C93.7,68.1,93.4,68.4,93,68.4z"/>
		</g>
		<g>
			<path class="st0" d="M109,57.2l-2.2,10.4h-1l1.1-5h-6l-1.1,5h-1l2.2-10.4h1l-0.9,4.5h6l0.9-4.5H109z"/>
			<path class="st0" d="M106.8,68.4h-1c-0.2,0-0.4-0.1-0.6-0.3c-0.1-0.2-0.2-0.4-0.1-0.6l0.9-4.1h-4.5l-1,4.4
				c-0.1,0.3-0.4,0.6-0.7,0.6h-1c-0.2,0-0.4-0.1-0.6-0.3c-0.1-0.2-0.2-0.4-0.1-0.6l2.2-10.4c0.1-0.3,0.4-0.6,0.7-0.6h1
				c0.2,0,0.4,0.1,0.6,0.3c0.1,0.2,0.2,0.4,0.2,0.6L102,61h4.5l0.8-3.9c0.1-0.3,0.4-0.6,0.7-0.6h1c0.2,0,0.4,0.1,0.6,0.3
				c0.1,0.2,0.2,0.4,0.2,0.6l-2.2,10.4C107.5,68.1,107.2,68.4,106.8,68.4z"/>
		</g>
		<g>
			<path class="st0" d="M118.3,67.6h-1l-0.5-3.2H112l-1.9,3.2h-1.1l6.3-10.4h1.1L118.3,67.6z M116.6,63.6l-0.9-5.5l-3.2,5.5H116.6z"
				/>
			<path class="st0" d="M118.3,68.4h-1c-0.4,0-0.7-0.3-0.7-0.6l-0.4-2.6h-3.7l-1.7,2.9c-0.1,0.2-0.4,0.4-0.6,0.4h-1.1
				c-0.3,0-0.5-0.1-0.7-0.4c-0.1-0.2-0.1-0.5,0-0.8l6.3-10.4c0.1-0.2,0.4-0.4,0.6-0.4h1.1c0.4,0,0.7,0.3,0.7,0.6l1.9,10.4
				c0,0.2,0,0.4-0.2,0.6C118.8,68.3,118.6,68.4,118.3,68.4z M113.8,62.8h1.9l-0.4-2.6L113.8,62.8z"/>
		</g>
		<g>
			<path class="st0" d="M123.6,57.2l-2.2,10.4h-1l2.2-10.4H123.6z"/>
			<path class="st0" d="M121.4,68.4h-1c-0.2,0-0.4-0.1-0.6-0.3c-0.1-0.2-0.2-0.4-0.2-0.6l2.2-10.4c0.1-0.3,0.4-0.6,0.7-0.6h1
				c0.2,0,0.4,0.1,0.6,0.3c0.1,0.2,0.2,0.4,0.2,0.6l-2.2,10.4C122.1,68.1,121.8,68.4,121.4,68.4z"/>
		</g>
		<g>
			<path class="st0" d="M138.4,59.8c0,0.4-0.1,0.8-0.2,1.1c-0.1,0.3-0.3,0.6-0.5,0.9c-0.2,0.3-0.5,0.5-0.8,0.6
				c-0.3,0.1-0.7,0.2-1.1,0.2c0.5,0.1,0.8,0.3,1,0.7c0.2,0.3,0.3,0.7,0.3,1.2c0,0.2,0,0.6-0.1,1.1c0,0.5-0.1,0.8-0.1,1.1
				c0,0.2,0,0.4,0,0.5c0,0.2,0.1,0.3,0.1,0.4h-1c0,0-0.1-0.1-0.1-0.4c0-0.2,0-0.5,0-0.7c0-0.2,0-0.5,0.1-0.9c0-0.4,0.1-0.7,0.1-0.9
				c0-0.5-0.1-0.9-0.3-1.2c-0.2-0.3-0.6-0.4-1.1-0.4H131l-1,4.6h-1l2.2-10.4h4.4C137.5,57.2,138.4,58.1,138.4,59.8z M137.4,59.9
				c0-1.2-0.6-1.8-1.8-1.8H132l-0.9,4.1h3.5c0.8,0,1.4-0.2,2-0.6C137.1,61.2,137.4,60.7,137.4,59.9z"/>
			<path class="st0" d="M137.1,68.4h-1c-0.1,0-0.2,0-0.3-0.1c-0.4-0.2-0.5-0.6-0.5-0.9c0-0.2-0.1-0.5-0.1-0.8c0-0.2,0-0.5,0.1-1
				c0.1-0.5,0.1-0.7,0.1-0.9c0-0.4-0.1-0.6-0.2-0.8c-0.1-0.1-0.3-0.1-0.5-0.1h-3.1l-0.8,4c-0.1,0.3-0.4,0.6-0.7,0.6h-1
				c-0.2,0-0.4-0.1-0.6-0.3c-0.1-0.2-0.2-0.4-0.1-0.6l2.2-10.4c0.1-0.3,0.4-0.6,0.7-0.6h4.4c2.2,0,3.5,1.2,3.5,3.3
				c0,0.5-0.1,1-0.2,1.4c-0.2,0.4-0.4,0.8-0.7,1.1c-0.2,0.3-0.5,0.5-0.8,0.7c0.3,0.4,0.4,1,0.4,1.6c0,0.3,0,0.6-0.1,1.1
				c-0.1,0.6-0.1,0.9-0.1,1c0,0.2,0,0.3,0,0.4c0,0,0,0.1,0,0.1c0.2,0.2,0.2,0.5,0.1,0.8C137.6,68.2,137.4,68.4,137.1,68.4z
				 M132.1,61.4h2.6c0.6,0,1.1-0.1,1.5-0.4c0.2-0.2,0.5-0.4,0.5-1.1c0-0.8-0.3-1.1-1-1.1h-2.9L132.1,61.4z"/>
		</g>
		<g>
			<path class="st0" d="M142.7,57.2l-2.2,10.4h-1l2.2-10.4H142.7z"/>
			<path class="st0" d="M140.5,68.4h-1c-0.2,0-0.4-0.1-0.6-0.3c-0.1-0.2-0.2-0.4-0.2-0.6l2.2-10.4c0.1-0.3,0.4-0.6,0.7-0.6h1
				c0.2,0,0.4,0.1,0.6,0.3c0.1,0.2,0.2,0.4,0.2,0.6l-2.2,10.4C141.2,68.1,140.9,68.4,140.5,68.4z"/>
		</g>
		<g>
			<path class="st0" d="M153.8,60.5h-1c0-0.9-0.3-1.5-0.8-2c-0.5-0.5-1.2-0.7-2.1-0.7c-1.5,0-2.6,0.6-3.5,1.8
				c-0.8,1-1.1,2.3-1.1,3.9c0,1.1,0.3,1.9,0.9,2.6c0.6,0.6,1.4,1,2.5,1c0.8,0,1.6-0.3,2.2-0.8c0.6-0.5,1.1-1.2,1.3-2.2h1
				c-0.3,1.1-0.8,2-1.5,2.7c-0.8,0.7-1.9,1-3.2,1c-1.3,0-2.4-0.4-3.1-1.2c-0.8-0.8-1.1-1.9-1.1-3.2c0-1.8,0.5-3.2,1.5-4.4
				c1.1-1.3,2.5-2,4.2-2c1.1,0,2.1,0.3,2.8,0.9C153.5,58.5,153.8,59.4,153.8,60.5z"/>
			<path class="st0" d="M148.6,68.6c-1.5,0-2.8-0.5-3.7-1.4c-0.9-0.9-1.3-2.2-1.3-3.7c0-1.9,0.6-3.6,1.6-4.9
				c1.2-1.5,2.8-2.2,4.8-2.2c1.3,0,2.4,0.4,3.3,1.1c0.9,0.7,1.3,1.8,1.3,3.2c0,0.4-0.3,0.7-0.7,0.7h-1c-0.4,0-0.7-0.3-0.7-0.7
				c0-0.6-0.2-1.1-0.5-1.4c-0.4-0.3-0.9-0.5-1.6-0.5c-1.2,0-2.2,0.5-2.9,1.5c-0.7,0.9-1,2.1-1,3.5c0,0.9,0.2,1.6,0.7,2.1
				c0.5,0.5,1.1,0.7,2,0.7c0.7,0,1.2-0.2,1.7-0.6c0.5-0.4,0.9-1,1.1-1.8c0.1-0.3,0.4-0.6,0.7-0.6h1c0.2,0,0.4,0.1,0.6,0.3
				c0.1,0.2,0.2,0.4,0.1,0.6c-0.3,1.3-0.9,2.3-1.7,3.1C151.3,68.2,150.1,68.6,148.6,68.6z"/>
		</g>
		<g>
			<path class="st0" d="M164.5,57.2l-0.2,0.8h-6l-0.8,3.8h5.6l-0.2,0.8h-5.6l-0.9,4.1h6.1l-0.2,0.8h-7.1l2.2-10.4H164.5z"/>
			<path class="st0" d="M162.4,68.4h-7.1c-0.2,0-0.4-0.1-0.6-0.3c-0.1-0.2-0.2-0.4-0.1-0.6l2.2-10.4c0.1-0.3,0.4-0.6,0.7-0.6h7
				c0.2,0,0.4,0.1,0.6,0.3c0.1,0.2,0.2,0.4,0.1,0.6l-0.2,0.8c-0.1,0.3-0.4,0.6-0.7,0.6h-5.4l-0.5,2.3h4.7c0.2,0,0.4,0.1,0.6,0.3
				c0.1,0.2,0.2,0.4,0.1,0.6l-0.2,0.8c-0.1,0.3-0.4,0.6-0.7,0.6h-5l-0.5,2.6h5.2c0.2,0,0.4,0.1,0.6,0.3c0.1,0.2,0.2,0.4,0.1,0.6
				l-0.2,0.8C163,68.1,162.7,68.4,162.4,68.4z"/>
		</g>
	</g>
	<g>
		<g>
			<path class="st0" d="M92.9,72.8c0,0.5-0.1,0.9-0.4,1.2c-0.3,0.4-0.7,0.5-1.1,0.5c-0.3,0-0.5-0.1-0.6-0.2
				c-0.2-0.1-0.3-0.2-0.3-0.4l-0.1,0.5h-0.4l0.8-3.9h0.5L90.9,72c0.2-0.3,0.5-0.4,0.9-0.4c0.4,0,0.6,0.1,0.8,0.3
				C92.8,72.1,92.9,72.4,92.9,72.8z M92.4,72.8c0-0.2-0.1-0.4-0.2-0.6C92.1,72.1,92,72,91.8,72c-0.4,0-0.7,0.2-0.9,0.5
				c-0.2,0.3-0.3,0.6-0.3,1c0,0.2,0.1,0.4,0.2,0.5c0.1,0.1,0.3,0.2,0.6,0.2c0.3,0,0.6-0.2,0.8-0.5C92.3,73.4,92.4,73.1,92.4,72.8z"
				/>
			<path class="st0" d="M91.4,74.7c-0.3,0-0.5-0.1-0.7-0.2c-0.1,0-0.1-0.1-0.2-0.1l0,0.2c0,0.1-0.1,0.1-0.1,0.1h-0.4
				c0,0-0.1,0-0.1-0.1c0,0,0-0.1,0-0.1l0.8-3.9c0-0.1,0.1-0.1,0.1-0.1h0.5c0,0,0.1,0,0.1,0.1c0,0,0,0.1,0,0.1l-0.2,1
				c0.2-0.1,0.4-0.2,0.7-0.2c0.4,0,0.7,0.1,0.9,0.4c0.2,0.2,0.3,0.6,0.3,1c0,0.5-0.1,0.9-0.4,1.3C92.3,74.5,91.9,74.7,91.4,74.7z
				 M90.4,73.8C90.4,73.8,90.4,73.8,90.4,73.8c0.1,0,0.1,0,0.1,0.1c0,0.1,0.1,0.2,0.3,0.3c0.2,0.1,0.3,0.1,0.6,0.1
				c0.4,0,0.7-0.2,1-0.5c0.2-0.3,0.4-0.7,0.4-1.1c0-0.3-0.1-0.6-0.2-0.8c-0.2-0.2-0.4-0.3-0.7-0.3c-0.3,0-0.6,0.1-0.8,0.4
				c0,0.1-0.1,0.1-0.2,0c-0.1,0-0.1-0.1-0.1-0.2l0.3-1.3h-0.2l-0.8,3.6h0.1l0.1-0.4C90.3,73.9,90.4,73.8,90.4,73.8z M91.4,74.3
				c-0.3,0-0.5-0.1-0.7-0.2c-0.2-0.2-0.3-0.4-0.3-0.6c0-0.4,0.1-0.7,0.3-1c0.2-0.4,0.6-0.6,1-0.6c0.3,0,0.5,0.1,0.6,0.3
				c0.1,0.2,0.2,0.4,0.2,0.7c0,0.3-0.1,0.7-0.3,1C92.1,74.1,91.8,74.3,91.4,74.3z M91.8,72.2c-0.3,0-0.6,0.1-0.8,0.4
				c-0.2,0.3-0.3,0.5-0.3,0.9c0,0.2,0.1,0.3,0.2,0.4C91,74,91.2,74,91.4,74c0.3,0,0.5-0.1,0.6-0.4c0.2-0.3,0.2-0.5,0.2-0.8
				c0-0.2,0-0.4-0.1-0.5C92.1,72.2,91.9,72.2,91.8,72.2z"/>
		</g>
		<g>
			<path class="st0" d="M96,71.7L94.1,75c-0.1,0.2-0.3,0.4-0.4,0.5c-0.2,0.1-0.3,0.2-0.5,0.2c-0.1,0-0.1,0-0.2,0c0,0-0.1,0-0.2-0.1
				l0.1-0.4c0.1,0.1,0.2,0.1,0.3,0.1c0.1,0,0.2,0,0.2-0.1c0.1-0.1,0.1-0.1,0.2-0.2l0.3-0.5l-0.5-2.9h0.5l0.3,2.3l1.2-2.3H96z"/>
			<path class="st0" d="M93.2,75.8c-0.1,0-0.1,0-0.2,0c-0.1,0-0.1,0-0.2-0.1c-0.1,0-0.1-0.1-0.1-0.2l0.1-0.4c0-0.1,0-0.1,0.1-0.1
				c0,0,0.1,0,0.1,0c0.1,0.1,0.2,0.1,0.3,0c0.1,0,0.1-0.1,0.2-0.2l0.3-0.4l-0.5-2.8c0,0,0-0.1,0-0.1s0.1-0.1,0.1-0.1h0.5
				c0.1,0,0.1,0.1,0.1,0.1l0.3,1.8l1-1.9c0,0,0.1-0.1,0.1-0.1H96c0.1,0,0.1,0,0.1,0.1c0,0,0,0.1,0,0.1l-1.9,3.3
				c-0.2,0.2-0.3,0.4-0.4,0.5C93.6,75.7,93.4,75.8,93.2,75.8z M93,75.5C93,75.5,93,75.5,93,75.5c0.1,0,0.1,0,0.2,0
				c0.2,0,0.3-0.1,0.4-0.2c0.1-0.1,0.2-0.2,0.3-0.4l1.8-3.1h-0.2L94.4,74c0,0.1-0.1,0.1-0.2,0.1c-0.1,0-0.1-0.1-0.1-0.1l-0.3-2.1
				h-0.2l0.5,2.7c0,0,0,0.1,0,0.1l-0.3,0.5c-0.1,0.1-0.1,0.2-0.2,0.3C93.4,75.4,93.2,75.5,93,75.5L93,75.5z"/>
		</g>
		<g>
			<path class="st0" d="M103.4,70.6l-1.8,3.9H101l-0.3-3.4l-1.6,3.4h-0.6l-0.2-3.9h0.5l0.1,3.3l1.5-3.3h0.6l0.2,3.3l1.4-3.3H103.4z"
				/>
			<path class="st0" d="M101.5,74.7H101c-0.1,0-0.1-0.1-0.1-0.1l-0.2-2.8l-1.3,2.9c0,0.1-0.1,0.1-0.1,0.1h-0.6
				c-0.1,0-0.1-0.1-0.1-0.1l-0.2-3.9c0,0,0-0.1,0-0.1s0.1,0,0.1,0h0.5c0.1,0,0.1,0.1,0.1,0.1l0.1,2.7l1.3-2.7c0-0.1,0.1-0.1,0.1-0.1
				h0.6c0.1,0,0.1,0.1,0.1,0.1l0.2,2.7l1.2-2.8c0-0.1,0.1-0.1,0.1-0.1h0.5c0.1,0,0.1,0,0.1,0.1c0,0,0,0.1,0,0.1l-1.8,3.9
				C101.7,74.6,101.6,74.7,101.5,74.7z M101.1,74.4h0.3l1.7-3.6h-0.2l-1.4,3.2c0,0.1-0.1,0.1-0.2,0.1c-0.1,0-0.1-0.1-0.1-0.1
				l-0.2-3.2h-0.4L99.2,74c0,0.1-0.1,0.1-0.2,0.1c-0.1,0-0.1-0.1-0.1-0.1l-0.1-3.2h-0.2l0.2,3.6h0.3l1.5-3.3c0-0.1,0.1-0.1,0.2-0.1
				c0.1,0,0.1,0.1,0.1,0.1L101.1,74.4z"/>
		</g>
		<g>
			<path class="st0" d="M106.4,71.7h-0.5c0-0.3-0.1-0.5-0.2-0.6c-0.2-0.1-0.4-0.2-0.7-0.2c-0.2,0-0.4,0-0.6,0.1
				c-0.2,0.1-0.3,0.3-0.3,0.5c0,0.2,0.1,0.3,0.2,0.4c0.1,0.1,0.2,0.2,0.5,0.2l0.5,0.2c0.3,0.1,0.5,0.2,0.7,0.3
				c0.2,0.2,0.3,0.4,0.3,0.8c0,0.4-0.2,0.7-0.5,0.9c-0.3,0.2-0.6,0.3-1,0.3c-0.5,0-0.9-0.1-1.1-0.3c-0.3-0.2-0.4-0.6-0.4-1.1h0.5
				c0,0.4,0.1,0.6,0.3,0.7c0.2,0.1,0.4,0.2,0.8,0.2c0.3,0,0.5-0.1,0.7-0.2c0.2-0.1,0.3-0.3,0.3-0.6c0-0.2-0.1-0.3-0.2-0.4
				c-0.1-0.1-0.3-0.2-0.5-0.2l-0.5-0.1c-0.3-0.1-0.5-0.2-0.6-0.3c-0.2-0.2-0.3-0.4-0.3-0.7c0-0.4,0.2-0.6,0.5-0.9
				c0.3-0.2,0.6-0.3,1-0.3c0.4,0,0.7,0.1,1,0.3C106.3,71,106.4,71.3,106.4,71.7z"/>
			<path class="st0" d="M104.7,74.7c-0.5,0-0.9-0.1-1.2-0.4c-0.3-0.3-0.5-0.7-0.5-1.2c0-0.1,0.1-0.1,0.1-0.1h0.5
				c0.1,0,0.1,0.1,0.1,0.1c0,0.3,0.1,0.5,0.2,0.6c0.1,0.1,0.4,0.2,0.7,0.2c0.2,0,0.4-0.1,0.6-0.2c0.2-0.1,0.2-0.3,0.2-0.5
				c0-0.1,0-0.2-0.1-0.3c-0.1,0-0.2-0.1-0.4-0.2l-0.5-0.1c-0.3-0.1-0.5-0.2-0.7-0.4c-0.2-0.2-0.3-0.5-0.3-0.8c0-0.4,0.2-0.7,0.5-1
				c0.3-0.2,0.6-0.3,1.1-0.3c0.4,0,0.8,0.1,1.1,0.3c0.3,0.3,0.5,0.6,0.5,1.1c0,0.1-0.1,0.1-0.1,0.1h-0.5c-0.1,0-0.1-0.1-0.1-0.1
				c0-0.3-0.1-0.4-0.2-0.5c-0.1-0.1-0.3-0.2-0.6-0.2c-0.2,0-0.4,0-0.5,0.1c-0.2,0.1-0.2,0.2-0.2,0.4c0,0.1,0,0.2,0.1,0.3
				c0.1,0.1,0.2,0.1,0.4,0.2l0.5,0.2c0.3,0.1,0.6,0.2,0.7,0.3c0.2,0.2,0.3,0.5,0.3,0.9c0,0.4-0.2,0.8-0.6,1
				C105.5,74.6,105.1,74.7,104.7,74.7z M103.3,73.4c0,0.4,0.1,0.6,0.4,0.8c0.2,0.2,0.6,0.3,1,0.3c0.4,0,0.7-0.1,1-0.3
				c0.3-0.2,0.4-0.4,0.4-0.8c0-0.3-0.1-0.5-0.2-0.6c-0.1-0.1-0.3-0.2-0.6-0.3l-0.5-0.2c-0.2-0.1-0.4-0.1-0.5-0.2
				c-0.1-0.1-0.2-0.3-0.2-0.5c0-0.2,0.1-0.4,0.4-0.6c0.2-0.1,0.4-0.2,0.7-0.2c0.3,0,0.6,0.1,0.8,0.2c0.2,0.1,0.3,0.3,0.3,0.6h0.2
				c0-0.3-0.1-0.5-0.4-0.7c-0.2-0.2-0.5-0.3-0.9-0.3c-0.4,0-0.7,0.1-0.9,0.3c-0.3,0.2-0.4,0.4-0.4,0.7c0,0.2,0.1,0.4,0.2,0.6
				c0.1,0.1,0.3,0.2,0.5,0.3l0.5,0.1c0.3,0.1,0.4,0.1,0.6,0.2c0.2,0.1,0.3,0.3,0.3,0.5c0,0.3-0.1,0.5-0.4,0.7
				c-0.2,0.1-0.5,0.2-0.8,0.2c-0.4,0-0.7-0.1-0.9-0.2c-0.2-0.1-0.3-0.4-0.3-0.7H103.3z"/>
		</g>
		<g>
			<path class="st0" d="M110.6,70.6l-0.8,3.9h-0.6l-1.4-3.2l-0.7,3.2h-0.5l0.8-3.9h0.6l1.4,3.3l0.7-3.3H110.6z"/>
			<path class="st0" d="M109.8,74.7h-0.6c-0.1,0-0.1,0-0.1-0.1l-1.2-2.8l-0.6,2.8c0,0.1-0.1,0.1-0.1,0.1h-0.5c0,0-0.1,0-0.1-0.1
				c0,0,0-0.1,0-0.1l0.8-3.9c0-0.1,0.1-0.1,0.1-0.1h0.6c0.1,0,0.1,0,0.1,0.1l1.2,2.8l0.6-2.8c0-0.1,0.1-0.1,0.1-0.1h0.5
				c0,0,0.1,0,0.1,0.1c0,0,0,0.1,0,0.1l-0.8,3.9C109.9,74.6,109.9,74.7,109.8,74.7z M109.3,74.4h0.3l0.8-3.6h-0.2l-0.6,3.1
				c0,0.1-0.1,0.1-0.1,0.1c-0.1,0-0.1,0-0.2-0.1l-1.4-3.2h-0.3l-0.8,3.6h0.2l0.7-3.1c0-0.1,0.1-0.1,0.1-0.1c0.1,0,0.1,0,0.2,0.1
				L109.3,74.4z"/>
		</g>
		<g>
			<path class="st0" d="M116.3,70.6l-0.1,0.4h-1.3l-0.7,3.5h-0.5l0.7-3.5H113l0.1-0.4H116.3z"/>
			<path class="st0" d="M114.1,74.7h-0.5c0,0-0.1,0-0.1-0.1c0,0,0-0.1,0-0.1l0.7-3.3H113c0,0-0.1,0-0.1-0.1c0,0,0-0.1,0-0.1l0.1-0.4
				c0-0.1,0.1-0.1,0.1-0.1h3.2c0,0,0.1,0,0.1,0.1c0,0,0,0.1,0,0.1l-0.1,0.4c0,0.1-0.1,0.1-0.1,0.1H115l-0.7,3.4
				C114.3,74.6,114.2,74.7,114.1,74.7z M113.8,74.4h0.2l0.7-3.4c0-0.1,0.1-0.1,0.1-0.1h1.2l0-0.1h-2.9l0,0.1h1.1c0,0,0.1,0,0.1,0.1
				c0,0,0,0.1,0,0.1L113.8,74.4z"/>
		</g>
		<g>
			<path class="st0" d="M118.6,72.9c0,0.1,0,0.1,0,0.2c0,0.1,0,0.1,0,0.2h-2.1c0,0,0,0.1,0,0.1c0,0,0,0.1,0,0.1
				c0,0.2,0.1,0.4,0.2,0.5c0.1,0.1,0.3,0.2,0.5,0.2c0.4,0,0.7-0.2,0.8-0.5h0.5c-0.1,0.3-0.2,0.5-0.5,0.7c-0.2,0.2-0.5,0.2-0.8,0.2
				c-0.4,0-0.7-0.1-1-0.4c-0.2-0.2-0.3-0.5-0.3-0.8c0-0.5,0.1-1,0.4-1.3c0.3-0.3,0.6-0.5,1-0.5c0.4,0,0.7,0.1,0.9,0.3
				C118.5,72.1,118.6,72.4,118.6,72.9z M118.1,72.8c0-0.2,0-0.4-0.1-0.6c-0.1-0.2-0.3-0.3-0.5-0.3c-0.3,0-0.5,0.1-0.7,0.2
				c-0.1,0.1-0.3,0.3-0.3,0.6H118.1z"/>
			<path class="st0" d="M117.1,74.7c-0.5,0-0.8-0.1-1.1-0.4c-0.2-0.2-0.3-0.5-0.3-0.9c0-0.6,0.2-1,0.5-1.4c0.3-0.4,0.7-0.6,1.2-0.6
				c0.5,0,0.8,0.1,1,0.4c0.2,0.2,0.3,0.6,0.3,1c0,0.1,0,0.2,0,0.2c0,0.1,0,0.1,0,0.2c0,0.1-0.1,0.1-0.1,0.1h-2c0,0,0,0.1,0,0.1
				c0,0.2,0.1,0.3,0.2,0.4c0.1,0.1,0.3,0.1,0.4,0.1c0.4,0,0.6-0.1,0.7-0.4c0-0.1,0.1-0.1,0.1-0.1h0.5c0,0,0.1,0,0.1,0.1
				c0,0,0,0.1,0,0.1c-0.1,0.3-0.3,0.6-0.5,0.8C117.8,74.6,117.5,74.7,117.1,74.7z M117.4,71.8c-0.4,0-0.7,0.2-0.9,0.5
				c-0.3,0.3-0.4,0.7-0.4,1.2c0,0.3,0.1,0.5,0.2,0.7c0.2,0.2,0.5,0.3,0.8,0.3c0.3,0,0.6-0.1,0.8-0.2c0.2-0.1,0.3-0.2,0.3-0.4h-0.2
				c-0.2,0.4-0.5,0.5-0.9,0.5c-0.2,0-0.4-0.1-0.6-0.2c-0.2-0.2-0.3-0.4-0.3-0.6c0,0,0-0.1,0-0.1c0-0.1,0-0.1,0-0.1
				c0-0.1,0.1-0.1,0.1-0.1h2c0,0,0,0,0,0c0-0.1,0-0.1,0-0.2c0-0.4-0.1-0.7-0.3-0.8C118,71.8,117.8,71.8,117.4,71.8z M118.1,73h-1.7
				c0,0-0.1,0-0.1-0.1c0,0,0-0.1,0-0.1c0.1-0.3,0.2-0.5,0.4-0.6c0.2-0.2,0.5-0.3,0.8-0.3c0.3,0,0.5,0.1,0.7,0.3
				c0.1,0.1,0.2,0.4,0.2,0.6C118.3,72.9,118.2,73,118.1,73z M116.7,72.7h1.3c0-0.1,0-0.2-0.1-0.3c-0.1-0.1-0.2-0.2-0.4-0.2
				c-0.2,0-0.4,0.1-0.6,0.2C116.8,72.4,116.8,72.5,116.7,72.7z"/>
		</g>
		<g>
			<path class="st0" d="M121.6,72.6h-0.5c0-0.2-0.1-0.3-0.2-0.4c-0.1-0.1-0.3-0.2-0.4-0.2c-0.3,0-0.6,0.1-0.8,0.4
				c-0.2,0.3-0.3,0.6-0.3,0.9c0,0.2,0.1,0.4,0.2,0.6c0.1,0.2,0.3,0.2,0.6,0.2c0.2,0,0.4-0.1,0.5-0.2c0.1-0.1,0.3-0.2,0.3-0.4h0.5
				c-0.2,0.7-0.6,1-1.3,1c-0.4,0-0.7-0.1-0.9-0.3c-0.2-0.2-0.3-0.5-0.3-0.9c0-0.5,0.1-0.9,0.4-1.2c0.3-0.4,0.7-0.5,1.2-0.5
				c0.3,0,0.6,0.1,0.8,0.2C121.5,72,121.6,72.2,121.6,72.6z"/>
			<path class="st0" d="M120.1,74.7c-0.4,0-0.8-0.1-1-0.4c-0.2-0.2-0.3-0.6-0.3-1c0-0.5,0.1-1,0.4-1.3c0.3-0.4,0.8-0.6,1.3-0.6
				c0.4,0,0.7,0.1,0.9,0.3c0.2,0.2,0.3,0.5,0.3,0.8c0,0.1-0.1,0.1-0.1,0.1h-0.5c-0.1,0-0.1-0.1-0.1-0.1c0-0.1,0-0.2-0.1-0.3
				c-0.1-0.1-0.2-0.1-0.3-0.1c-0.3,0-0.5,0.1-0.7,0.4c-0.2,0.2-0.3,0.5-0.3,0.8c0,0.2,0,0.4,0.1,0.5c0.1,0.1,0.2,0.2,0.4,0.2
				c0.2,0,0.3,0,0.4-0.1c0.1-0.1,0.2-0.2,0.3-0.4c0-0.1,0.1-0.1,0.1-0.1h0.5c0,0,0.1,0,0.1,0.1c0,0,0,0.1,0,0.1
				C121.4,74.3,120.9,74.7,120.1,74.7z M120.5,71.8c-0.4,0-0.8,0.2-1.1,0.5c-0.2,0.3-0.4,0.7-0.4,1.1c0,0.3,0.1,0.6,0.3,0.8
				c0.2,0.2,0.4,0.3,0.8,0.3c0.6,0,0.9-0.2,1.1-0.7h-0.2c-0.1,0.2-0.2,0.3-0.3,0.4c-0.2,0.1-0.4,0.2-0.6,0.2c-0.3,0-0.5-0.1-0.7-0.3
				c-0.1-0.2-0.2-0.4-0.2-0.7c0-0.4,0.1-0.7,0.3-1c0.2-0.3,0.6-0.5,0.9-0.5c0.2,0,0.4,0.1,0.5,0.2c0.1,0.1,0.2,0.2,0.2,0.4h0.2
				c0-0.2-0.1-0.4-0.2-0.5C121.1,71.8,120.8,71.8,120.5,71.8z"/>
		</g>
		<g>
			<path class="st0" d="M124.6,72.3c0,0.2,0,0.3-0.1,0.6l-0.3,1.6h-0.5l0.4-1.7c0-0.1,0-0.1,0-0.2c0-0.1,0-0.2,0-0.2
				c0-0.1,0-0.2-0.1-0.3c-0.1-0.1-0.2-0.1-0.4-0.1c-0.1,0-0.3,0-0.4,0.1c-0.1,0.1-0.2,0.1-0.3,0.2c-0.1,0.1-0.2,0.3-0.3,0.6
				l-0.3,1.6h-0.5l0.8-3.9h0.5l-0.3,1.5c0.3-0.3,0.6-0.5,1-0.5C124.3,71.6,124.6,71.8,124.6,72.3z"/>
			<path class="st0" d="M124.1,74.7h-0.5c0,0-0.1,0-0.1-0.1c0,0,0-0.1,0-0.1l0.4-1.7c0,0,0-0.1,0-0.2c0-0.1,0-0.2,0-0.2
				c0-0.1,0-0.1-0.1-0.2c-0.1-0.1-0.4-0.1-0.6,0c-0.1,0.1-0.2,0.1-0.3,0.2c-0.1,0.1-0.2,0.3-0.3,0.5l-0.3,1.6c0,0.1-0.1,0.1-0.1,0.1
				h-0.5c0,0-0.1,0-0.1-0.1c0,0,0-0.1,0-0.1l0.8-3.9c0-0.1,0.1-0.1,0.1-0.1h0.5c0,0,0.1,0,0.1,0.1c0,0,0,0.1,0,0.1l-0.2,1.1
				c0.2-0.1,0.5-0.2,0.8-0.2c0.6,0,0.9,0.3,0.9,0.9c0,0.2,0,0.4-0.1,0.6l-0.3,1.6C124.3,74.6,124.2,74.7,124.1,74.7z M123.8,74.4
				h0.2l0.3-1.5c0.1-0.2,0.1-0.4,0.1-0.5c0-0.4-0.2-0.6-0.6-0.6c-0.4,0-0.6,0.1-0.8,0.4c0.1-0.1,0.1-0.1,0.2-0.1
				c0.3-0.1,0.7-0.1,0.9,0c0.1,0.1,0.2,0.2,0.2,0.4c0,0.1,0,0.1,0,0.2c0,0.1,0,0.2,0,0.2L123.8,74.4z M122,74.4h0.1l0.3-1.5
				c0.1-0.3,0.2-0.5,0.4-0.7c0,0-0.1,0-0.1,0c-0.1,0-0.1-0.1-0.1-0.2l0.3-1.3h-0.2L122,74.4z"/>
		</g>
		<g>
			<path class="st0" d="M127.6,72.3c0,0.2,0,0.3-0.1,0.6l-0.3,1.6h-0.5l0.4-1.7c0-0.1,0-0.1,0-0.2c0-0.1,0-0.2,0-0.2
				c0-0.1,0-0.2-0.1-0.3c-0.1-0.1-0.2-0.1-0.4-0.1c-0.1,0-0.3,0-0.4,0.1c-0.1,0.1-0.2,0.1-0.3,0.2c-0.1,0.1-0.2,0.3-0.3,0.6
				l-0.3,1.6h-0.5l0.6-2.8h0.5l-0.1,0.4c0.3-0.3,0.6-0.5,1-0.5C127.4,71.6,127.6,71.8,127.6,72.3z"/>
			<path class="st0" d="M127.2,74.7h-0.5c0,0-0.1,0-0.1-0.1c0,0,0-0.1,0-0.1l0.4-1.7c0,0,0-0.1,0-0.2c0-0.1,0-0.2,0-0.2
				c0-0.1,0-0.1-0.1-0.2c-0.1-0.1-0.4-0.1-0.6,0c-0.1,0.1-0.2,0.1-0.3,0.2c-0.1,0.1-0.2,0.3-0.3,0.5l-0.3,1.6c0,0.1-0.1,0.1-0.1,0.1
				h-0.5c0,0-0.1,0-0.1-0.1c0,0,0-0.1,0-0.1l0.6-2.8c0-0.1,0.1-0.1,0.1-0.1h0.5c0,0,0.1,0,0.1,0.1c0,0,0,0.1,0,0.1
				c0.2-0.1,0.5-0.2,0.8-0.2c0.6,0,0.9,0.3,0.9,0.9c0,0.2,0,0.4-0.1,0.6l-0.3,1.6C127.3,74.6,127.3,74.7,127.2,74.7z M126.9,74.4
				h0.2l0.3-1.5c0.1-0.2,0.1-0.4,0.1-0.5c0-0.4-0.2-0.6-0.6-0.6c-0.3,0-0.6,0.1-0.8,0.3c0.1,0,0.1-0.1,0.2-0.1
				c0.3-0.1,0.7-0.1,0.9,0c0.1,0.1,0.2,0.2,0.2,0.4c0,0.1,0,0.1,0,0.2c0,0.1,0,0.2,0,0.2L126.9,74.4z M125.1,74.4h0.1l0.3-1.5
				c0.1-0.3,0.2-0.5,0.4-0.7c0,0-0.1,0-0.1,0c-0.1,0-0.1-0.1-0.1-0.2l0.1-0.2h-0.1L125.1,74.4z"/>
		</g>
		<g>
			<path class="st0" d="M130.8,72.8c0,0.5-0.1,0.9-0.4,1.3c-0.3,0.4-0.7,0.5-1.2,0.5c-0.4,0-0.7-0.1-0.9-0.3
				c-0.2-0.2-0.3-0.5-0.3-0.9c0-0.5,0.1-0.9,0.4-1.2c0.3-0.4,0.7-0.5,1.2-0.5c0.4,0,0.7,0.1,0.9,0.3
				C130.7,72.1,130.8,72.4,130.8,72.8z M130.4,72.8c0-0.2-0.1-0.4-0.2-0.6c-0.1-0.2-0.3-0.2-0.6-0.2c-0.3,0-0.6,0.2-0.8,0.5
				c-0.2,0.3-0.3,0.6-0.3,0.9c0,0.2,0.1,0.4,0.2,0.6c0.1,0.1,0.3,0.2,0.6,0.2c0.3,0,0.6-0.2,0.8-0.5
				C130.3,73.4,130.4,73.1,130.4,72.8z"/>
			<path class="st0" d="M129.2,74.7c-0.4,0-0.7-0.1-1-0.4c-0.2-0.2-0.4-0.6-0.4-1c0-0.5,0.2-1,0.5-1.3c0.3-0.4,0.8-0.6,1.3-0.6
				c0.4,0,0.8,0.1,1,0.3c0.2,0.2,0.4,0.6,0.4,1c0,0.5-0.1,1-0.4,1.3C130.2,74.5,129.8,74.7,129.2,74.7z M129.6,71.8
				c-0.4,0-0.8,0.2-1.1,0.5c-0.3,0.3-0.4,0.7-0.4,1.1c0,0.3,0.1,0.6,0.3,0.7c0.2,0.2,0.4,0.3,0.8,0.3c0.4,0,0.8-0.2,1.1-0.5
				c0.2-0.3,0.4-0.7,0.4-1.2c0-0.3-0.1-0.6-0.3-0.8C130.2,71.8,130,71.8,129.6,71.8z M129.3,74.3c-0.3,0-0.5-0.1-0.7-0.3
				c-0.2-0.2-0.2-0.4-0.2-0.7c0-0.4,0.1-0.7,0.3-1c0.2-0.4,0.6-0.5,0.9-0.5c0.3,0,0.5,0.1,0.7,0.3c0.1,0.2,0.2,0.4,0.2,0.7
				c0,0.3-0.1,0.7-0.3,1C130,74.1,129.7,74.3,129.3,74.3z M129.6,72.2c-0.3,0-0.5,0.1-0.7,0.4c-0.2,0.3-0.3,0.5-0.3,0.8
				c0,0.2,0.1,0.3,0.2,0.5c0.1,0.1,0.3,0.2,0.5,0.2c0.3,0,0.5-0.1,0.7-0.4c0.2-0.2,0.3-0.5,0.3-0.8c0-0.2-0.1-0.4-0.2-0.5
				C130,72.2,129.8,72.2,129.6,72.2z"/>
		</g>
		<g>
			<path class="st0" d="M132.4,70.6l-0.8,3.9h-0.5l0.8-3.9H132.4z"/>
			<path class="st0" d="M131.6,74.7h-0.5c0,0-0.1,0-0.1-0.1c0,0,0-0.1,0-0.1l0.8-3.9c0-0.1,0.1-0.1,0.1-0.1h0.5c0,0,0.1,0,0.1,0.1
				c0,0,0,0.1,0,0.1l-0.8,3.9C131.7,74.6,131.6,74.7,131.6,74.7z M131.3,74.4h0.1l0.8-3.6H132L131.3,74.4z"/>
		</g>
		<g>
			<path class="st0" d="M135.2,72.8c0,0.5-0.1,0.9-0.4,1.3c-0.3,0.4-0.7,0.5-1.2,0.5c-0.4,0-0.7-0.1-0.9-0.3
				c-0.2-0.2-0.3-0.5-0.3-0.9c0-0.5,0.1-0.9,0.4-1.2c0.3-0.4,0.7-0.5,1.2-0.5c0.4,0,0.7,0.1,0.9,0.3
				C135.1,72.1,135.2,72.4,135.2,72.8z M134.8,72.8c0-0.2-0.1-0.4-0.2-0.6c-0.1-0.2-0.3-0.2-0.6-0.2c-0.3,0-0.6,0.2-0.8,0.5
				c-0.2,0.3-0.3,0.6-0.3,0.9c0,0.2,0.1,0.4,0.2,0.6c0.1,0.1,0.3,0.2,0.6,0.2c0.3,0,0.6-0.2,0.8-0.5
				C134.7,73.4,134.8,73.1,134.8,72.8z"/>
			<path class="st0" d="M133.6,74.7c-0.4,0-0.7-0.1-1-0.4c-0.2-0.2-0.4-0.6-0.4-1c0-0.5,0.2-1,0.5-1.3c0.3-0.4,0.8-0.6,1.3-0.6
				c0.4,0,0.8,0.1,1,0.3c0.2,0.2,0.4,0.6,0.4,1c0,0.5-0.1,1-0.4,1.3C134.6,74.5,134.2,74.7,133.6,74.7z M134,71.8
				c-0.4,0-0.8,0.2-1.1,0.5c-0.3,0.3-0.4,0.7-0.4,1.1c0,0.3,0.1,0.6,0.3,0.7c0.2,0.2,0.4,0.3,0.8,0.3c0.4,0,0.8-0.2,1.1-0.5
				c0.2-0.3,0.4-0.7,0.4-1.2c0-0.3-0.1-0.6-0.3-0.8C134.6,71.8,134.4,71.8,134,71.8z M133.7,74.3c-0.3,0-0.5-0.1-0.7-0.3
				c-0.2-0.2-0.2-0.4-0.2-0.7c0-0.4,0.1-0.7,0.3-1c0.2-0.4,0.6-0.5,0.9-0.5c0.3,0,0.5,0.1,0.7,0.3c0.1,0.2,0.2,0.4,0.2,0.7
				c0,0.3-0.1,0.7-0.3,1C134.4,74.1,134.1,74.3,133.7,74.3z M134,72.2c-0.3,0-0.5,0.1-0.7,0.4c-0.2,0.3-0.3,0.5-0.3,0.8
				c0,0.2,0.1,0.3,0.2,0.5c0.1,0.1,0.3,0.2,0.5,0.2c0.3,0,0.5-0.1,0.7-0.4c0.2-0.2,0.3-0.5,0.3-0.8c0-0.2-0.1-0.4-0.2-0.5
				C134.4,72.2,134.2,72.2,134,72.2z"/>
		</g>
		<g>
			<path class="st0" d="M138.6,71.7l-0.5,2.4c0,0.1-0.1,0.2-0.1,0.3c0,0.1,0,0.1,0,0.1l-0.1,0.4c-0.1,0.3-0.3,0.5-0.5,0.6
				c-0.2,0.1-0.5,0.2-0.8,0.2c-0.3,0-0.6-0.1-0.8-0.2c-0.2-0.2-0.3-0.4-0.3-0.7h0.5c0,0.2,0.1,0.3,0.2,0.4c0.1,0.1,0.3,0.1,0.5,0.1
				c0.3,0,0.6-0.1,0.7-0.4c0.1-0.2,0.2-0.4,0.3-0.8c-0.1,0.1-0.2,0.2-0.4,0.3c-0.2,0.1-0.3,0.1-0.5,0.1c-0.4,0-0.6-0.1-0.8-0.3
				c-0.2-0.2-0.3-0.5-0.3-0.9c0-0.4,0.1-0.8,0.4-1.2c0.3-0.4,0.6-0.6,1.1-0.6c0.2,0,0.4,0.1,0.6,0.2c0.2,0.1,0.3,0.2,0.3,0.4l0,0
				l0.1-0.5H138.6z M137.8,72.7c0-0.2-0.1-0.4-0.2-0.5c-0.1-0.1-0.3-0.2-0.5-0.2c-0.3,0-0.6,0.2-0.8,0.5c-0.2,0.3-0.3,0.6-0.3,0.9
				c0,0.2,0.1,0.4,0.2,0.5c0.1,0.2,0.3,0.2,0.5,0.2c0.3,0,0.6-0.2,0.8-0.5C137.8,73.4,137.8,73.1,137.8,72.7z"/>
			<path class="st0" d="M136.5,75.8c-0.4,0-0.6-0.1-0.9-0.2c-0.3-0.2-0.4-0.5-0.4-0.8c0-0.1,0.1-0.1,0.1-0.1h0.5c0,0,0.1,0,0.1,0
				c0,0,0,0.1,0,0.1c0,0.1,0,0.2,0.1,0.2c0.1,0,0.3,0.1,0.4,0.1c0.3,0,0.5-0.1,0.6-0.3c0-0.1,0.1-0.2,0.1-0.3c0,0,0,0,0,0
				c-0.2,0.1-0.4,0.1-0.6,0.1c-0.4,0-0.7-0.1-0.9-0.4c-0.2-0.2-0.3-0.6-0.3-1c0-0.5,0.1-0.9,0.4-1.3c0.3-0.4,0.7-0.6,1.2-0.6
				c0.2,0,0.5,0.1,0.7,0.2c0.1,0,0.1,0.1,0.2,0.1l0-0.1c0-0.1,0.1-0.1,0.1-0.1h0.4c0,0,0.1,0,0.1,0.1c0,0,0,0.1,0,0.1l-0.5,2.4
				c0,0.1-0.1,0.2-0.1,0.3c0,0.1,0,0.1,0,0.1l-0.1,0.4c-0.1,0.3-0.3,0.5-0.6,0.7C137.2,75.7,136.9,75.8,136.5,75.8z M135.6,74.9
				c0,0.2,0.1,0.3,0.3,0.4c0.2,0.1,0.4,0.2,0.7,0.2c0.3,0,0.5-0.1,0.7-0.2c0.2-0.1,0.3-0.3,0.4-0.5l0.1-0.3c0,0,0-0.1,0-0.1
				c0-0.1,0-0.2,0.1-0.3l0.5-2.3h-0.1l-0.1,0.4c0,0.1,0,0.1-0.1,0.1c-0.1,0-0.1,0-0.2,0c0,0,0-0.1-0.1-0.1c0-0.1-0.1-0.2-0.3-0.3
				c-0.2-0.1-0.3-0.1-0.5-0.1c-0.4,0-0.7,0.2-1,0.5c-0.2,0.3-0.4,0.7-0.4,1.1c0,0.3,0.1,0.6,0.2,0.8c0.2,0.2,0.4,0.3,0.7,0.3
				c0.2,0,0.3,0,0.5-0.1c0.1-0.1,0.2-0.1,0.3-0.3c0-0.1,0.1-0.1,0.2,0c0.1,0,0.1,0.1,0.1,0.2c-0.1,0.4-0.2,0.7-0.3,0.8
				c-0.2,0.3-0.5,0.4-0.9,0.4c-0.2,0-0.4,0-0.6-0.1c-0.2-0.1-0.3-0.2-0.3-0.4H135.6z M136.8,74.3c-0.3,0-0.5-0.1-0.6-0.3
				c-0.1-0.2-0.2-0.4-0.2-0.6c0-0.3,0.1-0.7,0.3-0.9c0.2-0.4,0.5-0.5,0.9-0.5c0.3,0,0.5,0.1,0.7,0.2c0.1,0.2,0.2,0.4,0.2,0.6
				c0,0.4-0.1,0.7-0.3,1C137.5,74.1,137.2,74.3,136.8,74.3z M137.1,72.2c-0.2,0-0.5,0.1-0.6,0.4c-0.2,0.2-0.2,0.5-0.2,0.8
				c0,0.2,0,0.3,0.2,0.4c0.1,0.1,0.2,0.2,0.4,0.2c0.3,0,0.5-0.1,0.7-0.4c0.2-0.2,0.2-0.5,0.2-0.8c0-0.2,0-0.3-0.1-0.4
				C137.5,72.2,137.3,72.2,137.1,72.2z"/>
		</g>
		<g>
			<path class="st0" d="M141.5,71.7l-1.9,3.3c-0.1,0.2-0.3,0.4-0.4,0.5c-0.2,0.1-0.3,0.2-0.5,0.2c-0.1,0-0.1,0-0.2,0
				c0,0-0.1,0-0.2-0.1l0.1-0.4c0.1,0.1,0.2,0.1,0.3,0.1c0.1,0,0.2,0,0.2-0.1c0.1-0.1,0.1-0.1,0.2-0.2l0.3-0.5l-0.5-2.9h0.5l0.3,2.3
				l1.2-2.3H141.5z"/>
			<path class="st0" d="M138.7,75.8c-0.1,0-0.1,0-0.2,0c-0.1,0-0.1,0-0.2-0.1c-0.1,0-0.1-0.1-0.1-0.2l0.1-0.4c0-0.1,0-0.1,0.1-0.1
				c0,0,0.1,0,0.1,0c0.1,0.1,0.2,0.1,0.3,0c0.1,0,0.1-0.1,0.2-0.2l0.3-0.4l-0.5-2.8c0,0,0-0.1,0-0.1c0,0,0.1-0.1,0.1-0.1h0.5
				c0.1,0,0.1,0.1,0.1,0.1l0.3,1.8l1-1.9c0,0,0.1-0.1,0.1-0.1h0.5c0.1,0,0.1,0,0.1,0.1c0,0,0,0.1,0,0.1l-1.9,3.3
				c-0.2,0.2-0.3,0.4-0.4,0.5C139.1,75.7,138.9,75.8,138.7,75.8z M138.5,75.5C138.5,75.5,138.5,75.5,138.5,75.5c0.1,0,0.1,0,0.2,0
				c0.2,0,0.3-0.1,0.4-0.2c0.1-0.1,0.2-0.2,0.3-0.4l1.8-3.1h-0.2l-1.2,2.2c0,0.1-0.1,0.1-0.2,0.1c-0.1,0-0.1-0.1-0.1-0.1l-0.3-2.1
				h-0.2l0.5,2.7c0,0,0,0.1,0,0.1l-0.3,0.5c-0.1,0.1-0.1,0.2-0.2,0.3C138.9,75.4,138.7,75.5,138.5,75.5L138.5,75.5z"/>
		</g>
		<g>
			<path class="st0" d="M147.3,71.8h-0.5c0-0.3-0.1-0.5-0.3-0.7c-0.2-0.2-0.4-0.2-0.7-0.2c-0.5,0-0.9,0.2-1.2,0.6
				c-0.3,0.4-0.4,0.8-0.4,1.3c0,0.4,0.1,0.7,0.3,0.9s0.5,0.3,0.9,0.3c0.3,0,0.6-0.1,0.8-0.3c0.2-0.2,0.4-0.4,0.4-0.7h0.5
				c-0.1,0.5-0.3,0.8-0.6,1.1c-0.3,0.2-0.7,0.4-1.2,0.4c-0.5,0-1-0.1-1.3-0.4c-0.3-0.3-0.4-0.7-0.4-1.3c0-0.7,0.2-1.2,0.6-1.7
				c0.4-0.5,0.9-0.7,1.6-0.7c0.5,0,0.8,0.1,1.1,0.3C147.2,71.1,147.3,71.4,147.3,71.8z"/>
			<path class="st0" d="M145.3,74.7c-0.6,0-1-0.2-1.4-0.5c-0.3-0.3-0.5-0.8-0.5-1.4c0-0.7,0.2-1.3,0.6-1.8c0.4-0.5,1-0.8,1.7-0.8
				c0.5,0,0.9,0.1,1.2,0.4c0.3,0.3,0.5,0.7,0.5,1.1c0,0.1-0.1,0.1-0.1,0.1h-0.5c-0.1,0-0.1-0.1-0.1-0.1c0-0.3-0.1-0.4-0.2-0.6
				c-0.1-0.1-0.3-0.2-0.6-0.2c-0.5,0-0.8,0.2-1.1,0.6c-0.3,0.3-0.4,0.8-0.4,1.3c0,0.4,0.1,0.6,0.3,0.8c0.2,0.2,0.4,0.3,0.8,0.3
				c0.3,0,0.5-0.1,0.7-0.2c0.2-0.1,0.3-0.4,0.4-0.7c0-0.1,0.1-0.1,0.1-0.1h0.5c0,0,0.1,0,0.1,0.1c0,0,0,0.1,0,0.1
				c-0.1,0.5-0.3,0.9-0.6,1.1C146.3,74.6,145.9,74.7,145.3,74.7z M145.8,70.6c-0.6,0-1.1,0.2-1.5,0.7c-0.4,0.4-0.5,1-0.5,1.6
				c0,0.5,0.1,0.9,0.4,1.2c0.3,0.3,0.6,0.4,1.1,0.4c0.5,0,0.8-0.1,1.1-0.3c0.2-0.2,0.4-0.5,0.5-0.8h-0.2c-0.1,0.3-0.3,0.5-0.5,0.7
				c-0.2,0.2-0.5,0.3-0.9,0.3c-0.4,0-0.8-0.1-1-0.4c-0.2-0.3-0.3-0.6-0.3-1c0-0.6,0.1-1,0.4-1.4c0.3-0.4,0.8-0.7,1.4-0.7
				c0.3,0,0.6,0.1,0.8,0.3c0.2,0.2,0.3,0.4,0.3,0.7h0.2c0-0.3-0.2-0.6-0.4-0.8C146.5,70.7,146.2,70.6,145.8,70.6z"/>
		</g>
		<g>
			<path class="st0" d="M150.3,72.8c0,0.5-0.1,0.9-0.4,1.3c-0.3,0.4-0.7,0.5-1.2,0.5c-0.4,0-0.7-0.1-0.9-0.3
				c-0.2-0.2-0.3-0.5-0.3-0.9c0-0.5,0.1-0.9,0.4-1.2c0.3-0.4,0.7-0.5,1.2-0.5c0.4,0,0.7,0.1,0.9,0.3
				C150.2,72.1,150.3,72.4,150.3,72.8z M149.8,72.8c0-0.2-0.1-0.4-0.2-0.6c-0.1-0.2-0.3-0.2-0.6-0.2c-0.3,0-0.6,0.2-0.8,0.5
				c-0.2,0.3-0.3,0.6-0.3,0.9c0,0.2,0.1,0.4,0.2,0.6c0.1,0.1,0.3,0.2,0.6,0.2c0.3,0,0.6-0.2,0.8-0.5
				C149.7,73.4,149.8,73.1,149.8,72.8z"/>
			<path class="st0" d="M148.7,74.7c-0.4,0-0.7-0.1-1-0.4c-0.2-0.2-0.4-0.6-0.4-1c0-0.5,0.2-1,0.5-1.3c0.3-0.4,0.8-0.6,1.3-0.6
				c0.4,0,0.8,0.1,1,0.3c0.2,0.2,0.4,0.6,0.4,1c0,0.5-0.1,1-0.4,1.3C149.7,74.5,149.3,74.7,148.7,74.7z M149.1,71.8
				c-0.4,0-0.8,0.2-1.1,0.5c-0.3,0.3-0.4,0.7-0.4,1.1c0,0.3,0.1,0.6,0.3,0.7c0.2,0.2,0.4,0.3,0.8,0.3c0.4,0,0.8-0.2,1.1-0.5
				c0.2-0.3,0.4-0.7,0.4-1.2c0-0.3-0.1-0.6-0.3-0.8C149.7,71.8,149.5,71.8,149.1,71.8z M148.8,74.3c-0.3,0-0.5-0.1-0.7-0.3
				c-0.2-0.2-0.2-0.4-0.2-0.7c0-0.4,0.1-0.7,0.3-1c0.2-0.4,0.6-0.5,0.9-0.5c0.3,0,0.5,0.1,0.7,0.3c0.1,0.2,0.2,0.4,0.2,0.7
				c0,0.3-0.1,0.7-0.3,1C149.5,74.1,149.1,74.3,148.8,74.3z M149.1,72.2c-0.3,0-0.5,0.1-0.7,0.4c-0.2,0.3-0.3,0.5-0.3,0.8
				c0,0.2,0.1,0.3,0.2,0.5c0.1,0.1,0.3,0.2,0.5,0.2c0.3,0,0.5-0.1,0.7-0.4c0.2-0.2,0.3-0.5,0.3-0.8c0-0.2-0.1-0.4-0.2-0.5
				C149.4,72.2,149.3,72.2,149.1,72.2z"/>
		</g>
		<g>
			<path class="st0" d="M151.4,73.9l-0.1,0.6h-0.6l0.1-0.6H151.4z"/>
			<path class="st0" d="M151.3,74.7h-0.6c0,0-0.1,0-0.1-0.1c0,0,0-0.1,0-0.1l0.1-0.6c0-0.1,0.1-0.1,0.1-0.1h0.6c0,0,0.1,0,0.1,0.1
				c0,0,0,0.1,0,0.1l-0.1,0.6C151.4,74.6,151.4,74.7,151.3,74.7z M150.9,74.4h0.3l0.1-0.3h-0.3L150.9,74.4z"/>
		</g>
		<g>
			<path class="st0" d="M153,73.9c0,0.1-0.1,0.2-0.1,0.4c0,0.1,0,0.2-0.1,0.3c-0.1,0.4-0.4,0.7-0.8,0.7l0.1-0.3
				c0.1,0,0.2-0.1,0.3-0.2c0,0,0-0.1,0.1-0.1c0-0.1,0-0.1,0.1-0.2h-0.3l0.1-0.6H153z"/>
			<path class="st0" d="M152.1,75.5c0,0-0.1,0-0.1-0.1c0,0,0-0.1,0-0.1L152,75c0-0.1,0.1-0.1,0.1-0.1c0.1,0,0.1,0,0.2-0.1
				c0,0,0-0.1,0.1-0.1h-0.1c0,0-0.1,0-0.1-0.1c0,0,0-0.1,0-0.1l0.1-0.6c0-0.1,0.1-0.1,0.1-0.1h0.6c0,0,0.1,0,0.1,0.1s0,0.1,0,0.1
				c0,0.1-0.1,0.2-0.1,0.3c0,0.1,0,0.2-0.1,0.3C152.8,75.3,152.4,75.4,152.1,75.5C152.1,75.5,152.1,75.5,152.1,75.5z M152.4,74.4
				h0.1c0,0,0.1,0,0.1,0.1c0,0,0,0.1,0,0.1c0-0.1,0-0.2,0.1-0.3c0-0.1,0-0.1,0-0.2h-0.3L152.4,74.4z"/>
		</g>
		<g>
			<path class="st0" d="M156.4,74.1l-0.1,0.4h-2.6l0.8-3.9h0.5l-0.7,3.5H156.4z"/>
			<path class="st0" d="M156.3,74.7h-2.6c0,0-0.1,0-0.1-0.1c0,0,0-0.1,0-0.1l0.8-3.9c0-0.1,0.1-0.1,0.1-0.1h0.5c0,0,0.1,0,0.1,0.1
				c0,0,0,0.1,0,0.1l-0.7,3.3h1.9c0,0,0.1,0,0.1,0.1c0,0,0,0.1,0,0.1l-0.1,0.4C156.4,74.6,156.4,74.7,156.3,74.7z M153.9,74.4h2.3
				l0-0.1h-1.9c0,0-0.1,0-0.1-0.1c0,0,0-0.1,0-0.1l0.7-3.3h-0.2L153.9,74.4z"/>
		</g>
		<g>
			<path class="st0" d="M158.5,71.7l-0.1,0.4h-0.6l-0.4,1.7l0,0.2c0,0.1,0,0.1,0.1,0.2c0.1,0,0.1,0,0.2,0c0.1,0,0.2,0,0.3,0
				l-0.1,0.4c0,0-0.1,0-0.2,0c-0.1,0-0.1,0-0.2,0c-0.2,0-0.4,0-0.5-0.1c-0.1-0.1-0.2-0.2-0.2-0.4l0-0.2l0.4-1.8h-0.5l0.1-0.4h0.5
				l0.2-0.9h0.5l-0.2,0.9H158.5z"/>
			<path class="st0" d="M157.6,74.7c-0.2,0-0.4,0-0.5-0.1c-0.2-0.1-0.3-0.3-0.3-0.5l0-0.3l0.3-1.6h-0.3c0,0-0.1,0-0.1-0.1
				s0-0.1,0-0.1l0.1-0.4c0-0.1,0.1-0.1,0.1-0.1h0.4l0.2-0.7c0-0.1,0.1-0.1,0.1-0.1h0.5c0,0,0.1,0,0.1,0.1c0,0,0,0.1,0,0.1l-0.1,0.7
				h0.4c0,0,0.1,0,0.1,0.1c0,0,0,0.1,0,0.1l-0.1,0.4c0,0.1-0.1,0.1-0.1,0.1H158l-0.3,1.6l0,0.2c0.1,0,0.2,0,0.4,0c0,0,0.1,0,0.1,0
				c0,0,0.1,0.1,0,0.1l-0.1,0.4c0,0.1-0.1,0.1-0.1,0.1c0,0-0.1,0-0.2,0C157.8,74.7,157.7,74.7,157.6,74.7z M157.1,71.9h0.3
				c0,0,0.1,0,0.1,0.1c0,0,0,0.1,0,0.1l-0.4,1.8l0,0.2c0,0.1,0,0.2,0.1,0.2c0,0,0.1,0.1,0.4,0.1c0.1,0,0.1,0,0.2,0c0,0,0,0,0,0
				l0-0.1c-0.1,0-0.2,0-0.3,0c-0.1,0-0.2-0.2-0.2-0.3l0-0.2l0.4-1.7c0-0.1,0.1-0.1,0.1-0.1h0.4l0-0.1H158c0,0-0.1,0-0.1-0.1
				c0,0,0-0.1,0-0.1l0.1-0.7h-0.2l-0.2,0.7c0,0.1-0.1,0.1-0.1,0.1h-0.4L157.1,71.9z"/>
		</g>
		<g>
			<path class="st0" d="M161.8,70.6l-0.8,3.9h-0.4l0.1-0.4c-0.1,0.2-0.3,0.3-0.4,0.4c-0.1,0.1-0.3,0.1-0.5,0.1
				c-0.4,0-0.6-0.1-0.8-0.3s-0.3-0.5-0.3-0.8c0-0.5,0.1-0.9,0.4-1.2c0.3-0.4,0.7-0.6,1.2-0.6c0.2,0,0.4,0,0.5,0.1
				c0.2,0.1,0.3,0.2,0.4,0.4l0.3-1.5H161.8z M160.9,72.7c0-0.2-0.1-0.4-0.2-0.5c-0.1-0.1-0.3-0.2-0.5-0.2c-0.3,0-0.6,0.2-0.8,0.5
				c-0.2,0.3-0.3,0.6-0.3,0.9c0,0.2,0.1,0.4,0.2,0.6c0.1,0.1,0.3,0.2,0.6,0.2c0.3,0,0.6-0.2,0.8-0.5
				C160.8,73.4,160.9,73.1,160.9,72.7z"/>
			<path class="st0" d="M159.7,74.7c-0.4,0-0.7-0.1-0.9-0.4c-0.2-0.2-0.3-0.6-0.3-0.9c0-0.5,0.2-0.9,0.4-1.3
				c0.3-0.4,0.8-0.6,1.3-0.6c0.2,0,0.4,0,0.6,0.1c0.1,0,0.2,0.1,0.2,0.1l0.2-1.2c0-0.1,0.1-0.1,0.1-0.1h0.5c0,0,0.1,0,0.1,0.1
				c0,0,0,0.1,0,0.1l-0.8,3.9c0,0.1-0.1,0.1-0.1,0.1h-0.4c0,0-0.1,0-0.1-0.1c0,0,0,0,0-0.1c0,0-0.1,0-0.1,0.1
				C160.1,74.7,159.9,74.7,159.7,74.7z M160.2,71.8c-0.4,0-0.8,0.2-1.1,0.5c-0.3,0.3-0.4,0.7-0.4,1.1c0,0.3,0.1,0.6,0.3,0.7
				c0.2,0.2,0.4,0.3,0.7,0.3c0.2,0,0.3,0,0.5-0.1c0.1-0.1,0.2-0.2,0.4-0.3c0-0.1,0.1-0.1,0.2,0c0.1,0,0.1,0.1,0.1,0.2l-0.1,0.2h0.1
				l0.8-3.6h-0.2l-0.3,1.4c0,0.1-0.1,0.1-0.1,0.1c-0.1,0-0.1,0-0.1-0.1c0-0.1-0.1-0.2-0.3-0.3C160.5,71.8,160.3,71.8,160.2,71.8z
				 M159.8,74.3c-0.3,0-0.5-0.1-0.7-0.2c-0.1-0.2-0.2-0.4-0.2-0.7c0-0.4,0.1-0.7,0.3-1c0.2-0.4,0.6-0.5,1-0.5c0.3,0,0.5,0.1,0.6,0.3
				c0.1,0.2,0.2,0.4,0.2,0.6c0,0.4-0.1,0.7-0.3,1C160.5,74.1,160.1,74.3,159.8,74.3z M160.2,72.2c-0.3,0-0.5,0.1-0.7,0.4
				c-0.2,0.3-0.3,0.5-0.3,0.9c0,0.2,0,0.4,0.1,0.5c0.1,0.1,0.2,0.1,0.4,0.1c0.3,0,0.5-0.1,0.7-0.4c0.2-0.3,0.3-0.6,0.3-0.8
				c0-0.2,0-0.3-0.1-0.4C160.5,72.2,160.4,72.2,160.2,72.2z"/>
		</g>
		<g>
			<path class="st0" d="M162.6,73.9l-0.1,0.6h-0.6l0.1-0.6H162.6z"/>
			<path class="st0" d="M162.4,74.7h-0.6c0,0-0.1,0-0.1-0.1c0,0,0-0.1,0-0.1l0.1-0.6c0-0.1,0.1-0.1,0.1-0.1h0.6c0,0,0.1,0,0.1,0.1
				c0,0,0,0.1,0,0.1l-0.1,0.6C162.6,74.6,162.5,74.7,162.4,74.7z M162,74.4h0.3l0.1-0.3h-0.3L162,74.4z"/>
		</g>
	</g>
</g>
</svg>
