<?xml version="1.0" encoding="utf-8"?>
<!-- Generator: Adobe Illustrator 22.1.0, SVG Export Plug-In . SVG Version: 6.00 Build 0)  -->
<svg version="1.1" id="Layer_1" xmlns="http://www.w3.org/2000/svg" xmlns:xlink="http://www.w3.org/1999/xlink" x="0px" y="0px"
	 viewBox="0 0 75 17" style="enable-background:new 0 0 75 17;" xml:space="preserve">
<style type="text/css">
	.st0{clip-path:url(#SVGID_2_);fill:#FFFFFF;}
	.st1{clip-path:url(#SVGID_2_);fill:#BD0034;}
	.st2{clip-path:url(#SVGID_2_);fill:#1A237B;}
	.st3{fill:#FFFFFF;}
</style>
<g>
	<g id="UNITED_KINGDOM_2_">
		<g>
			<g>
				<defs>
					<rect id="SVGID_1_" x="48.5" y="0.9" width="26.5" height="15.5"/>
				</defs>
				<clipPath id="SVGID_2_">
					<use xlink:href="#SVGID_1_"  style="overflow:visible;"/>
				</clipPath>
				<rect x="48.5" y="0.9" class="st0" width="26.5" height="15.5"/>
				<polygon class="st1" points="66.2,6.5 75,1.6 75,0.9 74.4,0.9 64.4,6.5 				"/>
				<polygon class="st1" points="65.8,11.2 75,16.3 75,15.3 67.7,11.2 				"/>
				<polygon class="st1" points="48.5,2.1 56.3,6.5 58.2,6.5 48.5,1.1 				"/>
				<polygon class="st1" points="57.8,11.2 48.5,16.4 48.5,16.5 50.2,16.5 59.6,11.2 				"/>
				<polygon class="st2" points="73.2,0.9 63.9,0.9 63.9,6.1 				"/>
				<polygon class="st2" points="59.8,0.9 50.6,0.9 59.8,6.1 				"/>
				<polygon class="st2" points="75,6.5 75,3 68.7,6.5 				"/>
				<polygon class="st2" points="75,14.7 75,11.2 68.7,11.2 				"/>
				<polygon class="st2" points="51.1,16.5 59.8,16.5 59.8,11.5 				"/>
				<polygon class="st2" points="63.9,16.5 72.7,16.5 63.9,11.5 				"/>
				<polygon class="st2" points="48.5,11.2 48.5,14.8 55,11.2 				"/>
				<polygon class="st2" points="48.5,6.5 55,6.5 48.5,2.8 				"/>
				<polygon class="st1" points="60.6,0.9 60.6,7.5 48.5,7.5 48.5,10.2 60.6,10.2 60.6,16.5 63.1,16.5 63.1,10.2 75,10.2 75,7.5 
					63.1,7.5 63.1,0.9 				"/>
			</g>
		</g>
	</g>
	<g>
		<g>
			<path class="st3" d="M0.2,14.3V4.6c0-1,0.6-1.6,1.5-1.6h7.2c0.9,0,1.4,0.4,1.4,1.2v0.1c0,0.8-0.4,1.2-1.4,1.2H3.1v2.7h4.2
				c1,0,1.4,0.4,1.4,1.1v0.1c0,0.8-0.4,1.1-1.4,1.1H3.1v3H9c0.9,0,1.3,0.3,1.3,1.1v0.1c0,0.8-0.4,1.2-1.3,1.2H1.7
				C0.7,15.9,0.2,15.3,0.2,14.3z"/>
			<path class="st3" d="M12.1,14.6V4.3c0-0.9,0.5-1.5,1.3-1.5h0.4c0.8,0,1,0.3,1.5,0.8l5.6,7.7V4.2c0-0.9,0.4-1.3,1.3-1.3h0.3
				c0.8,0,1.2,0.5,1.2,1.3v10.3c0,1-0.5,1.5-1.3,1.5h-0.2c-0.8,0-1-0.2-1.4-0.7l-5.8-8v7.4c0,0.9-0.4,1.3-1.3,1.3h-0.3
				C12.5,16,12.1,15.5,12.1,14.6z"/>
			<path class="st3" d="M38.2,10.2v5.5c0,0.1-0.5,0.3-1,0.3c-0.7,0-1.3-0.3-1.5-1.5c0-0.1,0-0.2,0-0.3c-0.7,1.2-2.1,2-4.1,2
				c-3.7,0-6.1-2.8-6.1-6.7c0-3.9,2.8-6.8,6.8-6.8c1.6,0,2.8,0.4,3.7,0.9c0.9,0.5,1.3,1.2,1.3,1.9c0,1.2-1.4,1.5-1.5,1.4
				c-0.7-1.1-2-1.7-3.3-1.7c-2.3,0-4,1.7-4,4.3c0,2.6,1.5,4.3,3.8,4.3c1.7,0,2.9-0.9,3.2-2.2l0.1-0.6h-2.2c-0.9,0-1.4-0.3-1.4-1.1
				V9.9c0-0.8,0.5-1.1,1.4-1.1h3.6C37.9,8.8,38.2,9.3,38.2,10.2z"/>
		</g>
	</g>
</g>
</svg>
