<?xml version="1.0" encoding="utf-8"?>
<!-- Generator: Adobe Illustrator 22.1.0, SVG Export Plug-In . SVG Version: 6.00 Build 0)  -->
<svg version="1.1" id="Layer_1" xmlns="http://www.w3.org/2000/svg" xmlns:xlink="http://www.w3.org/1999/xlink" x="0px" y="0px"
	 viewBox="0 0 68 20" style="enable-background:new 0 0 68 20;" xml:space="preserve">
<style type="text/css">
	.st0{clip-path:url(#SVGID_2_);fill:#CB0028;}
	.st1{clip-path:url(#SVGID_2_);fill:#FFFFFF;}
	.st2{clip-path:url(#SVGID_2_);fill:#1A237B;}
	.st3{fill:#FFFFFF;}
</style>
<g>
	<g id="THAILAND_1_">
		<g>
			<g>
				<defs>
					<rect id="SVGID_1_" x="0.1" y="3.8" width="26.9" height="15.7"/>
				</defs>
				<clipPath id="SVGID_2_">
					<use xlink:href="#SVGID_1_"  style="overflow:visible;"/>
				</clipPath>
				<rect x="0.1" y="3.8" class="st0" width="26.9" height="15.7"/>
				<rect x="0.1" y="6.5" class="st1" width="26.9" height="10.5"/>
				<rect x="0.1" y="9.1" class="st2" width="26.9" height="5.2"/>
			</g>
		</g>
	</g>
	<g>
		<path class="st3" d="M37.9,17.9V6.2l2.5-2.9V2.5l-0.2-0.2h-0.8l-1.6,1.5l-1.6-1.5h-1.3V0.4h1.8l1.2,1.2L39,0.4h2.4l1.1,1.1l0,2.2
			l-2.4,2.9V14L40,14.8h1.2l1.3,1.4v1.7l-1.4,1.4h-2L37.9,17.9z M40.6,17.8l0.4-0.4v-0.8l-0.4-0.4h-0.8l-0.4,0.4v0.8l0.4,0.4H40.6z"
			/>
		<path class="st3" d="M45.8,13.3l0.1-0.8h-1.2l-1.3-1.3V9.4l1.3-1.4h1.9l1.3,1.4v6h0l2.7-7.3h2.1l1.8,1.9v9.3h-2.3v-8.6l-0.5-0.6
			h-0.2l-3.6,9.2h-2.3V13.3z M46,11.1l0.4-0.4V9.9L46,9.5h-0.8l-0.4,0.4v0.8l0.4,0.4H46z"/>
		<path class="st3" d="M66.9,8.1v9.4l-1.7,1.7h-6l-1.7-1.7v-2l1.5-1.2l-1.5-1.2V9.6L59,8.1H61l1.3,1.4V11l-1.2,1.3h-1.4l-0.1-0.1
			v0.5l1.1,0.8h2.2v1.6h-2.1l-0.9,0.8v0.8l0.5,0.5h3.7l0.6-0.6V8.1H66.9z M59.2,10.6l0.4,0.4h0.7l0.4-0.4V9.8l-0.4-0.4h-0.7
			l-0.4,0.4V10.6z"/>
	</g>
</g>
</svg>
