<?xml version="1.0" encoding="utf-8"?>
<!-- Generator: Adobe Illustrator 22.1.0, SVG Export Plug-In . SVG Version: 6.00 Build 0)  -->
<svg version="1.1" id="Layer_1" xmlns="http://www.w3.org/2000/svg" xmlns:xlink="http://www.w3.org/1999/xlink" x="0px" y="0px"
	 viewBox="0 0 28.8 28.5" style="enable-background:new 0 0 28.8 28.5;" xml:space="preserve">
<style type="text/css">
	.st0{fill:#FFFFFF;}
	.st1{fill:#999999;}
	.st2{fill:none;stroke:#999999;stroke-width:0.5;stroke-miterlimit:10;}
</style>
<g>
	<g>
		<g>
			<path class="st0" d="M24,23.7C18.9,29,10.3,29.1,5,24c-5.3-5.2-5.5-13.7-0.3-19c5.2-5.3,13.7-5.5,19-0.3
				C29,9.8,29.2,18.3,24,23.7z"/>
			<path class="st1" d="M12.2,1.2L12.2,1.2l-0.1,0l0,0C12.1,1.2,12.2,1.2,12.2,1.2z M11.7,1.3L11.7,1.3L11.7,1.3c0,0-0.1,0-0.1,0
				C11.6,1.3,11.6,1.3,11.7,1.3l-0.1,0L11.7,1.3L11.7,1.3L11.7,1.3L11.7,1.3l-0.2,0l0,0l-0.1,0c0,0,0,0,0.1,0l0,0c0,0,0,0-0.1,0h0
				l0,0l0,0l0,0l0,0l0,0l0.1,0l0.2,0L11.7,1.3L11.7,1.3L11.7,1.3c0.1,0,0.2,0,0.2,0l0,0l0,0l0,0l0.1,0c0,0,0,0,0.1,0l0,0l0.1,0
				l0.1,0l0.1,0l0,0l0,0c0.1,0,0.1,0,0.2,0l0,0c0,0,0.1,0,0.1,0l0,0c0,0,0.1,0,0.1,0c-0.1,0-0.2,0-0.3,0c-0.2,0-0.4,0.1-0.4,0.1
				c0,0,0,0,0.1,0c0,0-0.1,0-0.1,0c0,0-0.1,0-0.1,0l-0.1,0c0,0-0.1,0-0.1,0c0,0,0,0,0,0l0,0L11.7,1.3L11.7,1.3L11.7,1.3z M12.2,1.2
				L12.2,1.2C12.2,1.2,12.2,1.2,12.2,1.2L12.2,1.2L12.2,1.2z M12,1.2L12,1.2L12,1.2L12,1.2z M12.1,1.2c0,0-0.1,0-0.1,0L12.1,1.2
				L12.1,1.2z M10.5,1.6L10.5,1.6L10.5,1.6L10.5,1.6l0.1,0l0,0h0C10.6,1.5,10.6,1.6,10.5,1.6l0.1,0l0.1,0l0,0l0,0l-0.1,0L10.5,1.6
				L10.5,1.6L10.5,1.6L10.5,1.6L10.5,1.6z M10.6,1.6C10.6,1.6,10.6,1.6,10.6,1.6L10.6,1.6L10.6,1.6z M12.3,1.2l-0.1,0l0,0
				C12.1,1.2,12.2,1.2,12.3,1.2L12.3,1.2z M13.2,1.1C13.2,1.1,13.2,1.1,13.2,1.1L13.2,1.1L13.2,1.1C13.1,1.1,13.1,1.1,13.2,1.1
				C13.2,1.1,13.2,1.1,13.2,1.1z M11.3,1.4L11.3,1.4L11.3,1.4l-0.1,0l0,0L11.3,1.4L11.3,1.4L11.3,1.4L11.3,1.4L11.3,1.4z M11.6,1.3
				c0.1,0,0.1,0,0.2,0l0.1,0l0,0l-0.1,0C11.8,1.3,11.8,1.3,11.6,1.3C11.7,1.3,11.7,1.3,11.6,1.3L11.6,1.3L11.6,1.3L11.6,1.3
				L11.6,1.3C11.6,1.3,11.6,1.3,11.6,1.3z M10.8,1.5L10.8,1.5L10.8,1.5c0.1,0,0.2,0,0.3-0.1C11.1,1.4,11,1.4,10.8,1.5l0.1,0l0.1,0
				l0.1,0c-0.1,0-0.1,0-0.2,0l0,0l0.1,0l0.1,0l0,0v0l0,0l0.1,0c0,0,0.1,0,0.1,0l0.1,0l0,0c0,0,0,0,0,0l0,0l0,0l0,0l-0.2,0
				c0,0,0.1,0,0.1,0c0,0,0.1,0,0.1,0l0.1,0l0.1,0c0,0,0,0,0.1,0l0,0l0,0l0,0l0.1,0c0,0,0,0-0.1,0l0,0l0,0l0.1,0l0.1,0l0,0
				c0,0,0.1,0,0.1,0l0,0h0c0,0,0.1,0,0.1,0l0,0h0l0,0l0.1,0l0,0l0,0h0c0.1,0,0.1,0,0.2,0l0,0l0,0c-0.1,0-0.1,0-0.2,0l-0.1,0l-0.1,0
				l0,0l0,0c-0.1,0-0.1,0-0.2,0l0,0h0l0.1,0l0.1,0l0.1,0l0,0l-0.1,0l-0.1,0c0,0,0,0,0.3,0l0.1,0l0,0l0,0l0.1,0l0,0l0.1,0l0,0h0
				c0,0,0.1,0,0.1,0l0,0c0,0,0,0,0,0c0,0,0,0,0,0c0.1,0,0.1,0,0.2,0l0,0l-0.1,0h0c0,0,0,0,0,0l0.1,0c0,0,0.1,0,0.1,0l0,0l0,0l0.1,0
				h0c0,0-0.1,0-0.1,0h0c0.1,0,0.2,0,0.2,0l0,0c0,0-0.1,0-0.1,0c0,0,0.1,0,0.1,0c0,0-0.1,0-0.1,0c0.1,0,0.1,0,0.2,0c0,0,0,0-0.1,0
				c0,0-0.1,0-0.1,0l0,0l-0.1,0l0.1,0l0,0l0,0l-0.1,0l-0.1,0l0,0l0.1,0c0,0-0.1,0-0.1,0c-0.1,0-0.1,0-0.2,0c0,0-0.1,0-0.1,0l0,0l0,0
				l-0.1,0l-0.1,0h0l0,0c0,0,0,0,0.1,0c0,0-0.1,0-0.1,0l-0.1,0h0c-0.1,0-0.2,0-0.4,0l-0.1,0l-0.1,0l0,0l0,0l0,0l-0.1,0l-0.1,0h0
				l0.1,0l0,0l-0.1,0c-0.1,0-0.1,0-0.2,0l0,0l0.1,0l0,0c-0.1,0-0.1,0-0.2,0l-0.1,0l0.1,0l0.1,0c0,0-0.2,0.1-0.2,0.1l0,0
				c-0.1,0-0.2,0-0.3,0.1l0,0h0l-0.1,0L10.8,1.5L10.8,1.5l-0.1,0.1L10.8,1.5l-0.2,0.1c-0.1,0-0.1,0-0.2,0.1l0,0l0,0c0,0,0,0,0.1,0
				l0,0c0,0,0,0,0,0c0,0,0,0,0.1,0c0,0-0.1,0-0.1,0c0,0,0,0,0.1,0c0,0,0,0-0.1,0l0.1,0l0,0l0,0c0,0,0.1,0,0.1,0
				C10.7,1.5,10.8,1.5,10.8,1.5L10.8,1.5z M13,1.1c0.1,0,0.2,0,0.3,0h0c0,0-0.1,0-0.1,0l0,0C13.1,1.1,13.1,1.1,13,1.1z M11.8,1.3
				L11.8,1.3L11.8,1.3L11.8,1.3z M11.5,1.3L11.5,1.3L11.5,1.3L11.5,1.3C11.5,1.3,11.5,1.3,11.5,1.3z M18.4,3.2L18.4,3.2L18.4,3.2
				L18.4,3.2C18.4,3.2,18.4,3.2,18.4,3.2C18.4,3.2,18.4,3.2,18.4,3.2c-0.1-0.1-0.1-0.1-0.1-0.1c0,0-0.1,0-0.1,0l0,0l0,0
				C18.3,3.2,18.3,3.2,18.4,3.2C18.4,3.3,18.4,3.3,18.4,3.2C18.4,3.3,18.4,3.3,18.4,3.2C18.4,3.2,18.4,3.2,18.4,3.2L18.4,3.2z
				 M17.2,1.4c0.1,0,0.1,0,0.1,0h0c0,0,0,0,0.1,0c0,0,0,0,0,0c0,0,0,0-0.1,0l0,0l0,0C17.3,1.4,17.3,1.4,17.2,1.4L17.2,1.4
				C17.3,1.4,17.3,1.4,17.2,1.4L17.2,1.4L17.2,1.4L17.2,1.4L17.2,1.4L17.2,1.4z M17.8,1.5c0.4,0.1,0.4,0.1,0.5,0.1
				c0,0-0.1,0-0.1-0.1l0,0l0,0c0,0,0,0,0,0l0,0l0,0l0,0c0,0,0,0-0.1,0c0,0,0,0-0.1,0c0,0,0,0-0.1,0L17.8,1.5c0,0-0.1,0-0.1,0
				C17.7,1.5,17.8,1.5,17.8,1.5L17.8,1.5c-0.1,0-0.2-0.1-0.2-0.1l0,0C17.7,1.5,17.7,1.5,17.8,1.5L17.8,1.5z M17.3,1.4
				C17.3,1.4,17.4,1.4,17.3,1.4L17.3,1.4c0.1,0,0.1,0,0.2,0l0,0c0.1,0,0.1,0,0.2,0.1l0,0c0,0,0.1,0,0.1,0v0l0,0l0,0c0,0,0,0-0.1,0
				c0,0-0.1,0-0.1,0c-0.1,0-0.2,0-0.2-0.1L17.3,1.4C17.3,1.4,17.3,1.4,17.3,1.4C17.4,1.4,17.4,1.4,17.3,1.4
				C17.2,1.4,17.2,1.4,17.3,1.4L17.3,1.4C17.3,1.4,17.3,1.4,17.3,1.4L17.3,1.4z M16.8,1.3c0.1,0,0.1,0,0.2,0h0c0.1,0,0.1,0,0.1,0
				l0,0h0c0,0,0.1,0,0.1,0c0.1,0,0.1,0,0.1,0c0,0,0,0-0.1,0h0c0,0,0,0,0,0l0,0c0,0,0,0-0.1,0c0,0-0.1,0-0.1,0h0
				C17,1.3,16.9,1.3,16.8,1.3L16.8,1.3L16.8,1.3L16.8,1.3c-0.1,0-0.1,0-0.1,0C16.7,1.3,16.8,1.3,16.8,1.3L16.8,1.3z M16.6,1.3
				C16.7,1.3,16.7,1.3,16.6,1.3c0.1,0,0.1,0,0.2,0l0,0C16.8,1.3,16.8,1.3,16.6,1.3C16.7,1.3,16.6,1.3,16.6,1.3L16.6,1.3
				C16.6,1.3,16.6,1.3,16.6,1.3L16.6,1.3z M27.7,13.6c0-0.1,0-0.1,0-0.2C27.7,13.4,27.7,13.5,27.7,13.6
				C27.7,13.5,27.7,13.5,27.7,13.6z M16.4,1.4L16.4,1.4L16.4,1.4C16.5,1.4,16.5,1.4,16.4,1.4L16.4,1.4L16.4,1.4L16.4,1.4L16.4,1.4
				C16.5,1.4,16.5,1.4,16.4,1.4L16.4,1.4L16.4,1.4L16.4,1.4L16.4,1.4L16.4,1.4L16.4,1.4L16.4,1.4z M27.7,13.7
				C27.7,13.7,27.7,13.7,27.7,13.7C27.7,13.7,27.7,13.7,27.7,13.7C27.7,13.7,27.7,13.7,27.7,13.7z M27.7,13.6
				C27.7,13.6,27.7,13.6,27.7,13.6C27.7,13.6,27.7,13.6,27.7,13.6z M18.6,1.8c0,0-0.1-0.1-0.1-0.1h0C18.5,1.8,18.5,1.8,18.6,1.8
				C18.6,1.8,18.6,1.8,18.6,1.8L18.6,1.8C18.6,1.8,18.6,1.8,18.6,1.8L18.6,1.8z M10.5,1.6l-0.2,0l-0.2,0.1l0,0l-0.1,0l0,0l0,0
				L10.5,1.6L10.5,1.6z M18.3,2.6L18.3,2.6C18.3,2.6,18.3,2.6,18.3,2.6c-0.1-0.1-0.1-0.1-0.1-0.1l0,0c0,0,0,0,0,0l0,0l0,0l0,0l0,0
				l0,0c0,0,0,0,0-0.1c0,0,0,0,0,0l0,0c0,0-0.1-0.1-0.1-0.1c0,0,0,0,0,0c0,0,0,0,0,0l0,0l0,0l0,0l0,0c0,0-0.1-0.1-0.1-0.1
				c0,0,0,0,0,0c0,0,0,0,0,0l0,0v0c0,0,0,0,0.1,0c0,0,0,0,0,0l0,0l0,0c0,0,0,0,0,0c0,0,0,0-0.1-0.1v0h0c0,0,0,0,0,0
				c-0.1,0-0.1,0-0.2-0.1h0l0,0c0,0,0,0,0,0c0,0,0.1,0,0.1,0.1l0,0c0,0,0,0,0,0c0,0,0,0,0,0l0,0l0,0l0,0l0,0c0,0,0,0-0.1,0h0l0,0
				l0,0l0,0c0,0,0,0,0.1,0.1c0,0-0.1,0-0.1,0c0,0,0,0,0,0l0,0c0,0,0,0,0,0c0,0,0,0,0.1,0.1c0,0-0.1,0-0.1,0c0,0,0.1,0.1,0.1,0.1l0,0
				c0,0,0,0,0.1,0c0,0,0,0-0.1,0c0,0,0,0,0,0c0,0,0.1,0.1,0.1,0c0,0,0,0,0.1,0l0,0l0,0c0,0-0.1,0-0.1,0c0,0,0,0,0.1,0.1
				c0,0-0.1,0,0,0c0,0,0,0,0.1,0.1c0,0,0,0,0,0.1c0,0,0,0,0,0c0,0,0,0,0,0l0,0c0,0,0.1,0.1,0.1,0.1c0,0,0,0,0.1,0l0,0c0,0,0,0,0,0
				c0,0,0,0,0.1,0c0,0,0,0,0,0c0.1,0,0.1,0.1,0.2,0.1l0,0l0,0l0,0c0,0,0.1,0,0.1,0c0.1,0,0.1,0,0.2,0c0,0,0,0,0,0c0,0,0,0,0,0
				c0,0,0,0,0,0c0,0,0,0-0.3-0.2C18.4,2.7,18.3,2.6,18.3,2.6z M18.2,1.6L18.2,1.6C18.2,1.6,18.2,1.6,18.2,1.6
				C18.3,1.6,18.3,1.6,18.2,1.6L18.2,1.6C18.3,1.6,18.3,1.6,18.2,1.6C18.2,1.6,18.2,1.6,18.2,1.6L18.2,1.6L18.2,1.6L18.2,1.6
				L18.2,1.6L18.2,1.6C18.2,1.6,18.2,1.6,18.2,1.6z M15,1.4L15,1.4L15,1.4L15,1.4z M11,1.5C11,1.4,11,1.4,11,1.5l0.2,0l0,0l0,0
				C11.1,1.4,11.1,1.4,11,1.5L11,1.5L11,1.5L11,1.5L11,1.5L11,1.5l-0.1,0C10.9,1.5,10.9,1.5,11,1.5L11,1.5z M14.6,1.6
				C14.6,1.6,14.6,1.6,14.6,1.6L14.6,1.6C14.6,1.5,14.6,1.5,14.6,1.6L14.6,1.6c0.1,0,0.1,0,0.1,0h0c0,0,0,0,0,0c0,0,0,0,0,0l0,0v0
				l0,0c0,0,0,0,0,0c0,0,0,0,0,0l0,0l0,0l0,0l0,0c0,0,0,0,0,0l0,0c0,0-0.1,0-0.1,0l0,0c0,0,0,0,0,0l0,0c0,0,0,0,0.1,0c0,0,0,0,0,0h0
				c0,0,0,0,0,0l0,0l-0.1,0c-0.1,0-0.1,0-0.1,0c0,0,0,0,0,0c0,0,0,0,0.1,0.1l0,0l0,0c0,0,0,0,0,0c0,0,0,0,0-0.1c0,0,0,0,0,0
				c0,0,0,0,0-0.1c0,0,0,0,0,0c0,0,0,0,0-0.1c0,0,0.1,0,0.1,0l0,0c0,0,0,0.1,0,0.1c0.1,0,0.1,0,0.1,0.1c0,0,0,0,0,0.1l0,0
				c0,0,0,0,0,0c0,0,0,0,0,0.1c0,0,0,0,0,0l0,0v0c0,0,0,0,0.1,0l0,0l0,0c0,0,0,0-0.1,0c0,0,0,0,0,0c0,0,0,0-0.1,0c0,0,0,0,0,0
				c0,0,0,0,0,0c0,0,0,0,0,0c0,0,0,0,0,0l0,0c0,0,0,0,0,0c0,0,0,0,0,0l0,0l0,0c0,0,0,0,0,0c0,0-0.1,0-0.1,0l0,0c0,0,0,0,0,0l0,0
				c0,0,0,0,0,0c0,0,0,0,0,0l0,0l0,0l0,0l0,0l0,0l0,0c0,0,0,0,0,0l0,0l0,0l0,0l0,0c0,0,0,0,0,0c0,0,0,0-0.1,0
				C14.5,1.4,14.6,1.5,14.6,1.6C14.6,1.5,14.6,1.4,14.6,1.6C14.6,1.5,14.6,1.5,14.6,1.6C14.6,1.5,14.6,1.5,14.6,1.6
				C14.6,1.5,14.6,1.5,14.6,1.6C14.6,1.5,14.6,1.5,14.6,1.6z M12,1.2L12,1.2L12,1.2C11.9,1.2,12,1.2,12,1.2z M9.8,1.8
				C9.8,1.8,9.8,1.8,9.8,1.8L9.8,1.8L9.8,1.8z M9.8,1.8C9.8,1.8,9.8,1.8,9.8,1.8L9.8,1.8C9.8,1.8,9.8,1.8,9.8,1.8z M16.2,1.3
				L16.2,1.3C16.2,1.3,16.2,1.3,16.2,1.3L16.2,1.3C16.3,1.3,16.3,1.3,16.2,1.3c0.1,0,0.1,0,0.1,0l0,0l0,0l0,0h0c0,0,0,0,0,0l0,0
				c0,0,0,0,0,0C16.4,1.3,16.3,1.3,16.2,1.3C16.3,1.3,16.2,1.3,16.2,1.3L16.2,1.3L16.2,1.3C16.2,1.3,16.2,1.3,16.2,1.3
				C16.2,1.3,16.2,1.3,16.2,1.3z M16.4,1.4L16.4,1.4L16.4,1.4L16.4,1.4C16.3,1.4,16.3,1.4,16.4,1.4L16.4,1.4L16.4,1.4
				C16.3,1.4,16.3,1.4,16.4,1.4C16.3,1.4,16.4,1.4,16.4,1.4L16.4,1.4C16.4,1.4,16.4,1.4,16.4,1.4C16.4,1.4,16.4,1.4,16.4,1.4
				L16.4,1.4L16.4,1.4C16.4,1.4,16.4,1.4,16.4,1.4z M14.9,1.4L14.9,1.4L14.9,1.4C15,1.4,15,1.4,14.9,1.4C15,1.4,15,1.4,14.9,1.4
				C15,1.4,15,1.4,14.9,1.4L14.9,1.4C15,1.4,15,1.4,14.9,1.4c0.1,0.1,0.1,0.1,0.1,0.1c0,0,0,0,0,0l0,0c0,0,0.1,0,0.1,0c0,0,0,0,0,0
				c0,0,0,0,0.1,0l0,0l0,0c0,0,0,0,0,0l0,0c0,0,0,0,0,0c0,0,0,0,0,0l0,0l0,0c0,0-0.1,0-0.1,0c0,0,0,0,0,0l0,0l0,0l0,0l0,0v0l0,0l0,0
				l0,0L14.9,1.4c0.1,0,0.1,0,0.1,0l0,0C15,1.4,15,1.4,14.9,1.4C15,1.3,14.9,1.3,14.9,1.4C14.9,1.3,14.9,1.4,14.9,1.4z M16.2,1.3
				C16.3,1.3,16.3,1.3,16.2,1.3L16.2,1.3c0,0,0.2,0.1,0.2,0.1l0,0c0,0,0,0-0.1,0c0,0,0,0,0,0C16.3,1.3,16.3,1.3,16.2,1.3L16.2,1.3
				C16.3,1.3,16.3,1.3,16.2,1.3L16.2,1.3L16.2,1.3L16.2,1.3L16.2,1.3L16.2,1.3z M15.9,1.3L15.9,1.3L15.9,1.3
				C15.9,1.3,15.9,1.3,15.9,1.3L15.9,1.3C16,1.4,16,1.4,15.9,1.3L15.9,1.3c0.1,0,0.1,0,0.1,0c0,0,0,0,0.1,0c0.1,0,0.1,0,0.1,0
				c0,0,0,0-0.1,0l0,0c0,0,0,0,0,0h0l0,0c0,0,0,0,0,0C16,1.3,16,1.3,15.9,1.3C16,1.3,16,1.3,15.9,1.3C16,1.3,15.9,1.3,15.9,1.3
				L15.9,1.3L15.9,1.3L15.9,1.3L15.9,1.3L15.9,1.3C15.9,1.3,15.9,1.3,15.9,1.3C15.9,1.3,15.9,1.3,15.9,1.3L15.9,1.3L15.9,1.3
				L15.9,1.3C15.9,1.3,15.9,1.3,15.9,1.3C15.9,1.3,15.9,1.3,15.9,1.3C15.9,1.3,15.9,1.3,15.9,1.3L15.9,1.3
				C15.9,1.3,15.9,1.4,15.9,1.3L15.9,1.3z M16,1.3c0,0,0.1,0,0.1,0L16,1.3L16,1.3L16,1.3L16,1.3c0.1,0,0.1,0,0.1,0.1l0,0
				c0,0,0,0,0,0c0,0,0,0,0,0l0,0l0,0h0l0,0h0h0l0,0h0c0,0,0,0,0,0l0,0l0,0l0,0v0c0,0,0,0-0.1,0l0,0l0,0h0l0,0l0,0c0,0,0,0,0,0l0,0
				c0,0,0,0,0.1,0h0c-0.1,0-0.1,0-0.1,0l0,0c0.1,0,0.1,0,0.1,0l0,0c0,0,0,0,0,0c0,0,0,0,0,0l0,0l0,0C16.1,1.3,16.1,1.3,16,1.3
				C16,1.3,16,1.2,16,1.3L16,1.3L16,1.3L16,1.3L16,1.3z M6,4L6,4C6,4,5.9,4,5.9,4.1C5.9,4.1,6,4,6,4L6,4z M26.7,18.3L26.7,18.3
				C26.8,18.3,26.8,18.3,26.7,18.3C26.8,18.3,26.8,18.3,26.7,18.3z M26.5,19.5C26.5,19.5,26.5,19.5,26.5,19.5
				C26.5,19.5,26.5,19.5,26.5,19.5C26.5,19.5,26.5,19.6,26.5,19.5L26.5,19.5C26.5,19.6,26.5,19.6,26.5,19.5L26.5,19.5z M26.5,19.8
				L26.5,19.8C26.5,19.8,26.5,19.9,26.5,19.8L26.5,19.8c0,0.1,0,0.1,0,0.2c0,0,0,0,0,0l0,0c0,0,0,0,0,0c0,0,0,0,0,0c0,0,0,0,0,0.1
				l0,0l0,0c0,0,0,0.1,0,0.1l0,0l0,0c0,0,0-0.1,0-0.1L26.5,19.8c0.1,0,0.1-0.1,0.1-0.1C26.6,19.7,26.5,19.8,26.5,19.8
				C26.5,19.8,26.5,19.8,26.5,19.8z M25.9,16.6L25.9,16.6L25.9,16.6L25.9,16.6c-0.1,0.1-0.1,0.2-0.1,0.2c0,0,0,0,0,0l0,0
				c0,0,0,0,0,0.1c0,0.1,0,0.1,0,0.1c0,0.1,0,0.2,0,0.2c0,0,0,0.1,0,0.1c0,0,0,0,0.1,0c0-0.1,0-0.1,0-0.2c0,0,0-0.1,0-0.1
				c0,0,0,0,0,0c0,0,0,0,0,0c0,0,0-0.1,0-0.2C25.9,16.7,25.9,16.7,25.9,16.6z M26.6,19.2L26.6,19.2c0-0.1,0-0.1,0.1-0.2c0,0,0,0,0,0
				c0,0,0,0,0,0l0,0c0,0,0,0,0-0.1c0.1-0.2,0.1-0.2,0-0.2c-0.1,0.2-0.1,0.4-0.1,0.4C26.6,19.1,26.6,19.1,26.6,19.2
				C26.6,19.2,26.6,19.2,26.6,19.2z M26.7,18.5L26.7,18.5L26.7,18.5c0-0.1,0-0.1,0-0.1l0-0.1l0,0l0,0c0,0.1,0,0.1,0,0.1
				C26.7,18.4,26.7,18.4,26.7,18.5z M26.9,18.8c0,0,0,0,0,0.1l0,0C26.9,18.7,26.9,18.7,26.9,18.8L26.9,18.8L26.9,18.8
				c0-0.1,0-0.2,0-0.2c0-0.1,0-0.1,0.1-0.2l0,0l0,0c0-0.1,0.1-0.2,0.1-0.3l0,0c0,0,0,0,0,0c0,0,0,0,0-0.1l0,0c0,0,0-0.3,0-0.4
				c0,0,0,0,0-0.2c0,0,0,0.1-0.1,0c0,0,0-0.1,0-0.1c0,0,0,0,0,0.1c0,0.1,0,0.1,0,0.3c0,0.1,0,0.2,0,0.3l0,0l0,0c0,0,0,0.2,0,0.2
				c0,0,0,0,0,0c0,0.1,0,0.2,0,0.3c0,0.1-0.1,0.2-0.1,0.3c-0.1,0.2-0.1,0.4-0.1,0.6c0,0,0.1-0.1,0.1-0.1c0,0,0,0,0,0
				c0,0,0.1-0.2,0.1-0.2c0,0,0,0,0,0c0-0.1,0-0.1,0-0.1v0c0,0,0,0,0-0.1C26.8,19.1,26.9,18.8,26.9,18.8z M9.4,26.7
				c0,0-0.2-0.1-0.3-0.1c0,0,0,0-0.1,0c-0.2-0.1-0.2-0.1-0.3-0.1c0,0,0,0-0.1,0c0,0-0.1,0-0.2-0.1c0,0,0,0-0.1,0c0,0,0,0,0,0
				C8.2,26.2,8,26,8,26c0,0,0,0-0.1,0c0,0,0,0-0.1,0c-0.1-0.1-0.2-0.1-0.3-0.2c0,0,0,0,0,0c0,0-0.1-0.1-0.1-0.1c0,0,0,0,0,0
				c-0.1,0-0.1-0.1-0.2-0.1c-0.1-0.1-0.2-0.2-0.3-0.2c0,0,0,0-0.1,0h0h0l0,0c0,0,0,0,0,0c0,0,0,0-0.2-0.1c0,0-0.1-0.1-0.1-0.1
				c0,0,0,0,0.1,0c0,0,0,0,0.1,0c0,0,0,0,0,0c0,0,0,0-0.1,0c0,0,0,0-0.1-0.1c0,0,0,0-0.2-0.2c0,0,0,0-0.1-0.1c0,0,0,0,0.1,0
				c0,0,0,0,0,0c0,0,0,0,0.1,0c-0.1-0.1-0.1-0.2-0.2-0.2l0-0.1c0,0-0.1-0.1-0.1-0.1c0,0,0,0,0,0c0,0,0,0-0.1-0.1
				c-0.1-0.1-0.2-0.1-0.3-0.2c0,0,0,0,0.1,0c0.2,0.1,0.2,0.1,0.3,0c-0.3-0.5-0.3-0.5-0.3-0.6c0,0,0.1,0.1,0.1,0.1
				c-0.1-0.4-0.5-0.7-0.5-1.2c0,0,0.1,0,0.1,0c0,0,0-0.1,0-0.1c0.1,0,0.2,0,0.3,0c0,0,0-0.1,0-0.1l0,0c0-0.2,0-0.2,0-0.2
				c0,0,0,0,0,0c-0.1-0.1-0.1-0.1-0.1-0.3l0,0c0-0.1-0.1-0.2-0.1-0.3c0,0,0,0,0-0.1c0-0.1,0-0.2-0.1-0.2c0,0,0,0,0-0.1
				c0,0,0,0,0-0.1c0,0,0-0.1-0.1-0.1c0-0.1-0.1-0.2-0.1-0.2c0,0,0,0,0.1-0.3c0,0,0,0,0.1,0c0,0,0,0,0-0.1c0,0,0.1-0.3,0.1-0.4
				c0-0.1,0-0.1,0-0.2c0,0-0.1-0.4-0.3-0.5c0,0-0.1,0-0.1,0c-0.2-0.1-0.3-0.5-0.6-0.4c-0.1,0-0.1,0-0.2,0c-0.1-0.1-0.1-0.1-0.2-0.1
				c0,0,0,0.1,0,0.1c-0.2,0-0.2-0.1-0.2-0.1c0,0,0,0,0,0c-0.3-0.2-0.3-0.2-0.4-0.3c0,0,0,0,0,0c-0.1-0.1-0.1-0.1-0.2-0.1
				c0,0.1,0,0.1,0,0.2c0,0-0.1,0-0.1,0c0,0,0-0.1,0-0.1c0,0,0-0.1,0-0.1c0,0,0,0,0,0c0-0.1,0-0.1-0.2-0.2l0,0c0,0,0,0-0.1,0
				c0,0.1,0,0.1,0,0.2c0,0,0,0-0.1,0c0,0,0-0.1,0-0.1c0,0,0-0.1,0.1-0.1c0-0.3,0-0.3-0.1-0.4c0,0,0,0-0.1,0c0-0.1,0-0.2-0.1-0.3
				c-0.1-0.2-0.2-0.3-0.3-0.5c0,0-0.1,0-0.1-0.1c0,0,0,0,0,0c0,0-0.1,0-0.1,0c0,0,0,0,0,0c0,0-0.3-0.5-0.4-0.6c0,0,0,0,0-0.1
				c0-0.1,0-0.1,0-0.2c0,0,0,0,0,0c0,0,0,0,0,0c0,0,0,0-0.1-0.2c0,0,0,0,0-0.1c0,0,0-0.1-0.1-0.1l0,0.1c0,0,0,0,0,0c0,0,0,0-0.1,0
				c0,0,0,0.1,0,0.1c0,0,0,0,0,0c0-0.1,0-0.1-0.1-0.2c0,0,0,0-0.1,0c0,0,0,0,0,0c0,0,0-0.1-0.1-0.2c0,0,0-0.1-0.1-0.1
				c0,0,0,0.5,0,0.6c-0.1-0.4,0-0.6,0-0.7l0,0c0,0,0,0,0,0c0,0.1,0,0.1,0,0.2c0,0,0,0-0.1,0c0,0,0,0.1-0.1,0.1c0,0.1,0,0.2,0,0.3
				c0,0,0,0.1,0,0.1v0l0-0.1c0,0,0,0,0,0l0,0l0,0l0-0.1l0-0.2l0-0.1c0,0,0,0.1,0,0.1v0v0l0,0.2l0,0l0,0.1l0,0l0,0l0,0l0,0.1l0,0
				l0,0.1c0,0.2,0,0.2,0,0.3l0,0l0,0.2l0,0.1l0-0.2l0-0.1l0,0l0,0.1c0,0.4,0.2,0.8,0.2,1.2c0,0.1,0,0.1,0,0.2c0,0.2,0,0.2,0.1,0.3
				c0,0,0,0,0,0c0.1,0.3,0.1,0.3,0.1,0.4c0,0,0,0.1,0,0.1c0,0,0,0.2,0.1,0.5c0,0,0,0,0,0.1c0.1,0.3,0.2,0.5,0.4,0.8
				c0,0,0,0.1,0.1,0.1c0.2,0.4,0.6,1.3,1,1.6c0.1,0.1,0.2,0.3,0.2,0.4c0,0,0,0.1,0.1,0.1l0,0c0,0,0,0,0,0.1c0,0,0,0,0,0.1
				c0,0,0,0,0,0c0.1,0.1,0.1,0.1,0.1,0.2l0,0c0,0,0,0,0.1,0.1c0,0,0,0,0,0.1l0,0c0,0,0,0,0,0c0,0.1,0,0.1,0.1,0.2c0,0,0,0,0,0
				c0,0,0,0,0,0c0.1,0.1,0.2,0.2,0.2,0.3c0,0,0.3,0.4,0.4,0.5c0,0,0,0,0,0c0.2,0.3,0.5,0.5,0.7,0.8c0,0,0,0,0.1,0.1c0,0,0,0,0,0
				C6.3,25,6.3,25,6.4,25.1c0.2,0.1,0.3,0.2,0.5,0.3l0,0l-0.3-0.2l0,0c0,0,0.1,0,0.1,0.1c0,0,0,0,0,0c0.1,0,0.1,0.1,0.2,0.1
				c0.1,0,0.1,0,0.4,0.2c0,0-0.1,0-0.1-0.1c0,0,0,0-0.1,0c0,0,0,0-0.1,0l0,0c0,0,0.1,0,0.1,0.1c0.1,0.1,0.2,0.1,0.3,0.2
				c0,0-0.1-0.1-0.1-0.1c0,0,0.1,0,0.1,0.1C7.6,25.9,7.8,26,8,26.1c0,0,0,0,0.1,0c0.1,0,0.1,0.1,0.2,0.1c0,0,0,0,0,0
				c0.1,0.1,0.2,0.1,0.3,0.2l0,0l0,0l0,0c0.1,0.1,0.1,0.1,0.2,0.1l0,0C9.1,26.7,9.5,26.8,9.4,26.7C9.5,26.8,9.5,26.8,9.4,26.7
				c0.1,0.1,0.1,0.1,0.2,0.1c0,0,0,0,0.1,0l0,0c-0.2-0.1-0.2-0.1-0.2-0.1C9.5,26.8,9.5,26.8,9.4,26.7z M1,15.1C1,15.1,1,15.2,1,15.1
				l0,0.2c0-0.2,0-0.3,0-0.5l0,0.1c0,0,0,0,0,0c0,0,0,0.1,0,0.1l0,0c0,0,0,0,0,0c0,0.1,0,0.3,0,0.4c0,0,0,0,0,0
				C1,15.3,1,15.2,1,15.1z M23.3,13.7L23.3,13.7c-0.1-0.1-0.1-0.1-0.1-0.2c0-0.1-0.1-0.1-0.1-0.1c-0.1,0,0-0.1,0-0.2l-0.1,0
				c0,0,0,0-0.1,0c0,0.1,0,0.1,0,0.1c0,0.4,0,0.8,0,1.2c0,0,0,0,0,0c0,0,0,0,0,0c0,0,0,0,0,0c0,0,0-0.1,0-0.1c0,0,0,0,0,0v0
				c0-0.1,0-0.2,0.1-0.2l0,0c0,0,0,0,0.1,0.1c0-0.1,0-0.3,0-0.4c0,0,0,0,0.1,0c0,0,0,0,0.1,0l0,0C23.3,13.8,23.3,13.8,23.3,13.7
				C23.3,13.7,23.3,13.7,23.3,13.7z M20.4,21c0,0.1,0,0.1,0,0.2c0,0,0,0-0.2,0.2c0,0-0.1,0.1-0.1,0.1c0,0,0,0,0,0c0,0-0.1,0-0.1,0
				c0,0,0,0.1-0.1,0.1c-0.1,0.1-0.2,0-0.4,0c0,0-0.1,0-0.1,0c0,0,0,0.1,0,0.1c0,0-0.1,0.1-0.1,0.1c0,0-0.1,0.2-0.1,0.3
				c0,0,0,0,0,0.1c0,0,0,0.1,0,0.1c0,0,0,0,0,0c0,0,0,0-0.1,0.1c-0.1,0.1,0,0.2-0.1,0.2c0,0,0,0,0,0c0,0,0,0,0,0c0,0.1,0,0.1,0,0.2
				c0,0,0,0,0,0.1c0,0.1,0,0.1-0.1,0.2c0.1,0,0.1,0,0.2,0c0,0,0,0,0,0c0.1,0,0.3,0.1,0.4-0.1c0.1-0.1,0.1-0.2,0.2-0.3
				c0-0.1,0.1-0.1,0.2-0.2c0.1-0.1,0.1-0.2,0.1-0.3c0-0.1,0.1,0,0.2-0.1c0,0,0.1,0,0.1,0c0-0.1,0-0.2,0.1-0.2c0,0,0.1-0.1,0.1-0.1
				c0,0,0,0,0-0.1c0,0,0,0,0-0.1c0,0,0,0,0,0c0-0.1,0.1-0.1,0.1-0.1c0,0,0,0,0,0l0.1-0.4C20.6,21.1,20.6,21,20.4,21z M20.9,16.3
				c0,0-0.1,0-0.1,0c-0.2,0-0.3,0-0.4,0c-0.1-0.2-0.1-0.2-0.1-0.3c0,0-0.1,0-0.1,0c0-0.1,0-0.1,0-0.2c-0.6-0.5-1.1-0.9-1-1.4
				c0,0,0-0.1,0-0.2c0,0,0-0.1,0-0.2c0,0-1-1.9-1-2.3c-0.1-0.1-0.2-0.1-0.3-0.2c0,0,0,0-0.1,0c0,0-0.1,0.1-0.1,0.1c0,0,0,0,0,0
				c-0.6-0.1-1.1-0.5-1.8-0.5c0,0.5,0,0.5-0.1,0.5c0,0-0.1,0-0.1,0c0,0-0.1,0-0.1,0c-0.1,0-0.2-0.2-0.3-0.2c-0.1,0-0.3,0-0.4-0.1
				c-0.1-0.3-0.5-0.3-0.5-0.3c-0.2,0-0.2,0-0.5-0.8c0,0,0,0,0.2-0.1c0,0,0-0.1,0-0.1c-0.1,0-0.2-0.1-0.2-0.1c-0.6,0-0.6,0-0.8,0.2
				c-0.2-0.1-0.4-0.4-0.7,0c-0.1,0-0.3,0-0.4,0c0,0,0,0-0.5,0.3c0,0,0,0-0.1,0c-0.2,0-0.3,0-0.5-0.1c0,0-0.1,0-0.1,0
				c-0.1,0.1-0.1,0.3-0.1,0.3c-0.1,0-0.1,0.1-0.3,0c0,0.1,0,0.2,0,0.4c-0.1,0-0.2,0-0.3,0.1c0,0.2-0.1,0.4-0.1,0.6
				c0,0.1,0,0.1,0,0.2c-0.1,0-0.2,0-0.2,0c0,0.2-0.3,0.4-0.4,0.4c-0.2,0.3-0.4,0.5-0.5,0.8c0,0-0.1,0-0.1,0c0,0,0,0-0.1,0
				c0,0-0.1,0-0.1,0c0,0.5-0.1,0.5-0.2,0.6c0,0,0,0.1,0,0.1c0,0.1,0,0.1,0,0.2c0.3,0.1,0.3,0.1,0.3,0.1c-0.1,0.2-0.1,0.2-0.1,0.7
				c0,0,0,0.1,0,0.2c0,0,0,0-0.2,0.2c0,0.1,0,0.2,0.1,0.3v0.1c0,0.4,0.6,0.8,0.6,0.8c0,0.2,0,0.4,0.5,0.5c0,0.1,0,0.1,0,0.2
				c0.5,0.4,0.7,0.4,0.7,0.4c0,0,0-0.1,0.1-0.2c0.1,0,0.2,0,0.3,0c0,0,0,0,0.1,0c0.1,0,0.2,0,0.2,0c0.1,0.2,0.2,0.1,0.5,0.1
				c0.1-0.2,0.2-0.2,0.5-0.2c0,0,0,0,0,0c0.2-0.2,0.4-0.1,0.5-0.1c0.1,0.4,0.1,0.4,0.3,0.4c0.2,0,0.5,0,0.7,0c0,0.1,0,0.2,0,0.3
				c0,0-0.1,0.6-0.2,0.8c0,0-0.1,0-0.1,0c0,0,0,0.1,0,0.1c0.6,0.3,0.6,1,0.9,1.4c0,0,0,0,0,0.1c0,0,0,0.1,0,0.1c0,0.2,0,0.2,0.1,0.2
				c0,0.4-0.4,0.7-0.4,1.2c0,0.2,0,0.2,0.2,0.3c0,0.2,0,0.3,0.2,0.4c0.1,0.3,0.1,0.3,0.1,0.4c0,0.1,0,0.2,0,0.3c0,0,0.2,0.7,0.4,0.9
				c0,0.1,0,0.1,0.1,0.2c0,0,0,0,0,0c0,0-0.1,0.1-0.1,0.1c0,0,0,0,0.1,0c0,0,0,0,0.1,0c0,0.1,0,0.1,0.1,0.2c0.1,0,0.2,0,0.3,0
				c0.1,0,0.1,0,0.2-0.1c0.1,0,0.2,0,0.4,0c0,0,0,0,0-0.1c0.3,0,0.3,0,0.4-0.2c0,0,1-0.5,0.9-1c0,0,0.4-0.3,0.6-0.3
				c0-0.1,0-0.1,0-0.7c0.4-0.3,1-0.5,1.3-1c0,0,0-0.1,0-0.1c0,0,0-0.1,0-0.2c0-0.1,0.1-0.3,0.1-0.5c-0.2-0.2,0-0.5,0-0.8l0,0
				c0.4-1.5,2.4-1.8,2.7-3.3c0-0.1,0-0.1-0.1-0.2C21.4,16.1,21.2,16.4,20.9,16.3z M27.2,18.1C27.2,18.1,27.2,18.1,27.2,18.1
				L27.2,18.1L27.2,18.1c-0.1,0.1-0.1,0.4-0.2,0.6l0,0c0,0,0,0,0,0c0,0.1,0,0.1-0.1,0.2c0,0.1,0,0.1,0,0.1l0,0l0.2-0.6L27.2,18.1
				C27.2,18.1,27.2,18.1,27.2,18.1z M27.6,12.6L27.6,12.6L27.6,12.6C27.6,12.6,27.6,12.6,27.6,12.6z M26,7.7C26,7.7,26,7.7,26,7.7
				c0.2,0.3,0.3,0.6,0.5,0.9C26.2,8.2,26.2,8.1,26,7.7C26,7.7,26,7.7,26,7.7z M27.7,14.5C27.7,14.5,27.7,14.5,27.7,14.5
				c0-0.1,0-0.2,0-0.4c0-0.1,0-0.2,0-0.3c0,0,0,0,0,0c0,0,0,0,0,0c0,0.3,0,0.9,0,1.1c0,0.4,0,0.4,0,0.7c0,0.1,0,0.1,0,0.2
				c0,0.4,0,0.4-0.2,1.1c0.1-0.8,0.1-0.8,0.1-0.9l0,0c0,0,0,0,0,0c0-0.1,0-0.2,0-0.2c0,0-0.1,0.5-0.1,0.6c0,0.1,0,0.2,0,0.2
				c0,0,0,0,0,0.1c0,0,0,0,0,0.1c0,0.2,0,0.6,0,0.6c0,0,0,0.1,0,0.1c0,0,0,0,0,0c0,0,0,0,0,0c0,0,0,0,0,0c0,0,0,0,0,0.1
				c0,0-0.1,0.5-0.1,0.6c0,0,0,0.1,0,0.2l0,0c0-0.2,0-0.4,0-0.5c0-0.1,0-0.2,0.1-0.3c0-0.1,0-0.2,0-0.4c0,0,0,0,0,0
				c0-0.2,0-0.4,0-0.6c0,0,0,0,0-0.1c0.1-0.9,0.2-1.4,0.1-1.5c0,0,0,0,0,0c0,0,0,0,0,0c0,0,0,0,0,0.1c0,0,0,0.1-0.1,0.1c0,0,0,0,0,0
				c-0.1-0.2,0.1-0.4,0-0.6l0,0v0c0-0.1,0-0.1,0-0.1c0,0,0,0,0-0.1c0,0,0,0-0.1-0.2c0-0.3-0.1-0.4-0.1-0.6l0,0c0,0,0,0.1,0,0.1
				c0,0,0,0-0.1,0c0,0.1-0.1,0.1-0.1,0.2c0,0,0,0,0,0l0,0c0,0-0.1,0-0.1,0c0,0.3,0,0.3,0,0.3h0v0h0h0h0l0,0h0c0,0,0,0,0,0
				c-0.1,0.2-0.1,0.2-0.1,0.2c0,0-0.2,0.8-0.4,0.8c0,0.1,0,0.1-0.1,0.3c0,0.1,0,0.2,0,0.3c-0.2,1-0.2,1-0.4,1.1c0,0,0,0,0,0
				c0,0,0,0,0-0.1c0-0.3-0.1-0.5-0.1-0.8c0,0,0,0,0,0c0-0.5-0.3-0.9-0.2-1.4c0,0,0-0.1,0-0.1c0,0,0-0.4-0.1-0.5c0,0,0,0,0,0
				c0,0,0,0.1,0,0.1c0,0,0,0-0.1,0.1c-0.2,0-0.2-0.2-0.3-0.3c0,0-0.1-0.1,0.1-0.1c-0.1-0.1-0.1-0.1-0.2-0.1c0,0,0,0-0.1,0
				c0-0.1,0-0.1-0.1-0.1c0,0,0,0,0,0c0-0.2-0.3-0.4-0.3-0.4c-0.1,0-0.1,0-0.2,0l-0.2,0h-0.3c0,0,0,0-0.1,0c-0.1,0-0.1,0-0.2,0
				c-0.1,0-0.1-0.1-0.2-0.1c-0.1,0-0.1,0-0.2,0c-0.1,0-0.1-0.1-0.1-0.2l0,0c-0.1-0.1-0.1-0.1-0.1-0.1c0,0,0,0-0.1,0c0,0-0.1,0-0.1,0
				c0,0,0,0,0,0c0,0,0,0,0,0c-0.3,0-0.3-0.1-0.4-0.2c-0.1-0.1-0.2-0.1-0.2-0.2c-0.1-0.1-0.1-0.1-0.2-0.2c-0.1-0.1-0.1-0.1-0.1-0.1
				c0,0-0.2-0.1-0.2,0.1c0,0.2,0.1,0.4,0.2,0.6c0.2,0.1,0.2,0.1,0.3,0.2c0,0.1,0,0.1,0,0.2c0,0,0,0,0.1,0c0.1,0,0.2,0,0.3,0.1
				c0,0,0,0,0.1,0c0,0,0,0,0.1,0c0,0,0,0,0.1,0l0,0c0,0,0,0.1-0.2,0c0,0,0,0,0,0c0,0,0,0-0.1,0c0,0,0,0,0,0c0,0.2,0.2,0.2,0.2,0.2
				c0,0,0,0,0.1-0.1c0,0,0,0,0,0c0,0,0.1,0,0.1,0c0,0,0,0,0.1,0c0,0,0.1,0,0.1,0c0-0.3,0-0.3,0.1-0.4c0,0,0,0,0,0.1
				c0,0.1,0,0.1,0,0.2c0,0,0,0,0.1,0.1c0,0,0,0.1,0,0.1l0,0c0,0.4,0,0.8,0,1.2c0,0,0,0.1-0.1,0.2c-0.1,0-0.1,0-0.2,0
				c-0.1,0.1-0.1,0.2-0.1,0.2c-0.3,0-0.3,0-0.4,0c-0.1,0.1-0.1,0.1-0.1,0c0,0,0,0,0,0.2l0,0c-0.1,0-0.1,0-0.2,0
				c-0.2,0.2-0.5,0.1-0.6,0.3c0,0,0,0.1-0.1,0.1h0c0,0,0,0,0,0h0c-0.1,0-0.2,0-0.2,0c-0.1,0-0.1,0-0.2,0.2c-0.1,0.1-0.4,0.1-0.4-0.2
				c0-0.1,0-0.3,0-0.4c-0.3-0.6-0.3-0.6-0.3-0.7c0,0,0,0-0.1-0.1c0-0.2-0.3-0.3-0.3-0.3c-0.2-0.1,0-0.3-0.1-0.4c0,0-0.2-0.4-0.2-0.4
				c0,0-0.1,0-0.2-0.1c0-0.1,0-0.1,0-0.2c0,0,0,0,0,0l-0.2-0.4c-0.1-0.1-0.2-0.2-0.2-0.3c0,0,0,0,0,0c0,0,0,0.1-0.1,0.1
				c0,0,0,0-0.1,0c-0.1,0-0.1,0-0.1-0.2c0-0.1-0.2-0.2-0.2-0.3l0,0l0,0c0,0,0,0,0-0.1c0,0,0,0,0-0.1l0,0c0,0,0,0,0,0
				c-0.1,0-0.1,0-0.2-0.1l0,0l0,0h0c0.1,0,0.2,0,0.2,0c0,0,0,0,0,0c0,0,0,0,0,0c0,0,0,0,0.1,0l0,0l0,0l0,0h0c0.1,0,0.1,0,0.1,0l0,0
				l0,0l0,0c0.1,0,0.1-0.3,0.1-0.3c0.8,0,1.6,0,2.4,0c-0.8,0-1.6,0-2.4-0.1l0,0l0,0l0,0c0,0,0,0,0.1-0.1l0,0l0-0.1l0,0l0,0
				c0,0,0,0,0-0.1c0,0,0,0,0-0.1l0,0c0-0.1,0-0.2,0-0.2c0,0,0-0.1,0-0.1l0,0l0-0.1l0,0l0,0l0,0l0,0c0,0,0,0-0.1,0
				c0,0-0.1-0.1-0.1-0.1l0,0l0,0c0,0,0,0-0.1,0c0,0,0,0,0,0.1c0,0,0,0,0,0c0,0,0,0,0,0.1c-0.1,0-0.2,0-0.3,0l0,0l0,0l0,0l0,0
				L18,10.4l-0.1-0.1c0,0-0.1,0-0.1,0l0,0l0,0c0,0,0,0.1,0,0.1l0,0l0,0l0,0l0,0c0,0,0,0-0.1,0c0,0-0.1,0-0.1,0h0l0,0l0,0l0,0
				c0,0,0,0-0.1-0.1l0,0l0,0l0,0l0,0c0,0,0,0,0,0.1c0,0,0,0.1,0,0.1l0,0.1l0,0.1l0,0l0,0c0,0,0-0.1,0-0.1l0,0l0,0l0,0c0,0,0,0,0-0.1
				l0,0l0,0l0,0l0,0l0,0c0,0,0-0.1-0.1-0.1c0,0,0,0,0-0.1c0,0,0,0,0-0.1c0-0.1-0.2-0.2-0.1-0.3c0,0,0,0,0.1,0l0-0.1c0,0,0,0,0,0
				c0,0,0,0,0-0.1c-0.3-0.1-0.3-0.1-0.4-0.1c0,0,0,0.1,0,0.1c0,0,0,0,0,0c0,0,0,0-0.1,0c0,0-0.1,0-0.1-0.1l-0.1,0c0,0,0,0,0,0.1
				c0.1,0.1,0.1,0.1,0.2,0.1c0.1,0.2,0.1,0.2,0.2,0.3c0,0,0-0.1,0-0.1c0.1,0,0.1,0.1,0.1,0.1c0,0-0.1,0-0.1,0c0,0,0,0.1,0,0.1
				c0,0,0,0,0,0c0,0,0,0-0.1,0c0,0-0.1,0-0.1-0.1c0,0,0,0-0.1,0c0,0,0,0,0,0.1c0,0,0,0,0,0.1c0,0-0.1,0.1-0.1,0.1c0,0,0,0-0.1,0
				c0,0-0.1,0-0.1,0c0,0,0-0.1,0-0.1c-0.1-0.1-0.1-0.1-0.1-0.1c0,0,0,0,0,0.1c-0.1,0-0.1,0-0.2-0.2c0,0,0,0,0,0c0,0,0,0,0,0.1
				c0,0,0.1,0,0.1,0c0-0.1,0-0.1-0.1-0.2c-0.2,0-0.2-0.1-0.2-0.2c-0.1-0.1-0.1-0.1,0-0.3c-0.1-0.2-0.3-0.2-0.4-0.3c0,0,0,0,0,0
				c-0.3,0-0.4-0.4-0.7-0.4c0-0.1-0.1-0.2-0.2-0.1c0,0,0,0.1,0,0.1c0,0,0,0,0,0l0,0c0,0,0,0.1,0,0.1c0,0,0.1,0,0.1,0
				c0,0,0,0.1,0,0.1c0,0,0,0,0,0c0.2,0.2,0.2,0.2,0.2,0.2c0.2,0.2,0.3,0.2,0.3,0.2c0.1,0.2,0.3,0.2,0.4,0.3c0,0.2,0,0.2,0,0.2
				c-0.1-0.1-0.1-0.1-0.2-0.1c-0.1,0-0.1,0-0.2,0.1c0,0,0,0,0,0.1c0,0,0.1,0,0.1,0c0,0,0,0,0,0.1c-0.1,0.1-0.2,0.3-0.4,0.3
				c0,0.1,0,0.1,0,0.2c-0.1,0-0.2,0-0.3,0c-0.1,0-0.2-0.2-0.3-0.2c0,0,0,0,0,0c0.1,0,0.6-0.1,0.7-0.1c0-0.2-0.3-0.5-0.8-0.8
				c0,0,0-0.1-0.1-0.1c-0.2-0.1-0.2-0.4-0.4-0.4c-0.1,0.1-0.2,0.1-0.2,0.1c0,0,0,0-0.1,0c-0.1,0.1-0.1,0.1-0.1,0.2c0,0,0,0-0.1,0
				c0,0,0,0-0.1,0c-0.1,0-0.1,0-0.2-0.1h0h0h0l0,0h0h0h0c0,0,0,0,0,0c-0.3-0.1-0.3,0.1-0.3,0.3c0,0,0,0,0,0c0,0,0,0.1-0.1,0.1
				c0,0-0.5,0.1-0.6,0.2c-0.1,0.2-0.1,0.2-0.1,0.2c0,0,0.1,0.1,0.1,0.1c0,0,0,0.1-0.1,0.1c-0.4,0-0.7,0.3-1.1,0.4l0,0c0,0,0,0-0.1,0
				c0,0,0-0.1-0.1-0.1c-0.1-0.1-0.1-0.1-0.1-0.1c0,0-0.1,0-0.1,0c-0.1-0.1-0.1-0.1-0.2-0.1c0,0-0.1,0-0.1,0c0-0.1,0-0.1,0.1-0.2l0,0
				c0,0,0,0,0-0.1c0-0.1,0-0.1,0.1-0.4c0-0.1,0-0.2,0-0.2c-0.1-0.1,0.1-0.3,0-0.4l0,0c0.1,0,0.1,0,0.2,0c0,0,0,0,0,0l0,0
				c0,0,0,0,0.2,0.1c0.1,0,0.2,0,0.4,0c0.1,0.1,0.2,0.1,0.3,0.1c0,0,0,0,0.1,0c0,0,0.1,0,0.1-0.1c0.2-0.4,0.2-0.4,0.2-0.5
				c0-0.1-0.1-0.1-0.1-0.1c0-0.1,0-0.1,0-0.2c0,0,0,0-0.1-0.1c0,0,0,0-0.1,0c0,0-0.1-0.1-0.1-0.1c0,0,0,0,0-0.1c0.1,0,0.1,0,0.2-0.1
				c0,0,0,0,0,0.1c0.1,0,0.2,0,0.3,0c0,0,0,0,0,0l0,0c0,0,0,0,0-0.1c0,0,0,0-0.1,0c0,0,0-0.1,0.1-0.1c0,0,0,0,0.1,0c0,0,0,0,0,0
				c0,0,0,0,0.1,0c0,0,0,0,0,0c0,0,0.1,0,0.1,0c0,0,0-0.1,0-0.1c0.1,0,0.1,0,0.2,0c0-0.1,0-0.1,0.1-0.2c0,0,0,0,0.1,0c0,0,0,0,0.1,0
				c0.2-0.1,0.2-0.1,0.3-0.1c0,0,0-0.1,0-0.1l-0.1,0c0,0,0,0,0-0.1c0,0,0,0,0.1,0c0,0,0,0,0,0c0,0,0,0,0.1,0
				c0.3-0.2,0.3-0.2,0.5-0.2c0,0,0,0,0.1,0c0,0,0,0,0.1,0c0,0,0,0,0.1,0c0,0,0,0,0-0.1c0,0,0-0.1,0-0.1l0-0.1c0,0,0,0,0,0
				c0-0.1-0.1-0.2,0-0.3c0,0,0.1,0,0.1-0.1c0,0,0,0,0,0c0,0,0,0,0-0.1c0,0,0,0,0.2-0.1c0,0,0,0,0.1,0.3c0,0,0,0,0.1,0c0,0,0,0,0,0.1
				c0,0,0,0,0,0c0,0,0,0,0,0.1h0c0,0,0,0,0,0c0,0,0,0,0.2-0.1c0,0,0,0,0.1,0c0,0.2-0.1,0.3-0.1,0.3c-0.1,0-0.1,0-0.2-0.1
				c0,0-0.1,0-0.1,0c0,0,0,0,0,0.1c0,0,0,0,0,0.1c0,0,0,0,0.1,0c0,0,0.1,0.1,0.1,0.1c0,0,0,0,0.1,0c0,0,0,0,0.1,0c0,0,0,0,0-0.1
				c0,0,0,0,0.1,0c0,0,0,0,0.1,0c0,0,0.1,0,0.1,0l0.1,0c0,0.2,0.1,0.2,0.6-0.1c0.1,0,0.1,0.1,0.2,0.2l0,0l0,0c0,0-0.1-0.1-0.1-0.1
				c0.1,0,0.1,0,0.3,0l0,0c0,0,0,0,0,0c0,0,0.1-0.3,0.1-0.4c0,0,0.1-0.1,0.1-0.1c0,0,0,0,0.1,0c0,0,0,0,0,0.1c0,0,0,0,0.1,0
				c0,0,0,0,0,0.1c0,0,0,0,0.1,0c0,0,0,0,0.1,0c0,0,0.1-0.1,0.1-0.1c0,0,0,0,0-0.1c-0.1,0-0.1-0.1-0.2-0.2c0,0-0.1,0.1-0.1,0.1
				c-0.1,0-0.1,0-0.2,0c0,0,0,0,0-0.1c0,0,0.1,0,0.1-0.1h0h0h0h0h0h0h0c0,0,0,0,0,0l0,0l0,0c0,0,0,0,0,0c0,0,0,0,0,0c0,0,0,0,0,0
				l0,0l0,0c0,0,0,0,0,0l0,0l0,0c0,0,0,0,0,0c1.2,0,2.3,0.1,3.4,0.1c-1.1,0-2.3,0-3.4-0.1c0,0,0,0,0-0.1c0,0,0,0,0.1,0
				c0.2-0.1,0.3,0.1,0.5,0c0.1-0.2,0.1-0.2,0.3-0.2l0,0l0,0c0,0-0.1,0-0.2,0c0,0,0,0,0-0.1h0c0,0-0.1,0-0.1,0c-0.1,0-0.2,0-0.3,0
				l0,0c-0.1,0-0.2,0-0.3,0.1c0,0,0,0,0,0c0,0-0.3-0.2-0.4-0.2c0,0,0-0.1,0-0.1l0,0c0-0.1,0-0.2,0-0.3C16,4.2,16,4.2,16,4
				C16,4,16,4,16,4c0,0,0-0.1,0-0.1c0,0,0,0-0.1-0.1l0,0c0,0,0,0-0.1-0.1h0h0h0h0h0h0h0h0c-0.1,0-0.1,0-0.1,0c0,0.1-0.1,0.2,0,0.3
				l0,0c-0.1,0-0.1,0-0.1,0c0,0-0.1,0.2-0.3,0.2c-0.1,0.2-0.1,0.2-0.1,0.2c0,0.1,0,0.2,0,0.3c0,0,0,0,0.1,0c0,0,0,0,0,0.1
				c0.1,0,0.1,0,0.2,0c0,0,0,0,0,0c0,0,0,0,0,0.1c-0.1,0.1-0.1,0.1-0.1,0.1c0,0-0.1,0-0.1,0c-0.3,0-0.6,0-0.9-0.1c0,0,0,0,0,0
				c0,0,0-0.1-0.1-0.1c0,0,0,0,0,0.1c-0.1,0-0.1,0-0.2,0.1c-0.2,0-0.4,0-0.5,0c0,0,0,0,0.1-0.1c-0.1,0-0.1,0-0.1,0c0,0,0,0,0,0
				c0,0,0,0,0.1-0.1c0,0,0,0,0.1-0.1l0,0c0,0,0,0,0,0c0,0-0.1,0-0.1,0c0,0,0,0,0-0.1c0,0,0,0,0,0c0-0.2,0-0.2,0.1-0.2
				c0,0,0-0.1,0-0.1c0.1-0.1,0.2,0,0.2-0.2c0.1,0,0.1-0.1,0.2-0.1h0h0h0l0,0h0h0h0c0,0,0,0,0,0c0,0,0.1,0,0.1,0c0,0,0,0,0,0l0,0
				c0,0,0,0,0.1,0c0,0,0.1,0,0.1,0c0.1-0.1,0.3-0.1,0.3-0.3c0,0,0,0-0.1,0c0,0,0,0,0,0l0,0c0.1-0.1,0.2-0.1,0.2-0.1l0,0
				c0-0.1,0.1-0.1,0.1-0.2c0,0,0.1-0.1,0.1-0.1c0,0,0,0,0.1,0c0-0.1,0-0.1,0-0.1c0.1,0,0.1,0,0.1,0c0,0,0,0,0,0c0,0-0.1,0-0.2,0.1
				c-0.1,0-0.1,0-0.1,0c0,0,0,0,0,0l0,0l0,0l0,0l0,0c0,0,0,0,0.1,0l0,0l0,0c0,0,0,0,0.1,0c0,0,0,0,0-0.1c0,0,0,0,0,0
				c0,0,0,0.1,0,0.1c0.1,0,0.1,0,0.1,0l0,0c0,0,0,0,0,0c0,0,0,0-0.1,0c0,0,0,0,0,0c0,0,0,0,0,0l0,0c0,0,0,0,0,0.1c0,0,0.1,0,0-0.2
				c0,0,0,0,0,0c0.1,0,0.1,0.1,0.2,0.1c0,0,0,0,0,0.1c0,0,0,0,0-0.1c0,0,0,0,0.1,0c0.1,0,0.1,0,0.1,0c0,0,0,0,0,0c0,0,0,0,0-0.1
				c-0.1,0-0.1,0-0.1-0.1c0,0,0,0,0.1,0c0,0,0,0,0.1,0c0,0,0,0,0,0l0,0h0c0,0,0,0,0-0.1c0,0,0.1,0,0.1,0l0,0l0,0l0,0.1
				c0,0,0,0,0.1,0c0,0,0,0,0,0.1l0,0c0,0,0,0,0,0c0,0,0-0.1,0-0.1l0.1,0c0,0,0,0,0,0l0,0c0,0,0,0,0,0c0,0,0,0,0,0c0,0,0,0,0-0.1
				c0.2,0,0.2,0.1,0.2,0.1c0,0,0,0,0,0c0,0,0,0,0,0c0,0,0,0,0,0c0.1,0,0.1,0,0.2,0.1l0,0c0,0,0,0,0.1,0c0,0.1,0,0.1,0.1,0.1
				c0,0,0,0,0,0c0,0,0,0,0,0l0,0c0,0,0,0,0,0l0,0c0,0,0,0,0.1,0c0,0,0.1,0,0.1,0.1c0,0,0,0,0,0c0.1,0,0.1,0,0.1,0c0,0,0.1,0,0.1,0
				l0.4,0.1c0,0,0.5,0.2,0,0.4h0c0,0,0,0-0.1,0c-0.1,0-0.1,0-0.2-0.1c-0.1,0-0.1,0-0.2,0c0,0-0.3-0.1-0.4-0.2
				c0.1,0.2,0.3,0.2,0.4,0.4l0,0.1c0,0,0.1,0,0.1,0l0.3,0.3l0,0c0,0,0.1,0,0.1,0c0,0,0,0,0,0c-0.1,0-0.1-0.1-0.1,0c0,0,0,0,0,0l0,0
				c-0.1,0-0.1-0.1-0.1-0.1c0,0,0,0,0.1,0c0,0,0.1,0.1,0.3,0.1c0,0,0,0,0,0c0,0,0,0,0.2,0l0,0C18,4,17.9,4,17.8,3.9l0,0c0,0,0,0,0,0
				c0-0.1,0-0.1,0.1-0.1c0,0,0-0.1,0-0.1c0.2,0,0.2,0,0.2,0l0,0c0,0,0,0,0.1,0c0,0-0.1-0.1-0.1-0.1l0,0c-0.1-0.1-0.1-0.1-0.1-0.1
				C18,3.5,18,3.5,18.1,3.5c0,0-0.1-0.1-0.1-0.2c0,0,0,0,0,0c0,0,0,0,0-0.1c0,0,0,0,0,0c0.1,0,0.1,0,0.1,0h0c0,0,0,0,0,0
				c0.1,0,0.1,0,0.1,0.1c0,0,0,0,0.1,0c0,0,0,0.1,0.1,0.1c0,0-0.1,0-0.1,0c0,0,0,0,0.2,0.2c0,0,0,0,0,0c0.1,0,0.1,0,0.1-0.1
				c0,0,0,0-0.1-0.1l0,0c0,0,0.1,0,0.1,0c0-0.1,0-0.1,0.1-0.1c0,0,0,0,0,0c0,0,0,0,0,0c0,0,0,0,0,0c0,0,0,0,0,0l0,0c0,0,0,0,0,0l0,0
				c0.1,0.1,0.1,0.1,0.2,0.2c0,0,0,0,0.1,0c0,0,0,0,0-0.1c0,0,0,0,0,0c0,0,0,0,0,0c0,0,0,0,0,0c0,0,0,0,0,0c0.6,0.6,1.1,1.3,1.6,2.1
				c-0.5-0.8-1-1.5-1.5-2.1l0,0h0l0,0l0,0l0,0c0,0,0,0,0,0c0,0,0,0,0.1,0.1l0,0c0,0,0-0.1,0-0.1c0,0,0,0,0,0
				c-0.1-0.2-0.4-0.2-0.5-0.3v0c0,0,0,0,0,0c0,0,0.1,0,0.1,0c0.1,0,0.1,0.1,0.2,0.1c0,0,0.1,0,0.1,0c0,0,0.1,0,0.1,0
				c0,0,0.1,0,0.1,0c0.6,0.3,0.6,0.3,0.6,0.3c0,0,0,0,0,0c-0.1-0.1-0.1-0.1-0.2-0.1c-0.3-0.1-0.3-0.1-0.4-0.2c0,0-0.1-0.1-0.2-0.1
				c0,0,0,0,0,0l0,0c0,0,0,0,0,0l0,0c0,0,0,0,0,0c0,0-0.2-0.2-0.3-0.3l0,0l0,0l0,0l0,0c0,0,0.1,0,0.1,0l0.2,0.1c0,0,0,0,0,0
				c0.1,0,0.1,0.1,0.2,0.1c0.2,0.1,0.2,0.1,0.4,0.3c0,0,0,0,0,0c0.5,0.4,0.5,0.4,0.5,0.4c0.1,0.1,0.1,0.2,0.1,0.2c0,0-0.1,0-0.1,0
				c0,0,0,0,0,0.1l0,0c0,0,0.1,0,0.1,0c0.1,0,0.1,0,0.1,0l0,0c0,0,0,0,0,0c0,0,0,0,0-0.1l0,0c0,0-0.3-0.3-0.4-0.4l0,0
				c0,0,0.1,0,0.2,0.1c-0.1-0.1-0.2-0.2-0.4-0.2c0,0,0,0,0,0c0,0,0,0,0,0c0,0,0,0-0.1,0c-0.1,0-0.2-0.1-0.3-0.2l0,0c0,0,0,0-0.4-0.2
				l0,0c0,0-0.1-0.1-0.1-0.1l0,0c0,0,0,0,0,0c0,0,0,0-0.2-0.1h0h0h0h0c0,0,0,0,0,0c0.1,0,0.1,0,0.3,0.2c0,0,0,0,0.1,0
				c0.1,0.1,0.3,0.1,0.4,0.1c0,0-0.1-0.1-0.2-0.1l0,0h0h0h0h0h0h0c0,0,0,0,0,0c0,0-0.1,0-0.2-0.1h0c0.1,0,0.1,0,0.1,0
				c-0.1,0-0.1,0-0.1-0.1l0,0l0,0l0,0c0,0,0.1,0,0.1,0c0,0,0,0,0.1,0C20,2.7,20,2.7,20,2.7l0,0c0,0,0,0,0,0
				c-0.1-0.1-0.1-0.1-0.1-0.1l0,0c-0.1,0-0.4-0.2-0.4-0.2c0,0,0,0,0,0l0,0l0,0c0,0,0,0,0,0c0,0,0,0,0.1,0l0,0l0,0l0,0c0,0,0,0,0,0
				C19.1,2.1,19.1,2.1,19,2l0,0C19,2,19,2,19,2l0,0c0,0-0.1,0-0.1-0.1l0,0c0,0,0,0,0,0c0.1,0,0.1,0,0.1,0c0,0,0,0-0.1,0c0,0,0,0,0,0
				h0c0,0,0,0,0,0c0,0,0,0-0.1,0l0,0c-0.1,0-0.1,0-0.4-0.2l0,0c0,0,0.1,0,0.1,0c0.1,0,0.2,0.1,0.2,0.1l0,0c0,0,0.1,0,0.1,0
				c0,0,0,0,0.1,0l0,0l0,0c0,0-0.1,0-0.1,0c0,0,0,0,0.1,0c0,0,0,0-0.1,0l0,0c0,0,0,0,0,0c0.1,0,0.2,0.1,0.3,0.1l0,0
				c0.1,0,0.1,0.1,0.2,0.1c0,0,0,0,0,0c0,0,0.1,0,0.1,0.1c0,0,0,0,0,0c0.1,0.1,0.1,0.1,0.2,0.1v0c0,0,0,0,0.1,0c0,0,0,0,0.1,0
				c0,0,0,0,0,0c0.1,0,0.3,0.2,0.3,0.2l0,0c0,0,0,0,0,0l0,0l0,0l0,0c0,0,0,0-0.1,0c0,0,0,0,0,0c0,0-0.1,0-0.1,0l0,0l0,0
				c-0.1,0-0.1-0.1-0.2-0.1l0,0c0,0,0,0,0,0c0.1,0,0.1,0.1,0.1,0.1c0,0,0.1,0,0.1,0c0,0-0.1,0-0.1,0c0.1,0,0.1,0.1,0.2,0.1h0l0,0
				l0.8,0.4c0.5,0.3,0.7,0.4,1.7,1.1c0.5,0.4,0.5,0.4,1.5,1.4l0.1,0.1c0.4,0.4,0.9,1.1,1.2,1.5c0.3,0.5,0.4,0.7,1,1.8c0,0,0,0,0,0
				c0,0,0,0,0,0l0,0c0.3,0.6,0.3,0.6,0.8,1.9l0.2,0.7c0.1,0.4,0.2,0.9,0.3,1.4c0,0,0,0,0,0l0,0.2c0,0,0,0.1,0,0.1c0-0.1,0-0.2,0-0.3
				c0,0.3,0.1,0.8,0.1,1.1c0,0,0,0,0,0c0,0,0,0.1,0,0.1l0,0c0,0.1,0,0.2,0,0.3C27.7,14.2,27.7,14.2,27.7,14.5z M21,3.6
				C21,3.6,21,3.6,21,3.6C21,3.5,20.9,3.5,21,3.6c-0.1-0.1-0.2-0.1-0.2-0.1c0,0,0,0,0,0C20.9,3.5,20.9,3.5,21,3.6z M26.8,17.9
				C26.8,17.9,26.8,18,26.8,17.9c0,0.1,0,0.1,0,0.1c0,0,0,0,0,0.1l0,0l0,0l0,0l0,0l0,0c0,0,0,0,0,0C26.8,18,26.8,18,26.8,17.9
				C26.8,18,26.8,18,26.8,17.9L26.8,17.9z M15.1,5.4C15.1,5.3,15.1,5.3,15.1,5.4c-0.2-0.1-0.5-0.1-0.9-0.1c0,0,0.1,0.1,0.1,0.1v0
				c0,0,0,0,0,0c0,0,0,0.1,0,0.1l0,0c0,0,0,0,0,0.1c0,0,0,0,0,0l0,0c0,0.1,0,0.1,0.1,0.1c0,0,0,0,0,0.1c0,0,0,0.1,0,0.1l0,0
				c0,0,0,0,0,0.1c0.1,0,0.2,0,0.2,0c0-0.1,0-0.2,0.1-0.1c0,0,0,0,0,0l0,0c0,0,0,0,0.1,0c0,0,0,0,0.1,0c0,0,0-0.1,0-0.1
				c0,0,0.1,0,0.1,0c0,0,0,0,0-0.1c0,0,0,0-0.1,0c-0.1,0-0.1,0-0.1,0l0,0l0,0C15,5.5,15,5.5,15.1,5.4C15.1,5.4,15.1,5.4,15.1,5.4z
				 M19.1,2.4L19.1,2.4C19.1,2.4,19,2.4,19.1,2.4c-0.1-0.1-0.1-0.1-0.1-0.1l0,0v0l0,0L19.1,2.4L19.1,2.4L19.1,2.4L19.1,2.4L19.1,2.4
				L19.1,2.4L19.1,2.4L19.1,2.4z M20.1,2.3L20.1,2.3L20.1,2.3L20.1,2.3z M27.2,18.1c0-0.1,0-0.1,0.1-0.2c0,0,0,0,0-0.1L27.2,18.1
				C27.2,18.1,27.2,18.1,27.2,18.1z M1,14.5l0-0.2l0-0.1l0,0c0,0.2,0,0.4,0,0.5l0-0.1C1,14.6,1,14.5,1,14.5z M13.4,5.3
				C13.4,5.3,13.4,5.3,13.4,5.3L13.4,5.3c0.1,0.1,0.1,0.1,0.1,0.1l0,0c0,0,0,0,0,0.1c0,0,0,0,0.1,0c0,0,0,0,0.1,0c0,0,0,0,0,0
				c0,0,0.1,0,0.1,0c0,0,0,0,0,0c0,0,0,0,0.1,0c0,0,0,0,0,0l0,0c0,0,0,0,0,0C13.8,5.3,13.6,5.3,13.4,5.3L13.4,5.3
				C13.4,5.3,13.4,5.3,13.4,5.3z M20.1,2.3L20.1,2.3L20.1,2.3C20.1,2.3,20.1,2.3,20.1,2.3C20.1,2.3,20.1,2.3,20.1,2.3z M20.1,2.3
				L20.1,2.3L20.1,2.3C20.1,2.3,20.1,2.3,20.1,2.3z M1.6,13.7L1.6,13.7C1.5,13.7,1.5,13.7,1.6,13.7L1.6,13.7c-0.1,0-0.1,0-0.1,0l0,0
				c0,0,0,0,0,0c0,0,0,0,0-0.1c0,0,0,0,0-0.1c0,0,0,0,0,0l0,0l0,0c0,0,0,0,0,0c0,0,0,0,0,0c0,0.1,0,0.2,0,0.3c0,0.1,0,0.2,0,0.2l0,0
				c0,0,0,0,0-0.1c0,0,0,0,0,0c0,0,0,0,0,0l0,0l0,0c0,0,0,0,0,0c0,0,0.1,0,0.1,0c0,0,0,0,0,0c0,0,0.1,0,0.1,0l0,0c0,0,0,0,0,0l0,0
				c0,0,0,0,0,0C1.6,13.8,1.6,13.7,1.6,13.7C1.6,13.7,1.6,13.7,1.6,13.7z M6.5,3.5L6.5,3.5L6.4,3.6l0.2-0.2L6.5,3.5z M9.3,2.1L9.5,2
				v0l0,0L9.3,2.1l-0.2,0l0,0L9.3,2.1L9.3,2.1z M6.7,3.4L6.7,3.4L6.7,3.4L6.7,3.4z M6.8,3.4L6.8,3.4C6.8,3.3,6.8,3.3,6.8,3.4
				L6.8,3.4z M7.7,2.8L7.5,2.9L7.3,3L7.3,3L7.4,3L7.7,2.8L7.7,2.8c0,0,0.1-0.1,0.2-0.1L7.7,2.8z M7,3.2L7,3.2L6.9,3.2L6.8,3.3l0,0
				c0,0,0,0,0.1,0L7,3.2L7,3.2z M1,15.5C1,15.5,1,15.5,1,15.5C1,15.5,1,15.5,1,15.5L1,15.5L1,15.5L1,15.5z M9.4,2.3
				C9.4,2.4,9.3,2.4,9.4,2.3L9.3,2.4C9.3,2.4,9.3,2.4,9.4,2.3C9.3,2.4,9.3,2.4,9.4,2.3C9.4,2.4,9.4,2.4,9.4,2.3c0,0.1,0,0.1,0,0.2h0
				h0h0h0h0v0c0,0,0,0.1-0.1,0.1l0,0c0,0,0,0,0,0l0,0c0,0,0,0,0,0l0,0L8.8,2.7c0,0,0,0-0.1,0.1c0.1,0,0.1,0,0.1,0
				c0,0,0.1-0.1,0.1-0.1l0,0l0,0c0,0,0,0,0,0l0,0c0,0,0,0,0,0l0,0c0,0,0,0,0,0c0,0-0.1,0-0.1,0.1c0,0,0,0,0,0c0,0,0,0-0.1,0.1
				c0,0-0.1,0-0.1,0.1c0,0,0,0-0.1,0c0,0-0.1,0-0.1,0h0c0,0,0,0,0,0C8.5,3,8.5,3,8.4,3c-0.1,0-0.1,0-0.2,0.1c0,0,0,0,0,0
				C7.9,3.4,7.9,3.4,7.9,3.5c0,0,0.1,0,0.1,0c0,0,0,0,0,0c0,0,0,0-0.1,0c0,0,0,0,0,0C7.7,3.7,7.7,3.7,7.6,3.7c0.1,0,0.1-0.1,0.2-0.1
				c0,0-0.1,0.1-0.1,0.1C7.5,3.9,7.3,4,7.2,4.4l0,0c0,0,0,0.1,0,0.1c0,0,0,0,0,0c0,0,0,0,0,0c0,0,0,0,0,0c0,0,0,0,0,0.1
				c0,0,0,0,0,0.1c0,0,0,0,0,0.1c0,0,0.1,0,0.2-0.1c0,0,0,0,0,0C7.9,4.1,8,4.1,8,4.1c0,0,0,0,0,0C8.2,4.1,8.2,4,8.3,4
				c0,0,0.1-0.1,0.1-0.1c0.1,0,0.1,0,0.4-0.3c0,0,0.1,0,0.1,0C9,3.5,9,3.5,9,3.5c0,0,0,0,0.1,0C9,3.5,9,3.5,9,3.6
				c0.1,0,0.2-0.1,0.2-0.1c0,0,0,0,0,0c0.1,0,0.1,0,0.1,0c0.1,0,0.1-0.1,0.2-0.1c0,0,0,0,0.1-0.1l0.1,0c0,0,0,0,0,0
				C9.9,3.1,9.9,3.1,10,3.1l0,0c0,0,0,0,0,0l0,0l0,0l0,0l0,0l0,0l0,0c0,0,0,0,0.1,0l0,0c0.3,0,0.5-0.2,0.8-0.3c0,0,0.1,0,0.1,0
				c0.1,0,0.1,0,0.1-0.1l0,0c0,0,0,0-0.1,0l-0.1,0c0,0,0,0,0,0c0,0,0,0,0,0c0,0,0,0,0,0c0,0,0,0,0,0l0,0l0,0c0,0,0,0,0.1,0l0,0
				c0.1,0,0.1,0,0.2,0c-0.1,0.1-0.1,0.1-0.1,0.1l0,0l0,0c0.1-0.1,0.3-0.1,0.3-0.2c0.1-0.1,0.1-0.1,0.1-0.2c0,0,0,0,0,0c0,0,0,0,0,0
				c0,0,0,0,0,0c0,0,0,0,0.1-0.1c0,0,0,0,0,0c0,0,0,0,0-0.1c0,0,0,0-0.1,0c0,0,0,0-0.1,0c0,0,0,0,0.1,0c0,0,0,0,0,0l0,0
				c0,0,0,0,0.1,0c0,0,0,0-0.1,0c0,0,0,0,0.1,0c0,0,0,0,0.1,0c0,0,0,0,0,0C12,2.2,12,2.2,12,2.1c0,0-0.1,0-0.1,0c0,0,0,0,0.2,0
				c0,0,0,0,0.1,0c0,0,0,0,0,0c0,0,0,0,0.1,0l0,0c0,0,0,0,0.1-0.1c0,0,0,0,0.1,0c0,0,0,0,0.1-0.1c0,0,0,0,0.1-0.1c0,0,0,0,0,0
				c0,0,0,0,0,0l0,0l0,0c0,0,0,0,0.1,0c0,0,0,0,0,0l0,0c-0.1,0-0.1,0-0.1,0.1l0,0c0.1,0,0.1-0.1,0.2-0.1c0,0,0,0,0,0c0,0,0,0,0,0
				c0,0,0,0,0,0c0,0,0,0,0,0c0,0,0,0,0.1,0c0,0,0,0,0,0c0,0,0,0,0.1,0c0,0,0,0-0.1,0c0,0,0.1,0,0.1-0.1c0,0,0,0,0.2-0.1l0,0
				c0.1,0,0.1,0,0.1,0c0,0,0,0,0,0c0,0,0.1,0,0.4-0.1l0,0c0,0,0,0-0.1,0l0,0c0,0,0.1,0,0.1,0c0,0,0,0,0,0c0,0,0.1,0,0.1,0
				c0,0,0,0,0,0c0.1,0,0.1,0,0.1,0l0,0c0,0,0,0,0,0l0,0l0,0h0h0l0,0c0,0,0,0,0,0c0,0-0.2,0-0.3,0h0h0l0,0h0h0h0c0,0,0,0,0,0
				c-0.1,0-0.1,0-0.2,0c0.1,0,0.1,0,0.2-0.1c0,0,0,0,0.1,0c0.1,0,0.1,0,0.1,0l0,0c-0.1,0-0.2,0-0.3,0c0.1,0,0.1,0,0.1,0c0,0,0,0,0,0
				l0,0l0,0c0,0,0,0,0,0c0,0,0,0-0.1,0c0,0-0.1,0-0.1,0h0h0h0h0c0,0,0,0,0,0v0l0,0h0c0,0,0,0,0,0c0,0,0,0,0,0c0,0,0.1,0,0.2,0
				c0,0,0,0,0.1,0l0,0c0,0,0,0,0.1,0c0,0,0,0,0.1,0c0,0,0,0,0.1,0h0c0,0,0,0,0,0c0,0,0,0,0,0c0,0,0,0,0,0c0,0,0,0,0,0l0,0h0l0,0h0
				l0,0l0,0l0,0c0,0,0,0,0,0c0,0,0,0,0,0c0,0,0,0,0.1,0c0,0,0.1,0,0.1,0l0,0l0,0c0,0,0,0,0,0c0,0-0.1,0-0.1,0l0,0l0,0
				c-0.1,0-0.1,0-0.2,0c0,0,0,0,0,0c0,0,0,0,0,0c0,0-0.1,0-0.1,0c0,0,0,0,0,0h0c0,0,0,0,0,0c0,0-0.1,0-0.1,0l0,0l0,0c0,0,0,0,0,0
				l0,0l0,0c0,0-0.1,0-0.1,0l0,0l0,0l0,0l0,0l0,0l0,0l0,0h0l0,0l0,0l0,0h0l0,0l0,0l-0.1,0l0,0l0,0l0,0l0,0l0,0l0,0l0,0l0,0l0,0l0,0
				l0,0l0,0l0,0l-0.1,0l0,0l0,0c0,0,0,0,0,0l0,0l0,0l0,0c0,0,0,0,0,0l0,0l0,0l0,0l0,0l0,0l0,0h0l0,0l0,0l0,0l0,0l0,0c0,0,0,0,0,0
				c0,0-0.1,0-0.1,0l0,0l0,0l0,0l0,0l0,0c0,0,0,0-0.1,0l0,0c0,0,0,0-0.1,0l0,0h0l0,0h0l0,0l0,0l0,0l0,0l0,0l0,0l0,0l0,0l0,0l0,0l0,0
				l0,0l0,0l0,0l0,0l0,0l0,0h0c0,0,0,0-0.1,0c0,0-0.1,0-0.1,0l0,0l0,0l0,0c0,0-0.1,0-0.1,0l0,0h0l0,0c0,0,0,0,0,0c0,0,0,0,0,0
				c0,0,0,0,0.1,0l0,0l0,0l0,0l0,0l0,0l0,0l0,0c0,0,0,0,0.1,0l0,0l0,0l0,0l0,0l0,0l0,0l0,0l0,0l0,0l0,0l0,0l0,0l0,0l0,0h0h0l0,0l0,0
				h0h0h0l0,0l0,0l0,0h0l0,0v0l0,0l0,0l0,0l0,0l0,0l0,0l0,0l0,0l0,0l0,0h0h0l0,0l0,0l0,0l0,0l0,0l0,0l0,0h0l0,0l0,0l0,0l0,0l0,0l0,0
				h0l0,0l0,0l0,0l0,0l0,0l0,0c0,0,0,0,0,0l0,0l0,0l0,0l0,0l0,0c0,0-0.1,0-0.1,0l0,0l0,0l0,0c-0.1,0-0.1,0-0.2,0l0,0l0,0l0,0l0,0
				c0,0,0,0-0.1,0c0,0-0.1,0-0.1,0c0,0,0,0-0.1,0l0,0l0,0h0h0l0,0l0,0l0,0l0,0l0,0l0,0l0,0l0,0c0,0-0.1,0-0.1,0l0,0c0,0,0,0-0.1,0
				c0,0,0,0,0,0l0,0l0,0c0,0,0,0,0,0l0,0l0,0c0,0-0.1,0-0.1,0l0,0l0,0l0,0c0,0-0.1,0-0.1,0c0,0-0.1,0-0.1,0l0,0l0,0l0,0l0,0l0,0l0,0
				l0,0l0,0l0,0l0,0c0,0,0,0,0,0c0,0,0,0,0,0l0,0c0,0,0,0,0,0l0,0l0,0h0l0,0l0,0l0,0l0,0l0,0l0,0l0,0c-0.1,0-0.2,0.1-0.3,0.1l0,0
				l0,0l0,0l0,0l0,0l0,0l0,0c0,0,0,0,0,0l0,0h0c0,0-0.1,0-0.1,0c0,0,0,0,0,0l0,0c0,0,0,0-0.1,0h0h0l0,0h0l0,0l0,0l0,0h0v0l0,0l0,0h0
				l0,0h0c0,0,0,0-0.1,0l0,0c0,0-0.1,0-0.1,0l0,0c0,0,0,0-0.1,0l0,0l0,0l0,0l0,0l0,0l0,0l0,0l0,0l0,0l0,0l0,0l0,0l0,0l0,0l0,0l0,0
				l0,0l0,0l0,0c0,0,0.1,0,0.1,0l0,0l0,0l0,0l0,0l0,0c0,0,0,0,0,0l0,0l0,0l0,0l0,0l0,0l0,0l0,0h0h0l0,0l0,0l0,0l0,0l0,0l0,0h0l0,0
				l0,0l0,0l0,0l0,0l0,0l0,0l0,0h0h0l0,0l0,0v0l0,0c0,0-0.1,0-0.1,0.1l0,0l0,0l0,0l0,0l0,0l0,0l0,0l0,0c0,0,0,0,0,0l0,0c0,0,0,0,0,0
				l0,0l0,0l0,0c0,0,0,0-0.1,0c0,0,0,0-0.1,0l0,0l0,0c0,0,0,0,0,0c0,0,0,0-0.1,0.1c0,0-0.1,0-0.1,0.1c0,0,0,0-0.1,0l0,0
				c0,0,0,0-0.1,0l0,0C9.5,2.3,9.4,2.3,9.4,2.3L9.4,2.3z M10.5,4.1c0,0,0.1,0,0.1,0c0,0,0,0,0.1-0.1c0,0,0.1,0,0.1-0.1
				c0,0,0.1,0,0.1,0c0,0,0.1,0,0.1-0.1c0,0,0,0,0.2,0c0,0,0-0.1,0.1-0.1c0,0,0,0,0-0.1c0,0,0,0-0.1,0c0.1-0.1,0.1-0.1,0.1-0.2
				c0,0-0.1,0-0.1,0c0,0,0,0,0,0c-0.1,0-0.1,0.1-0.2,0.1c0,0,0,0-0.1,0c0,0,0,0-0.1,0c-0.1,0-0.1,0.1-0.2,0.1c0,0-0.1,0-0.1,0
				c0,0,0,0,0-0.1c0,0,0,0,0,0c0,0,0,0,0-0.1l-0.1,0c0,0,0,0,0,0.1c0,0-0.2-0.1-0.3,0.1c0,0,0.1,0,0.1,0l0,0l0,0.1c0,0,0,0,0,0.1
				c-0.1,0-0.2,0-0.2,0c0,0,0,0.1,0,0.1c0,0,0,0,0.1,0c0,0,0.1,0,0.1,0l0,0c0,0-0.1,0.1-0.1,0.1l0,0.1c0,0,0,0,0,0c0,0,0.1,0,0.1,0
				c0,0,0,0,0.1,0C10.4,4,10.4,4,10.5,4.1C10.4,4.1,10.4,4.1,10.5,4.1z M9.7,1.8L9.7,1.8L9.7,1.8l0.1,0L9.7,1.8
				c0.1,0,0.2-0.1,0.3-0.1h0l0.2-0.1l0.1,0l0.1,0l-0.1,0l-0.1,0L9.8,1.8C9.7,1.8,9.7,1.8,9.7,1.8L9.7,1.8z M11.3,6.6
				C11.3,6.5,11.3,6.5,11.3,6.6c0.1-0.1,0.1-0.2,0.1-0.2c0,0,0,0,0-0.1c0.1,0,0.1,0,0.1-0.1c0,0,0,0,0-0.1c0,0,0-0.1,0-0.1
				c0,0,0,0,0,0c0,0,0,0,0,0l0,0l0,0c0,0-0.1,0-0.1,0c0,0,0,0,0,0c0,0,0,0,0,0l0,0c0,0,0,0,0,0c0,0,0,0-0.1,0c0,0.1,0,0.1-0.1,0.2
				l0,0h0l0,0c0,0,0,0-0.1,0c0,0,0,0-0.1,0c0,0,0,0,0,0c0,0,0,0,0,0c0,0.1-0.1,0.2-0.1,0.2c0,0,0,0,0.1,0c0,0,0,0.1,0,0.1
				c-0.1,0-0.1,0-0.1,0.1l0,0c0,0,0,0.1,0,0.1c0,0,0,0,0,0l0,0c0,0,0,0,0,0.1c0,0,0.1,0,0.1,0c0,0,0.1,0,0.1,0c0,0,0.1,0,0.1,0
				c0,0,0,0,0,0c0,0,0,0,0,0c0.1,0,0.2,0,0.3,0C11.2,6.7,11.2,6.7,11.3,6.6C11.2,6.6,11.2,6.6,11.3,6.6C11.2,6.6,11.3,6.6,11.3,6.6z
				 M12.5,6.8C12.5,6.8,12.5,6.8,12.5,6.8c0.1-0.1,0.1-0.1,0.1-0.1c0,0,0,0,0-0.1c0,0,0-0.1,0-0.1c0,0,0,0-0.1,0l0,0
				c0,0,0,0.1-0.1,0.1c0,0,0,0,0-0.2c0,0-0.1,0-0.1,0c0-0.1,0.1-0.2,0-0.2c0,0,0,0,0,0l0,0c0,0,0-0.1,0-0.1l0,0c0,0,0-0.1-0.1-0.1
				c-0.1,0-0.1,0-0.1-0.1C12,5.8,12,5.8,12.1,5.8c0,0,0,0,0,0c0-0.1,0.1-0.1,0.1-0.1c0,0,0-0.1,0-0.1c-0.1,0-0.2,0-0.3,0
				C12,5.4,12,5.4,12,5.4c0-0.1,0.1,0,0.1-0.1c0,0,0,0,0,0l0,0c0,0,0,0,0,0c0,0-0.1,0-0.1,0c0,0,0,0.1-0.1,0.1c0,0,0,0.1,0,0.1
				c-0.1,0-0.1,0-0.1,0c0,0,0,0,0,0l0,0c-0.1,0-0.1,0.1-0.1,0.1c0,0,0.1,0,0.1,0l0,0c0,0,0,0,0,0c0,0,0,0.1-0.1,0.1
				c-0.1,0-0.1,0-0.1,0.1l0,0c0,0,0,0,0.1,0c0,0,0,0,0.1,0c0,0,0,0,0,0.1c0,0,0,0,0.1,0c0,0,0,0,0-0.1l0,0c0,0,0,0.1,0,0.1
				c0,0-0.1,0-0.1,0.1c0,0,0,0,0,0.1c0.1,0,0.1,0,0.2,0l0,0c0.1,0.1,0,0.2,0.1,0.2l0,0c0,0,0,0.1,0,0.1c0,0,0,0.1,0,0.1
				c-0.1,0-0.1,0-0.2,0h0c0,0,0,0-0.1,0l0,0c0,0,0,0-0.1,0l0,0c0,0,0.1,0,0.2,0c0,0,0,0,0,0.1c0,0,0,0,0,0c-0.1,0.1-0.1,0.1-0.1,0.1
				l0,0h0h0h0h0h0h0h0c0,0,0,0.1,0,0.1c0.1,0,0.1-0.1,0.2,0c0.1,0,0.1,0,0.2,0c0,0,0,0.1,0,0.1c0,0-0.1,0-0.1,0c0,0-0.1,0-0.1,0.1
				c0,0-0.1,0-0.1,0c0,0.1,0,0.1-0.1,0.2c0,0,0,0,0.1,0c0,0,0,0,0.1,0c0,0,0,0,0.1,0c0,0,0.1,0,0.1,0c0-0.1,0-0.1,0-0.1
				c0.1,0,0.1,0,0.2,0C11.9,7,11.9,7,12,7C12,7,12.1,7,12.1,7l0,0c0.1,0,0.1,0,0.2,0c0.1,0,0.1,0,0.1,0c0,0,0,0,0.1,0l0,0
				C12.4,6.9,12.4,6.9,12.5,6.8C12.4,6.8,12.4,6.8,12.5,6.8C12.4,6.8,12.4,6.8,12.5,6.8z M11.5,5.4L11.5,5.4L11.5,5.4
				c0.1,0,0.1-0.1,0.1-0.1l0,0c0,0,0,0,0,0l0,0c0,0,0,0,0,0l0,0l-0.1,0c0,0,0,0-0.1,0l0,0l0,0L11.5,5.4C11.5,5.4,11.5,5.4,11.5,5.4
				C11.4,5.4,11.4,5.4,11.5,5.4L11.5,5.4C11.5,5.4,11.5,5.4,11.5,5.4z M10.5,1.6L10.5,1.6L10.5,1.6L10.5,1.6L10.5,1.6z M4.7,6.7
				C4.7,6.7,4.7,6.7,4.7,6.7c0.1-0.1,0.1-0.1,0.1-0.2l0,0c0,0,0,0-0.1,0C4.7,6.6,4.7,6.7,4.7,6.7C4.5,6.9,4.4,7,4.2,7.1
				C4.2,7.2,4.2,7.2,4.1,7.3c0.1,0,0.2,0,0.2,0c0,0,0,0,0,0.1c0,0.1,0,0.1,0,0.2c0,0,0,0,0,0c0,0,0,0,0.1-0.2c0-0.1,0-0.1,0.1-0.2
				l0,0c0,0,0-0.1,0-0.1l0,0c-0.1,0,0-0.1,0-0.1c0,0,0-0.1-0.1-0.1c0,0,0,0,0,0C4.7,6.7,4.7,6.7,4.7,6.7z M4,6.9L4,7
				c0,0,0,0,0.1-0.1l0,0C4.1,6.9,4.1,6.8,4,6.9C4.1,6.8,4.1,6.8,4,6.9C4.1,6.8,4.1,6.8,4,6.9c0.1-0.1,0.1-0.1,0.1-0.1l0,0
				c0,0,0,0,0,0C4.1,6.8,4.1,6.8,4,6.9C4,6.8,4,6.8,4,6.9z M1.1,12.9c0,0,0,0.1,0,0.2c0,0,0,0.1,0,0.1l0,0c0,0,0,0,0,0.1
				c0,0,0,0.1,0,0.1c0,0,0.1,0,0.1,0c0-0.1,0-0.3,0-0.3l0,0l0,0l0,0C1.1,13.1,1.1,13.1,1.1,12.9c0-0.1,0-0.1,0-0.2c0,0,0,0,0-0.1
				l0,0l0,0l0,0c0,0,0,0,0,0l0,0l0,0l0,0c0,0,0,0.3,0,0.3C1.1,12.9,1.1,12.9,1.1,12.9z M1.1,14C1.1,14,1.1,14,1.1,14
				c0-0.1,0-0.2,0-0.2l0,0c0,0,0,0,0,0l0,0c0,0,0,0,0,0c0,0.1,0,0.1,0,0.1l0,0l0,0C1.1,13.8,1.1,13.9,1.1,14
				C1.1,13.9,1.1,13.9,1.1,14L1.1,14z M1.2,12.1l0-0.2l0-0.2l0.1-0.3l0-0.3c0-0.1,0.1-0.2,0.1-0.3c0-0.1,0-0.1,0.1-0.2l0.1-0.2
				l0-0.1l0.1-0.2l0.1-0.1l0-0.1l0.1-0.1l0.1-0.1L2,9.6l0-0.1l0.1-0.1l0-0.1l0-0.1l0,0.2l0.1-0.2L2.3,9L2.3,9l0.2-0.3c0,0,0,0,0.1,0
				l0.1-0.1l0.1,0l0-0.1l0.1-0.2L3,8c0,0,0,0,0,0l0.1-0.1l0,0l0.1-0.1l0.1-0.1c0,0,0.1,0,0.1,0.1c0,0,0,0-0.1,0.1c0,0-0.1,0-0.1,0
				C3.2,7.9,3.2,7.9,3.2,8.1l0,0.1L3.2,8L3.3,8l0.1,0l0.1-0.1l0.1,0l0.1-0.2l0.1-0.1l0.1-0.1l-0.1,0L3.7,7.7l-0.1,0l0-0.1l0-0.1
				l0.1-0.2l0.1-0.1l0.1-0.2l-0.1,0L3.8,6.9L3.6,7.1L3.4,7.3L3.2,7.5l0.1-0.1l0.1-0.1l0.1-0.1l0-0.1c0,0,0,0,0.1,0l0.1-0.1l0.1-0.1
				l0.1,0l0.1-0.1l0.1,0c0,0,0,0,0.1,0l0.1,0l0.1,0l0.1,0l0.1-0.1l0.2-0.1l0.1,0l0.1,0L5,6.3l0-0.1l0.1-0.1L5.2,6L5.1,6l0-0.1
				c0,0-0.1,0-0.1,0L4.9,6L4.9,6l0,0l0.1-0.1l0.1,0l0.1,0l0.1-0.1l-0.1,0l0-0.1l0-0.1l0-0.1l0-0.1l0.1-0.1l0,0l0.1-0.1l0.1-0.2
				l0.1-0.2l0.2-0.3l0.1-0.1L5.7,4.7c0,0-0.1,0.1-0.1,0.1l-0.1,0L5.4,4.9l0,0l0.1-0.1l0-0.1l-0.1,0l0.2-0.2c0.1-0.1,0.1-0.1,0.2-0.2
				l0.1-0.1l0,0l0.1-0.1L6,4.1L6.1,4L6,4l0,0l0,0l0,0L5.9,4.1L5.8,4.2L5.6,4.3L5.5,4.4L5.4,4.6l0,0L5.2,4.7L5.2,4.8L5.1,4.8L5,4.9
				L4.9,5.1C4.8,5.2,4.7,5.2,4.7,5.3L4.5,5.4L4.4,5.5l0,0L4.2,5.7C4.1,5.8,4.1,5.9,4,6L3.9,6.1L3.8,6.2L3.7,6.4l0,0l0.1-0.2L3.9,6
				C4,6,4,5.9,4.1,5.9l0.2-0.2l0.1-0.2l0,0l0,0l0.1-0.1l0.1-0.1C4.3,5.6,4,5.9,3.8,6.2C3.4,6.7,3.4,6.7,2.7,7.9c0,0,0,0,0,0l0,0
				c0,0,0,0,0,0c0,0,0,0,0,0C2.3,8.5,2.3,8.5,1.8,9.8c-0.1,0.4-0.3,0.9-0.4,1.2l0,0.1v0l0-0.1l0,0l0,0.1l0,0.2c0,0.1,0,0.1,0,0.2
				l0,0.1l0,0.1l0,0.1l0,0.1L1.2,12.1L1.2,12.1L1.2,12.1L1.2,12.1z M7.6,2.9c0,0,0,0-0.2,0.1L7.3,3.1l0,0l0.1,0L7.5,3L7.6,2.9z
				 M5.8,4.2C5.8,4.1,5.9,4.1,5.8,4.2C5.9,4.1,5.9,4,6,4l0,0L5.9,4L5.8,4.2L5.8,4.2L5.8,4.2z M6.3,3.7L6.3,3.7L6.3,3.7L6.3,3.7
				L6.3,3.7L6.3,3.7l0.1-0.1l0.2-0.1l0,0l0.1-0.1l0,0c0,0,0.1,0,0.1-0.1l0,0l0.1,0L7,3.2l0,0l0.1-0.1l0.1-0.1L7.3,3L7.4,3l0.2-0.1
				l0,0l0.1-0.1l0.1-0.1l0.1,0l0.1-0.1l0,0l0.1,0l0,0l-0.1,0l0,0l0,0l0.1-0.1l0,0L8.2,2.6l0,0L8,2.7l0,0L7.9,2.8l0,0L7.7,2.9l0,0
				L7.6,3L7.4,3.1L7.2,3.2L7,3.3L6.9,3.4l-0.1,0l0,0l0,0L6.7,3.5c0,0-0.1,0.1-0.1,0.1l0,0l0,0l0.1-0.1l0.1,0l0,0l0,0L6.5,3.8
				L6.4,3.9L6.3,4c0,0,0,0,0,0L6.2,4.1l0.1,0l0,0.1l0.1-0.1l0.1-0.2l0.1-0.1l0.1-0.1l0,0.1L6.5,4l0,0.1c0,0,0.1-0.1,0.1-0.1l0.2-0.1
				l0-0.1L7,3.6l0-0.1l0.2-0.2l0.1-0.1l0.1,0L7.2,3.4L7.1,3.6l0,0l0.2-0.1l0.1,0l0.1-0.1c0,0,0,0,0,0l0.1-0.1l0.1-0.1c0,0,0,0-0.1,0
				c0,0,0,0,0.1,0l0.1-0.1l0,0l0,0l0,0l0.1-0.1L8,2.9c0,0,0,0,0,0l0,0C8,2.8,8,2.8,8.1,2.8l0,0l0.1,0l0,0l0.1,0l0,0l0.1-0.1l0,0
				l0.1-0.1l0,0h0l0.1,0l0,0l0,0l0.1,0l0,0l-0.1,0l0.1-0.1l0.1,0l0,0l0.1,0l0.1,0l0,0L9,2.2l0,0l0,0l-0.1,0l0,0L9,2.2l0.1-0.1L9.3,2
				L9.5,2l0,0L9.3,2l0,0L9.2,2L9.1,2.1L8.9,2.2l-0.1,0L8.6,2.3l0,0l0.2-0.1L9,2.1l0.2-0.1L9.3,2l0.1-0.1v0l0,0L9.2,2L9,2.1L8.6,2.3
				l0,0l0,0L8.4,2.4l0,0l0,0l-0.1,0L8.3,2.5l0,0l0,0L8.2,2.5l-0.1,0l0,0L7.9,2.7L7.8,2.7L7.6,2.8C7.4,3,7.1,3.2,6.9,3.3l0,0L6.6,3.4
				C6.6,3.5,6.5,3.6,6.4,3.6L6.3,3.7L6.3,3.7L6.3,3.7c-0.1,0-0.1,0.1-0.1,0.1l0,0L6.3,3.7z M2.7,7.9C2.7,7.8,2.7,7.8,2.7,7.9
				c0.1-0.3,0.3-0.5,0.4-0.7C2.9,7.4,2.8,7.5,2.7,7.9C2.7,7.9,2.7,7.9,2.7,7.9z M1.9,9.4C2,9.2,2.1,9.1,2.1,8.9c0,0,0,0,0,0l0,0
				c0,0,0,0,0,0C2,9.2,1.9,9.4,1.8,9.8l0.1-0.1C1.9,9.6,1.9,9.5,1.9,9.4z"/>
		</g>
	</g>
	<path class="st2" d="M24,23.7C18.9,29,10.3,29.1,5,24c-5.3-5.2-5.5-13.7-0.3-19c5.2-5.3,13.7-5.5,19-0.3C29,9.8,29.2,18.3,24,23.7z
		"/>
</g>
</svg>
