<?xml version="1.0" encoding="utf-8"?>
<!-- Generator: Adobe Illustrator 22.1.0, SVG Export Plug-In . SVG Version: 6.00 Build 0)  -->
<svg version="1.1" id="Layer_1" xmlns="http://www.w3.org/2000/svg" xmlns:xlink="http://www.w3.org/1999/xlink" x="0px" y="0px"
	 viewBox="0 0 39 38" style="enable-background:new 0 0 39 38;" xml:space="preserve">
<style type="text/css">
	.st0{fill:#FFFFFF;}
</style>
<g>
	<path class="st0" d="M18.9,37.3c-10,0-18.2-8.1-18.2-18.2C0.8,9.1,8.9,1,18.9,1c10,0,18.2,8.1,18.2,18.2
		C37.1,29.1,29,37.3,18.9,37.3z M18.9,2.4C9.7,2.4,2.2,9.9,2.2,19.1s7.5,16.7,16.7,16.7c9.2,0,16.7-7.5,16.7-16.7S28.2,2.4,18.9,2.4
		z"/>
	<g>
		<g>
			<polygon class="st0" points="10.5,18.4 10.5,27.1 14.7,27.1 14.7,17.7 14.7,15.2 10.5,15.2 			"/>
			<path class="st0" d="M12.6,9.3c-1.1,0-2.1,0.9-2.1,2.1c0,1.1,0.9,2.1,2.1,2.1c1.1,0,2.1-0.9,2.1-2.1C14.7,10.2,13.7,9.3,12.6,9.3
				z"/>
			<path class="st0" d="M28.2,18.9c-0.3-2.2-1.3-3.6-4.3-3.6c-1.8,0-3,0.7-3.5,1.6h-0.1v-1.6H17v2.3v9.6h3.5v-5.9
				c0-1.6,0.3-3.1,2.2-3.1c1.9,0,2,1.8,2,3.2v5.8h3.6v-6.5C28.3,20,28.3,19.4,28.2,18.9z"/>
		</g>
	</g>
</g>
</svg>
