<?xml version="1.0" encoding="utf-8"?>
<!-- Generator: Adobe Illustrator 22.1.0, SVG Export Plug-In . SVG Version: 6.00 Build 0)  -->
<svg version="1.1" id="Layer_1" xmlns="http://www.w3.org/2000/svg" xmlns:xlink="http://www.w3.org/1999/xlink" x="0px" y="0px"
	 viewBox="0 0 25 24.9" style="enable-background:new 0 0 25 24.9;" xml:space="preserve">
<style type="text/css">
	.st0{fill:#FFFFFF;stroke:#999999;stroke-width:0.5;stroke-miterlimit:10;}
</style>
<path class="st0" d="M19.5,14.5c-1.3,0-2.5,0.5-3.4,1.3l-5.8-2.7c0-0.2,0.1-0.5,0.1-0.7c0-0.2,0-0.4,0-0.5L16,9
	c0.9,0.9,2.1,1.4,3.5,1.4c2.7,0,4.9-2.2,4.9-4.9s-2.2-4.9-4.9-4.9s-4.9,2.2-4.9,4.9c0,0.2,0,0.4,0,0.5L9,8.9C8.1,8,6.8,7.4,5.5,7.4
	c-2.7,0-4.9,2.2-4.9,4.9s2.2,4.9,4.9,4.9c1.3,0,2.5-0.5,3.3-1.3l5.8,2.7c0,0.2,0,0.5,0,0.7c0,2.7,2.2,4.9,4.9,4.9s4.9-2.2,4.9-4.9
	S22.2,14.5,19.5,14.5z"/>
</svg>
